M48
; DRILL file KiCad 10.0.1 date 2026-05-15T16:38:46
; FORMAT={-:-/ absolute / inch / decimal}
; #@! TF.CreationDate,2026-05-15T16:38:46+02:00
; #@! TF.GenerationSoftware,Kicad,Pcbnew,10.0.1
; #@! TF.FileFunction,Plated,1,2,PTH
FMAT,2
INCH
; #@! TA.AperFunction,Plated,PTH,ViaDrill
T1C0.0118
; #@! TA.AperFunction,Plated,PTH,ComponentDrill
T2C0.0362
; #@! TA.AperFunction,Plated,PTH,ComponentDrill
T3C0.0394
; #@! TA.AperFunction,Plated,PTH,ComponentDrill
T4C0.0630
; #@! TA.AperFunction,Plated,PTH,ComponentDrill
T5C0.0906
; #@! TA.AperFunction,Plated,PTH,ComponentDrill
T6C0.1260
%
G90
G05
T1
X4.315Y-3.0748
X4.3425Y-2.9035
X4.3622Y-2.4665
X4.3622Y-2.5217
X4.3839Y-2.8268
X4.3937Y-2.7402
X4.4134Y-2.874
X4.4252Y-2.0669
X4.4311Y-3.1063
X4.4429Y-2.2441
X4.4665Y-2.7402
X4.4685Y-2.8839
X4.4882Y-2.8189
X4.4921Y-2.4449
X4.4961Y-2.5295
X4.5295Y-1.9075
X4.5295Y-2.3071
X4.5295Y-3.0256
X4.5315Y-2.624
X4.5315Y-2.6693
X4.5335Y-2.9547
X4.5492Y-2.8327
X4.5492Y-3.0945
X4.6083Y-2.3583
X4.6457Y-2.5217
X4.6693Y-1.815
X4.6988Y-2.4291
X4.7028Y-3.0945
X4.7146Y-2.7087
X4.7343Y-2.6299
X4.7343Y-2.6811
X4.7402Y-2.0591
X4.7402Y-2.8287
X4.7441Y-2.9882
X4.7461Y-2.8937
X4.75Y-3.0787
X4.7815Y-3.1043
X4.7874Y-2.8465
X4.8031Y-2.3484
X4.811Y-2.1063
X4.8406Y-2.0433
X4.8583Y-2.1063
X4.874Y-1.9567
X4.9744Y-1.9449
X5.0472Y-2.5276
X5.0472Y-3.0728
X5.0906Y-1.937
X5.1024Y-2.0866
X5.1063Y-2.815
X5.1117Y-2.7505
X5.1142Y-3.0866
X5.1358Y-2.4409
X5.1457Y-2.9764
X5.1909Y-2.3878
X5.1949Y-2.9803
X5.1988Y-3.0925
X5.2008Y-2.4567
X5.2303Y-2.8071
X5.2382Y-2.126
X5.2657Y-2.8307
X5.2894Y-2.9783
X5.2933Y-3.0945
X5.3484Y-2.3661
X5.3622Y-2.9744
X5.3642Y-3.0925
X5.3996Y-2.1201
X5.4252Y-2.4016
X5.4291Y-3.0945
X5.4409Y-2.9724
X5.4941Y-2.9783
X5.498Y-2.7283
X5.5059Y-2.0866
X5.5059Y-2.6417
X5.5098Y-2.4134
X5.5098Y-2.689
X5.5217Y-2.3543
X5.5256Y-3.1004
X5.5295Y-2.2441
X5.5512Y-1.9665
X5.565Y-2.9646
X5.5728Y-2.5492
X5.5728Y-2.9094
X5.5827Y-2.3484
X5.6142Y-2.7559
X5.6181Y-1.9213
X5.628Y-2.3898
X5.6358Y-2.7224
X5.6378Y-2.5413
X5.6457Y-2.2402
X5.6476Y-3.0748
X5.6535Y-2.8681
X5.6555Y-2.9055
X5.6575Y-2.9606
X5.6791Y-2.7205
X5.689Y-2.8661
X5.6949Y-2.9193
X5.7244Y-2.5472
X5.7402Y-1.9567
X5.7441Y-2.5965
X5.7638Y-2.4016
X5.7933Y-2.2185
X5.7933Y-2.5138
X5.8031Y-2.3228
X5.8071Y-3.1004
X5.8091Y-3.0433
X5.8209Y-2.9783
X5.8425Y-2.4291
X5.8898Y-2.8583
X5.9429Y-2.7736
X5.9508Y-2.6673
X5.9724Y-2.8976
X6.0374Y-2.3268
X6.0374Y-2.4016
X6.065Y-2.9902
X6.0807Y-2.5906
X6.0866Y-2.7638
X6.0906Y-2.8307
X6.1555Y-2.7362
X6.1634Y-2.9429
X6.1732Y-2.4173
X6.185Y-2.5197
X6.189Y-1.8031
X6.1909Y-2.8386
X6.2106Y-2.2913
X6.248Y-2.1752
X6.2638Y-1.9469
T2
X5.8255Y-2.626
X5.8255Y-2.7244
X5.8255Y-2.8031
X5.8255Y-2.9016
T3
X5.1913Y-2.9055
X5.2913Y-2.9055
X5.3913Y-2.9055
X5.4913Y-2.9055
T4
X4.7269Y-1.9429
X4.7269Y-2.1909
X5.0064Y-2.0669
X5.6457Y-2.0669
X5.9252Y-1.9429
X5.9252Y-2.1909
T5
X5.9322Y-2.5051
X5.9322Y-3.0224
T6
X4.9035Y-2.9882
X5.313Y-1.9921
M30
