%TF.GenerationSoftware,KiCad,Pcbnew,10.0.1*%
%TF.CreationDate,2026-05-15T16:38:46+02:00*%
%TF.ProjectId,ADC_Silence_detector,4144435f-5369-46c6-956e-63655f646574,rev?*%
%TF.SameCoordinates,Original*%
%TF.FileFunction,Copper,L1,Top*%
%TF.FilePolarity,Positive*%
%FSLAX46Y46*%
G04 Gerber Fmt 4.6, Leading zero omitted, Abs format (unit mm)*
G04 Created by KiCad (PCBNEW 10.0.1) date 2026-05-15 16:38:46*
%MOMM*%
%LPD*%
G01*
G04 APERTURE LIST*
G04 Aperture macros list*
%AMRoundRect*
0 Rectangle with rounded corners*
0 $1 Rounding radius*
0 $2 $3 $4 $5 $6 $7 $8 $9 X,Y pos of 4 corners*
0 Add a 4 corners polygon primitive as box body*
4,1,4,$2,$3,$4,$5,$6,$7,$8,$9,$2,$3,0*
0 Add four circle primitives for the rounded corners*
1,1,$1+$1,$2,$3*
1,1,$1+$1,$4,$5*
1,1,$1+$1,$6,$7*
1,1,$1+$1,$8,$9*
0 Add four rect primitives between the rounded corners*
20,1,$1+$1,$2,$3,$4,$5,0*
20,1,$1+$1,$4,$5,$6,$7,0*
20,1,$1+$1,$6,$7,$8,$9,0*
20,1,$1+$1,$8,$9,$2,$3,0*%
G04 Aperture macros list end*
%TA.AperFunction,ComponentPad*%
%ADD10C,6.400000*%
%TD*%
%TA.AperFunction,SMDPad,CuDef*%
%ADD11RoundRect,0.250000X0.412500X0.650000X-0.412500X0.650000X-0.412500X-0.650000X0.412500X-0.650000X0*%
%TD*%
%TA.AperFunction,SMDPad,CuDef*%
%ADD12RoundRect,0.250000X0.650000X-0.412500X0.650000X0.412500X-0.650000X0.412500X-0.650000X-0.412500X0*%
%TD*%
%TA.AperFunction,SMDPad,CuDef*%
%ADD13RoundRect,0.250000X-0.412500X-0.650000X0.412500X-0.650000X0.412500X0.650000X-0.412500X0.650000X0*%
%TD*%
%TA.AperFunction,ComponentPad*%
%ADD14R,1.700000X1.700000*%
%TD*%
%TA.AperFunction,ComponentPad*%
%ADD15C,1.700000*%
%TD*%
%TA.AperFunction,SMDPad,CuDef*%
%ADD16RoundRect,0.250000X-0.400000X-0.625000X0.400000X-0.625000X0.400000X0.625000X-0.400000X0.625000X0*%
%TD*%
%TA.AperFunction,ComponentPad*%
%ADD17RoundRect,0.250000X0.512000X-0.512000X0.512000X0.512000X-0.512000X0.512000X-0.512000X-0.512000X0*%
%TD*%
%TA.AperFunction,ComponentPad*%
%ADD18C,1.524000*%
%TD*%
%TA.AperFunction,ComponentPad*%
%ADD19C,3.500000*%
%TD*%
%TA.AperFunction,SMDPad,CuDef*%
%ADD20RoundRect,0.150000X0.512500X0.150000X-0.512500X0.150000X-0.512500X-0.150000X0.512500X-0.150000X0*%
%TD*%
%TA.AperFunction,SMDPad,CuDef*%
%ADD21RoundRect,0.125000X-1.125000X0.125000X-1.125000X-0.125000X1.125000X-0.125000X1.125000X0.125000X0*%
%TD*%
%TA.AperFunction,SMDPad,CuDef*%
%ADD22RoundRect,0.250000X-1.000000X0.750000X-1.000000X-0.750000X1.000000X-0.750000X1.000000X0.750000X0*%
%TD*%
%TA.AperFunction,SMDPad,CuDef*%
%ADD23O,1.742000X0.364000*%
%TD*%
%TA.AperFunction,SMDPad,CuDef*%
%ADD24RoundRect,0.250000X1.500000X0.550000X-1.500000X0.550000X-1.500000X-0.550000X1.500000X-0.550000X0*%
%TD*%
%TA.AperFunction,SMDPad,CuDef*%
%ADD25RoundRect,0.162500X-0.617500X-0.162500X0.617500X-0.162500X0.617500X0.162500X-0.617500X0.162500X0*%
%TD*%
%TA.AperFunction,ComponentPad*%
%ADD26C,2.600000*%
%TD*%
%TA.AperFunction,ViaPad*%
%ADD27C,0.600000*%
%TD*%
%TA.AperFunction,Conductor*%
%ADD28C,0.200000*%
%TD*%
%TA.AperFunction,Conductor*%
%ADD29C,0.508000*%
%TD*%
G04 APERTURE END LIST*
D10*
%TO.P,REF\u002A\u002A,1*%
%TO.N,N/C*%
X134950000Y-50600000D03*
%TD*%
%TO.P,REF\u002A\u002A,1*%
%TO.N,N/C*%
X124550000Y-75900000D03*
%TD*%
D11*
%TO.P,C5,1*%
%TO.N,+VOUT*%
X144762500Y-63000000D03*
%TO.P,C5,2*%
%TO.N,GND*%
X141637500Y-63000000D03*
%TD*%
D12*
%TO.P,C3,1*%
%TO.N,+3.3V*%
X128200000Y-69862500D03*
%TO.P,C3,2*%
%TO.N,GND*%
X128200000Y-66737500D03*
%TD*%
D13*
%TO.P,C4,1*%
%TO.N,+5V*%
X141137500Y-70750000D03*
%TO.P,C4,2*%
%TO.N,GND*%
X144262500Y-70750000D03*
%TD*%
D11*
%TO.P,C2,1*%
%TO.N,+3.3V*%
X125362500Y-62600000D03*
%TO.P,C2,2*%
%TO.N,GND*%
X122237500Y-62600000D03*
%TD*%
D14*
%TO.P,J4,1,Pin_1_1*%
%TO.N,+3.3V*%
X131860000Y-73800000D03*
D15*
%TO.P,J4,2,Pin_2_2*%
%TO.N,GND*%
X134400000Y-73800000D03*
%TO.P,J4,3,Pin_3_3*%
%TO.N,/DIO*%
X136940000Y-73800000D03*
%TO.P,J4,4,Pin_4_4*%
%TO.N,/DCK*%
X139480000Y-73800000D03*
%TD*%
D16*
%TO.P,R1,1*%
%TO.N,+5V*%
X141850000Y-78200000D03*
%TO.P,R1,2*%
%TO.N,Net-(U3-~{FLG})*%
X144950000Y-78200000D03*
%TD*%
D17*
%TO.P,J5,1,VBUS_1*%
%TO.N,+VOUT*%
X147967500Y-73700000D03*
D18*
%TO.P,J5,2,D-_2*%
%TO.N,unconnected-(J5-D--Pad2)*%
X147967500Y-71200000D03*
%TO.P,J5,3,D+_3*%
%TO.N,unconnected-(J5-D+-Pad3)*%
X147967500Y-69200000D03*
%TO.P,J5,4,GND_4*%
%TO.N,GND*%
X147967500Y-66700000D03*
D19*
%TO.P,J5,SH,Shield_SH*%
X150677500Y-76770000D03*
X150677500Y-63630000D03*
%TD*%
D20*
%TO.P,U3,1,OUT_1*%
%TO.N,+VOUT*%
X143937500Y-67900000D03*
%TO.P,U3,2,GND_2*%
%TO.N,GND*%
X143937500Y-66950000D03*
%TO.P,U3,3,~{FLG}_3*%
%TO.N,Net-(U3-~{FLG})*%
X143937500Y-66000000D03*
%TO.P,U3,4,EN_4*%
%TO.N,/Switch_Out*%
X141662500Y-66000000D03*
%TO.P,U3,5,IN_5*%
%TO.N,+5V*%
X141662500Y-67900000D03*
%TD*%
D21*
%TO.P,J3,1,VBUS_1*%
%TO.N,+5V*%
X117725000Y-70000000D03*
%TO.P,J3,2,D-_2*%
%TO.N,unconnected-(J3-D--Pad2)*%
X117725000Y-70800000D03*
%TO.P,J3,3,D+_3*%
%TO.N,unconnected-(J3-D+-Pad3)*%
X117725000Y-71600000D03*
%TO.P,J3,4,ID_4*%
%TO.N,unconnected-(J3-ID-Pad4)*%
X117725000Y-72400000D03*
%TO.P,J3,5,GND_5*%
%TO.N,GND*%
X117725000Y-73200000D03*
D22*
%TO.P,J3,SH,Shield_SH*%
X117725000Y-67200000D03*
X112225000Y-67200000D03*
X117725000Y-76000000D03*
X112225000Y-76000000D03*
%TD*%
D23*
%TO.P,U1,1,PA6/MISO/T3C1/T1BK_/O1N0/A6_1*%
%TO.N,/Channel_1*%
X132100000Y-64000000D03*
%TO.P,U1,2,PA7/MOSI/T3C2/T1C1N_/O2P0/PB0/TX4/T1C2N_/O1P0/A8_2*%
%TO.N,/Channel_2*%
X132100000Y-64650000D03*
%TO.P,U1,3,PB1/T1C3N_/RX4/O2N1/A9_3*%
%TO.N,/Switch_Out*%
X132100000Y-65300000D03*
%TO.P,U1,4,PB7/RST/T1C2N/O2P2_4*%
%TO.N,unconnected-(U1-PB7{slash}RST{slash}T1C2N{slash}O2P2-Pad4)*%
X132100000Y-65950000D03*
%TO.P,U1,5,PC16/UDM/T1C4/TX4_2/I2C_/RX4_5/PC11_5*%
%TO.N,unconnected-(U1-PC16{slash}UDM{slash}T1C4{slash}TX4_2{slash}I2C_{slash}RX4_5{slash}PC11-Pad5)*%
X132100000Y-66600000D03*
%TO.P,U1,6,PC17/UDP/TX4_5/I2C_/RX4_2/T1ET/PC10_6*%
%TO.N,unconnected-(U1-PC17{slash}UDP{slash}TX4_5{slash}I2C_{slash}RX4_2{slash}T1ET{slash}PC10-Pad6)*%
X132100000Y-67250000D03*
%TO.P,U1,7,GND_7*%
%TO.N,GND*%
X132100000Y-67900000D03*
%TO.P,U1,8,PC18/DIO/TX3_/T2C1N_/T3C2_/I2C_/T1ET__8*%
%TO.N,/DIO*%
X132100000Y-68550000D03*
%TO.P,U1,9,VDD_9*%
%TO.N,+3.3V*%
X132100000Y-69200000D03*
%TO.P,U1,10,PA9/MISO_/RX4_1/T2BK__10*%
%TO.N,unconnected-(U1-PA9{slash}MISO_{slash}RX4_1{slash}T2BK_-Pad10)*%
X132100000Y-69850000D03*
%TO.P,U1,11,PA11/SDA/SCK_/RX1_/C2P1_11*%
%TO.N,unconnected-(U1-PA11{slash}SDA{slash}SCK_{slash}RX1_{slash}C2P1-Pad11)*%
X137842000Y-69850000D03*
%TO.P,U1,12,PA10/SCL/TX1_/MOSI__12*%
%TO.N,unconnected-(U1-PA10{slash}SCL{slash}TX1_{slash}MOSI_-Pad12)*%
X137842000Y-69200000D03*
%TO.P,U1,13,PC3/T1C4_/T2C1N_/C1N0/C2N1/A13_13*%
%TO.N,unconnected-(U1-PC3{slash}T1C4_{slash}T2C1N_{slash}C1N0{slash}C2N1{slash}A13-Pad13)*%
X137842000Y-68550000D03*
%TO.P,U1,14,PA0/T2C1/C1P1/A0_14*%
%TO.N,unconnected-(U1-PA0{slash}T2C1{slash}C1P1{slash}A0-Pad14)*%
X137842000Y-67900000D03*
%TO.P,U1,15,PA1/T2C2/C1O/O1N2/O2N2/A1_15*%
%TO.N,unconnected-(U1-PA1{slash}T2C2{slash}C1O{slash}O1N2{slash}O2N2{slash}A1-Pad15)*%
X137842000Y-67250000D03*
%TO.P,U1,16,PA2/TX2/T2C3/O2O1/T2ET_/A2_16*%
%TO.N,unconnected-(U1-PA2{slash}TX2{slash}T2C3{slash}O2O1{slash}T2ET_{slash}A2-Pad16)*%
X137842000Y-66600000D03*
%TO.P,U1,17,PA3/T2C4/T3C1_/RX2/O1O0/A3_17*%
%TO.N,unconnected-(U1-PA3{slash}T2C4{slash}T3C1_{slash}RX2{slash}O1O0{slash}A3-Pad17)*%
X137842000Y-65950000D03*
%TO.P,U1,18,PC19/DCK/T2C1_/T3C1_/I2C_/RX3_/C1P0_18*%
%TO.N,/DCK*%
X137842000Y-65300000D03*
%TO.P,U1,19,PA4/CS/O2O0/T3C2_/A4_19*%
%TO.N,unconnected-(U1-PA4{slash}CS{slash}O2O0{slash}T3C2_{slash}A4-Pad19)*%
X137842000Y-64650000D03*
%TO.P,U1,20,PA5/SCK/TX4_1/O2N0/A5_20*%
%TO.N,unconnected-(U1-PA5{slash}SCK{slash}TX4_1{slash}O2N0{slash}A5-Pad20)*%
X137842000Y-64000000D03*
%TD*%
D13*
%TO.P,C1,1*%
%TO.N,+5V*%
X122237500Y-69600000D03*
%TO.P,C1,2*%
%TO.N,GND*%
X125362500Y-69600000D03*
%TD*%
D24*
%TO.P,C6,1*%
%TO.N,+VOUT*%
X137250000Y-58200000D03*
%TO.P,C6,2*%
%TO.N,GND*%
X131850000Y-58200000D03*
%TD*%
D25*
%TO.P,U2,1,VIN_1*%
%TO.N,+5V*%
X122450000Y-65150000D03*
%TO.P,U2,2,GND_2*%
%TO.N,GND*%
X122450000Y-66100000D03*
%TO.P,U2,3,EN_3*%
%TO.N,+5V*%
X122450000Y-67050000D03*
%TO.P,U2,4,NC_4*%
%TO.N,unconnected-(U2-NC-Pad4)*%
X125150000Y-67050000D03*
%TO.P,U2,5,VOUT_5*%
%TO.N,+3.3V*%
X125150000Y-65150000D03*
%TD*%
D26*
%TO.P,J2,1,IN1_1*%
%TO.N,/Channel_2*%
X150500000Y-49350000D03*
%TO.P,J2,2,IN2_2*%
%TO.N,/Channel_1*%
X150500000Y-55650000D03*
%TO.P,J2,3,EXT_3*%
%TO.N,GND*%
X143400000Y-52500000D03*
%TD*%
%TO.P,J1,1,IN1_1*%
%TO.N,/Channel_2*%
X120062000Y-55650000D03*
%TO.P,J1,2,IN2_2*%
%TO.N,/Channel_1*%
X120062000Y-49350000D03*
%TO.P,J1,3,EXT_3*%
%TO.N,GND*%
X127162000Y-52500000D03*
%TD*%
D27*
%TO.N,+3.3V*%
X128200000Y-64200000D03*
X129837500Y-69862500D03*
%TO.N,GND*%
X141350000Y-75300000D03*
X131850000Y-60650000D03*
X143200000Y-64550000D03*
X156800000Y-61400000D03*
X118000000Y-64050000D03*
X153350000Y-59100000D03*
X140350000Y-78750000D03*
X156550000Y-74750000D03*
X113500000Y-73250000D03*
X120250000Y-68100000D03*
X148400000Y-61700000D03*
X117050000Y-59900000D03*
X114100000Y-62100000D03*
X119450000Y-78600000D03*
X120500000Y-75900000D03*
X123400000Y-53500000D03*
X137900000Y-78600000D03*
X141550000Y-73900000D03*
X115100000Y-67800000D03*
X143150000Y-69150000D03*
X120250000Y-66800000D03*
X115550000Y-78600000D03*
X157200000Y-45800000D03*
X112100000Y-73000000D03*
X157750000Y-58200000D03*
X131950000Y-75700000D03*
X130700000Y-75600000D03*
X132050000Y-78550000D03*
X113450000Y-69600000D03*
X139950000Y-68300000D03*
X143700000Y-75200000D03*
X132850000Y-71300000D03*
X112850000Y-57000000D03*
X139650000Y-69300000D03*
X151150000Y-67750000D03*
X122000000Y-59650000D03*
X120400000Y-52300000D03*
X144500000Y-72800000D03*
X147550000Y-77300000D03*
X154050000Y-75950000D03*
X147150000Y-63850000D03*
X139950000Y-61300000D03*
X141800000Y-59650000D03*
X158700000Y-55250000D03*
X115050000Y-58600000D03*
X135850000Y-60100000D03*
X147150000Y-56350000D03*
X115150000Y-75050000D03*
X133050000Y-54000000D03*
X110800000Y-62650000D03*
X129900000Y-78400000D03*
X120650000Y-78200000D03*
X151700000Y-73600000D03*
X137800000Y-61000000D03*
X121450000Y-78850000D03*
X139550000Y-75650000D03*
X143600000Y-72850000D03*
X111350000Y-71800000D03*
X143400000Y-56900000D03*
X112400000Y-52500000D03*
X120550000Y-73500000D03*
X157250000Y-72100000D03*
X114000000Y-71600000D03*
X134450000Y-78600000D03*
X129600000Y-53000000D03*
X121600000Y-72300000D03*
X140250000Y-59800000D03*
X119750000Y-68800000D03*
X145400000Y-64700000D03*
X119350000Y-61700000D03*
X129700000Y-71500000D03*
X137150000Y-53850000D03*
X146400000Y-61000000D03*
X118600000Y-46100000D03*
X122950000Y-51900000D03*
X139850000Y-67100000D03*
X134350000Y-75650000D03*
X120400000Y-71850000D03*
X132100000Y-62400000D03*
X115550000Y-71950000D03*
X122200000Y-53500000D03*
X133750000Y-71900000D03*
X157100000Y-64000000D03*
X136250000Y-78550000D03*
X145800000Y-49700000D03*
X147850000Y-75650000D03*
X114200000Y-64250000D03*
X139850000Y-53000000D03*
X144250000Y-69100000D03*
X130450000Y-62000000D03*
X142600000Y-70000000D03*
X141000000Y-49950000D03*
X150950000Y-70450000D03*
X128200000Y-78050000D03*
X144650000Y-74150000D03*
X129300000Y-49200000D03*
X136200000Y-75550000D03*
X159100000Y-49450000D03*
X142700000Y-48800000D03*
X110300000Y-73750000D03*
X147500000Y-78750000D03*
X149600000Y-72600000D03*
X111600000Y-69600000D03*
X126350000Y-49400000D03*
X110800000Y-64050000D03*
X138200000Y-75500000D03*
X115050000Y-48450000D03*
X147400000Y-59000000D03*
X115100000Y-66650000D03*
X154600000Y-70200000D03*
X123800000Y-49700000D03*
X154450000Y-65800000D03*
X112550000Y-78900000D03*
X154700000Y-71900000D03*
X140450000Y-57000000D03*
X141550000Y-64750000D03*
X115050000Y-76850000D03*
X142950000Y-60700000D03*
X153350000Y-61000000D03*
X156350000Y-69500000D03*
X109600000Y-78100000D03*
X143650000Y-73800000D03*
%TO.N,Net-(U3-~{FLG})*%
X145900000Y-65950000D03*
X143450000Y-78100000D03*
%TD*%
%TO.N,+3.3V*%
D28*
X131860000Y-73800000D02*
X131860000Y-71885000D01*
X130500000Y-69200000D02*
X129837500Y-69862500D01*
X127250000Y-65150000D02*
X128200000Y-64200000D01*
X125150000Y-65150000D02*
X127250000Y-65150000D01*
X129837500Y-69862500D02*
X128200000Y-69862500D01*
X131860000Y-71885000D02*
X129837500Y-69862500D01*
X125362500Y-64937500D02*
X125150000Y-65150000D01*
X125362500Y-62600000D02*
X125362500Y-64937500D01*
X132100000Y-69200000D02*
X130500000Y-69200000D01*
%TO.N,GND*%
X129362500Y-67900000D02*
X128200000Y-66737500D01*
X132100000Y-67900000D02*
X129362500Y-67900000D01*
%TO.N,/DIO*%
X134150000Y-68550000D02*
X132100000Y-68550000D01*
X134700000Y-71300000D02*
X134700000Y-69100000D01*
X136940000Y-73800000D02*
X136940000Y-72240000D01*
X134700000Y-69100000D02*
X134150000Y-68550000D01*
X136940000Y-72240000D02*
X136400000Y-71700000D01*
X135100000Y-71700000D02*
X134700000Y-71300000D01*
X136400000Y-71700000D02*
X135100000Y-71700000D01*
%TO.N,/DCK*%
X136000000Y-65300000D02*
X137842000Y-65300000D01*
X139480000Y-73800000D02*
X139480000Y-71980000D01*
X137000000Y-71600000D02*
X135800000Y-70400000D01*
X139100000Y-71600000D02*
X137000000Y-71600000D01*
X135800000Y-65500000D02*
X136000000Y-65300000D01*
X135800000Y-70400000D02*
X135800000Y-65500000D01*
X139480000Y-71980000D02*
X139100000Y-71600000D01*
%TO.N,+5V*%
D29*
X110500000Y-70750000D02*
X109850000Y-70100000D01*
X117725000Y-70000000D02*
X116150000Y-70000000D01*
X122237500Y-67262500D02*
X122450000Y-67050000D01*
X122237500Y-69600000D02*
X122237500Y-70987500D01*
X117725000Y-70000000D02*
X121837500Y-70000000D01*
X141850000Y-78200000D02*
X141850000Y-77050000D01*
X109850000Y-70100000D02*
X109850000Y-65950000D01*
X129950000Y-76900000D02*
X141700000Y-76900000D01*
X141137500Y-69212500D02*
X141137500Y-70750000D01*
X122237500Y-69600000D02*
X122237500Y-67262500D01*
X141662500Y-67900000D02*
X141662500Y-68687500D01*
X141662500Y-68687500D02*
X141137500Y-69212500D01*
X128900000Y-72750000D02*
X128900000Y-75850000D01*
X142400000Y-72012500D02*
X142400000Y-76200000D01*
X121837500Y-70000000D02*
X122237500Y-69600000D01*
X109850000Y-65950000D02*
X110650000Y-65150000D01*
X122900000Y-71650000D02*
X127800000Y-71650000D01*
X116150000Y-70000000D02*
X115400000Y-70750000D01*
X127800000Y-71650000D02*
X128900000Y-72750000D01*
X128900000Y-75850000D02*
X129950000Y-76900000D01*
X141850000Y-77050000D02*
X141700000Y-76900000D01*
X141137500Y-70750000D02*
X142400000Y-72012500D01*
X110650000Y-65150000D02*
X122450000Y-65150000D01*
X141700000Y-76900000D02*
X142400000Y-76200000D01*
X115400000Y-70750000D02*
X110500000Y-70750000D01*
X122237500Y-70987500D02*
X122900000Y-71650000D01*
%TO.N,/Switch_Out*%
D28*
X138950000Y-62750000D02*
X139900000Y-63700000D01*
X132100000Y-65300000D02*
X134700000Y-65300000D01*
X134700000Y-65300000D02*
X137250000Y-62750000D01*
X139900000Y-63700000D02*
X139900000Y-65800000D01*
X140100000Y-66000000D02*
X141662500Y-66000000D01*
X139900000Y-65800000D02*
X140100000Y-66000000D01*
X137250000Y-62750000D02*
X138950000Y-62750000D01*
%TO.N,/Channel_1*%
X115800000Y-53612000D02*
X120062000Y-49350000D01*
D29*
X153100000Y-46300000D02*
X123112000Y-46300000D01*
D28*
X132100000Y-64000000D02*
X130500000Y-64000000D01*
D29*
X154450000Y-55650000D02*
X155700000Y-54400000D01*
X123112000Y-46300000D02*
X120062000Y-49350000D01*
X155700000Y-54400000D02*
X155700000Y-48900000D01*
D28*
X118100000Y-58600000D02*
X115800000Y-56300000D01*
D29*
X155700000Y-48900000D02*
X153100000Y-46300000D01*
D28*
X130500000Y-64000000D02*
X125100000Y-58600000D01*
D29*
X150500000Y-55650000D02*
X154450000Y-55650000D01*
D28*
X115800000Y-56300000D02*
X115800000Y-53612000D01*
X125100000Y-58600000D02*
X118100000Y-58600000D01*
%TO.N,/Channel_2*%
X132100000Y-64650000D02*
X133950000Y-64650000D01*
X134500000Y-64100000D02*
X134500000Y-55650000D01*
D29*
X134500000Y-55650000D02*
X144200000Y-55650000D01*
D28*
X133950000Y-64650000D02*
X134500000Y-64100000D01*
D29*
X120062000Y-55650000D02*
X134500000Y-55650000D01*
X144200000Y-55650000D02*
X150500000Y-49350000D01*
%TO.N,+VOUT*%
X153100000Y-65200000D02*
X153100000Y-70200000D01*
X145500000Y-67900000D02*
X145850000Y-68250000D01*
X155200000Y-63100000D02*
X153100000Y-65200000D01*
X137250000Y-58200000D02*
X143950000Y-58200000D01*
X144762500Y-59012500D02*
X145875000Y-57900000D01*
X153100000Y-70200000D02*
X149600000Y-73700000D01*
X155200000Y-58600000D02*
X155200000Y-63100000D01*
X143937500Y-67900000D02*
X145500000Y-67900000D01*
X145850000Y-68250000D02*
X145850000Y-71582500D01*
X154500000Y-57900000D02*
X155200000Y-58600000D01*
X145850000Y-71582500D02*
X147967500Y-73700000D01*
X143950000Y-58200000D02*
X144762500Y-59012500D01*
X144762500Y-59012500D02*
X144762500Y-63000000D01*
X149600000Y-73700000D02*
X147967500Y-73700000D01*
X145875000Y-57900000D02*
X154500000Y-57900000D01*
%TO.N,Net-(U3-~{FLG})*%
D28*
X143450000Y-78100000D02*
X144850000Y-78100000D01*
X144850000Y-78100000D02*
X144950000Y-78200000D01*
X145850000Y-66000000D02*
X145900000Y-65950000D01*
X143937500Y-66000000D02*
X145850000Y-66000000D01*
%TD*%
%TA.AperFunction,Conductor*%
%TO.N,GND*%
G36*
X109305703Y-70623174D02*
G01*
X109312181Y-70629206D01*
X109909600Y-71226624D01*
X109909621Y-71226647D01*
X110019031Y-71336057D01*
X110067162Y-71368217D01*
X110067161Y-71368217D01*
X110142600Y-71418623D01*
X110142604Y-71418625D01*
X110142611Y-71418630D01*
X110223045Y-71451946D01*
X110279920Y-71475505D01*
X110303358Y-71480167D01*
X110381123Y-71495636D01*
X110425687Y-71504501D01*
X110425688Y-71504501D01*
X110580426Y-71504501D01*
X110580446Y-71504500D01*
X115319554Y-71504500D01*
X115319574Y-71504501D01*
X115325688Y-71504501D01*
X115474313Y-71504501D01*
X115518877Y-71495636D01*
X115596642Y-71480167D01*
X115620080Y-71475505D01*
X115676955Y-71451946D01*
X115757389Y-71418630D01*
X115781609Y-71402446D01*
X115848285Y-71381568D01*
X115915665Y-71400051D01*
X115962356Y-71452030D01*
X115974500Y-71505548D01*
X115974500Y-71788150D01*
X115974501Y-71788175D01*
X115977290Y-71823624D01*
X116018481Y-71965406D01*
X116018481Y-72034594D01*
X115977291Y-72176373D01*
X115977290Y-72176379D01*
X115974500Y-72211829D01*
X115974500Y-72588150D01*
X115974501Y-72588175D01*
X115977290Y-72623624D01*
X116018742Y-72766303D01*
X116018742Y-72835491D01*
X115985475Y-72950000D01*
X116089048Y-72950000D01*
X116156087Y-72969685D01*
X116176730Y-72986320D01*
X116213574Y-73023165D01*
X116213578Y-73023168D01*
X116213580Y-73023170D01*
X116349610Y-73103618D01*
X116501373Y-73147709D01*
X116536837Y-73150500D01*
X118913162Y-73150499D01*
X118948627Y-73147709D01*
X119100390Y-73103618D01*
X119236420Y-73023170D01*
X119273270Y-72986320D01*
X119334592Y-72952834D01*
X119360952Y-72950000D01*
X119464526Y-72950000D01*
X119464525Y-72949999D01*
X119431258Y-72835492D01*
X119431258Y-72766302D01*
X119444088Y-72722140D01*
X119472709Y-72623627D01*
X119475500Y-72588163D01*
X119475499Y-72211838D01*
X119472709Y-72176373D01*
X119431519Y-72034594D01*
X119431519Y-71965405D01*
X119459627Y-71868656D01*
X119472709Y-71823627D01*
X119475500Y-71788163D01*
X119475499Y-71411838D01*
X119472709Y-71376373D01*
X119431519Y-71234595D01*
X119431519Y-71165405D01*
X119461615Y-71061812D01*
X119472709Y-71023627D01*
X119475500Y-70988163D01*
X119475500Y-70878500D01*
X119495185Y-70811461D01*
X119547989Y-70765706D01*
X119599500Y-70754500D01*
X121216770Y-70754500D01*
X121239310Y-70761118D01*
X121262700Y-70763320D01*
X121275485Y-70771740D01*
X121283809Y-70774185D01*
X121293290Y-70780926D01*
X121299166Y-70785534D01*
X121356344Y-70842712D01*
X121430033Y-70888163D01*
X121435519Y-70892465D01*
X121451930Y-70915445D01*
X121470820Y-70936446D01*
X121472636Y-70944440D01*
X121476124Y-70949324D01*
X121476777Y-70962661D01*
X121482999Y-70990039D01*
X121482999Y-71061813D01*
X121511993Y-71207573D01*
X121511996Y-71207583D01*
X121568866Y-71344881D01*
X121568872Y-71344892D01*
X121651442Y-71468468D01*
X121651443Y-71468469D01*
X122309600Y-72126624D01*
X122309621Y-72126647D01*
X122419031Y-72236057D01*
X122515479Y-72300501D01*
X122542604Y-72318625D01*
X122542610Y-72318629D01*
X122679920Y-72375505D01*
X122737136Y-72386886D01*
X122787403Y-72396885D01*
X122849314Y-72429270D01*
X122883888Y-72489985D01*
X122880149Y-72559755D01*
X122839283Y-72616427D01*
X122821666Y-72627860D01*
X122645271Y-72722145D01*
X122645261Y-72722151D01*
X122342964Y-72924140D01*
X122342950Y-72924150D01*
X122061893Y-73154807D01*
X121804807Y-73411893D01*
X121574150Y-73692950D01*
X121574140Y-73692964D01*
X121372151Y-73995261D01*
X121372140Y-73995279D01*
X121200756Y-74315916D01*
X121200754Y-74315921D01*
X121061614Y-74651834D01*
X120956067Y-74999776D01*
X120956064Y-74999787D01*
X120885137Y-75356369D01*
X120863723Y-75573794D01*
X120849500Y-75718206D01*
X120849500Y-76081794D01*
X120855775Y-76145500D01*
X120885137Y-76443630D01*
X120956064Y-76800212D01*
X120956067Y-76800223D01*
X121061614Y-77148165D01*
X121200754Y-77484078D01*
X121200756Y-77484083D01*
X121372140Y-77804720D01*
X121372151Y-77804738D01*
X121574140Y-78107035D01*
X121574150Y-78107049D01*
X121804807Y-78388106D01*
X122061893Y-78645192D01*
X122061898Y-78645196D01*
X122061899Y-78645197D01*
X122342956Y-78875854D01*
X122645268Y-79077853D01*
X122645277Y-79077858D01*
X122645279Y-79077859D01*
X122965916Y-79249243D01*
X122965918Y-79249243D01*
X122965924Y-79249247D01*
X122993337Y-79260601D01*
X122994151Y-79260939D01*
X123048555Y-79304779D01*
X123070620Y-79371074D01*
X123053341Y-79438773D01*
X123002204Y-79486384D01*
X122946699Y-79499500D01*
X109224500Y-79499500D01*
X109157461Y-79479815D01*
X109111706Y-79427011D01*
X109100500Y-79375500D01*
X109100500Y-76799986D01*
X110475001Y-76799986D01*
X110485494Y-76902697D01*
X110540641Y-77069119D01*
X110540643Y-77069124D01*
X110632684Y-77218345D01*
X110756654Y-77342315D01*
X110905875Y-77434356D01*
X110905880Y-77434358D01*
X111072302Y-77489505D01*
X111072309Y-77489506D01*
X111175019Y-77499999D01*
X111974999Y-77499999D01*
X112475000Y-77499999D01*
X113274972Y-77499999D01*
X113274986Y-77499998D01*
X113377697Y-77489505D01*
X113544119Y-77434358D01*
X113544124Y-77434356D01*
X113693345Y-77342315D01*
X113817315Y-77218345D01*
X113909356Y-77069124D01*
X113909358Y-77069119D01*
X113964505Y-76902697D01*
X113964506Y-76902690D01*
X113974999Y-76799986D01*
X115975001Y-76799986D01*
X115985494Y-76902697D01*
X116040641Y-77069119D01*
X116040643Y-77069124D01*
X116132684Y-77218345D01*
X116256654Y-77342315D01*
X116405875Y-77434356D01*
X116405880Y-77434358D01*
X116572302Y-77489505D01*
X116572309Y-77489506D01*
X116675019Y-77499999D01*
X117474999Y-77499999D01*
X117975000Y-77499999D01*
X118774972Y-77499999D01*
X118774986Y-77499998D01*
X118877697Y-77489505D01*
X119044119Y-77434358D01*
X119044124Y-77434356D01*
X119193345Y-77342315D01*
X119317315Y-77218345D01*
X119409356Y-77069124D01*
X119409358Y-77069119D01*
X119464505Y-76902697D01*
X119464506Y-76902690D01*
X119474999Y-76799986D01*
X119475000Y-76799973D01*
X119475000Y-76250000D01*
X117975000Y-76250000D01*
X117975000Y-77499999D01*
X117474999Y-77499999D01*
X117475000Y-77499998D01*
X117475000Y-76250000D01*
X115975001Y-76250000D01*
X115975001Y-76799986D01*
X113974999Y-76799986D01*
X113975000Y-76799973D01*
X113975000Y-76250000D01*
X112475000Y-76250000D01*
X112475000Y-77499999D01*
X111974999Y-77499999D01*
X111975000Y-77499998D01*
X111975000Y-76250000D01*
X110475001Y-76250000D01*
X110475001Y-76799986D01*
X109100500Y-76799986D01*
X109100500Y-75200013D01*
X110475000Y-75200013D01*
X110475000Y-75750000D01*
X111975000Y-75750000D01*
X112475000Y-75750000D01*
X113974999Y-75750000D01*
X113974999Y-75200029D01*
X113974998Y-75200013D01*
X115975000Y-75200013D01*
X115975000Y-75750000D01*
X117475000Y-75750000D01*
X117975000Y-75750000D01*
X119474999Y-75750000D01*
X119474999Y-75200028D01*
X119474998Y-75200013D01*
X119464505Y-75097302D01*
X119409358Y-74930880D01*
X119409356Y-74930875D01*
X119317315Y-74781654D01*
X119193345Y-74657684D01*
X119044124Y-74565643D01*
X119044119Y-74565641D01*
X118877697Y-74510494D01*
X118877690Y-74510493D01*
X118774986Y-74500000D01*
X117975000Y-74500000D01*
X117975000Y-75750000D01*
X117475000Y-75750000D01*
X117475000Y-74500000D01*
X116675028Y-74500000D01*
X116675012Y-74500001D01*
X116572302Y-74510494D01*
X116405880Y-74565641D01*
X116405875Y-74565643D01*
X116256654Y-74657684D01*
X116132684Y-74781654D01*
X116040643Y-74930875D01*
X116040641Y-74930880D01*
X115985494Y-75097302D01*
X115985493Y-75097309D01*
X115975000Y-75200013D01*
X113974998Y-75200013D01*
X113974998Y-75200012D01*
X113964505Y-75097302D01*
X113909358Y-74930880D01*
X113909356Y-74930875D01*
X113817315Y-74781654D01*
X113693345Y-74657684D01*
X113544124Y-74565643D01*
X113544119Y-74565641D01*
X113377697Y-74510494D01*
X113377690Y-74510493D01*
X113274986Y-74500000D01*
X112475000Y-74500000D01*
X112475000Y-75750000D01*
X111975000Y-75750000D01*
X111975000Y-74500000D01*
X111175028Y-74500000D01*
X111175012Y-74500001D01*
X111072302Y-74510494D01*
X110905880Y-74565641D01*
X110905875Y-74565643D01*
X110756654Y-74657684D01*
X110632684Y-74781654D01*
X110540643Y-74930875D01*
X110540641Y-74930880D01*
X110485494Y-75097302D01*
X110485493Y-75097309D01*
X110475000Y-75200013D01*
X109100500Y-75200013D01*
X109100500Y-73868995D01*
X114424499Y-73868995D01*
X114451418Y-74004322D01*
X114451421Y-74004332D01*
X114504221Y-74131804D01*
X114504228Y-74131817D01*
X114580885Y-74246541D01*
X114580888Y-74246545D01*
X114678454Y-74344111D01*
X114678458Y-74344114D01*
X114793182Y-74420771D01*
X114793195Y-74420778D01*
X114920667Y-74473578D01*
X114920672Y-74473580D01*
X114920676Y-74473580D01*
X114920677Y-74473581D01*
X115056004Y-74500500D01*
X115056007Y-74500500D01*
X115193995Y-74500500D01*
X115285041Y-74482389D01*
X115329328Y-74473580D01*
X115456811Y-74420775D01*
X115571542Y-74344114D01*
X115669114Y-74246542D01*
X115745775Y-74131811D01*
X115752224Y-74116243D01*
X115798578Y-74004332D01*
X115798580Y-74004328D01*
X115825500Y-73868993D01*
X115825500Y-73731007D01*
X115825500Y-73731004D01*
X115821188Y-73709328D01*
X115827415Y-73639737D01*
X115870277Y-73584559D01*
X115936167Y-73561314D01*
X116004164Y-73577381D01*
X116049537Y-73622015D01*
X116102226Y-73711108D01*
X116102232Y-73711116D01*
X116213883Y-73822767D01*
X116213891Y-73822773D01*
X116349811Y-73903155D01*
X116349814Y-73903156D01*
X116501446Y-73947210D01*
X116501452Y-73947211D01*
X116536881Y-73949999D01*
X116536894Y-73950000D01*
X117475000Y-73950000D01*
X117975000Y-73950000D01*
X118913106Y-73950000D01*
X118913118Y-73949999D01*
X118948547Y-73947211D01*
X118948553Y-73947210D01*
X119100185Y-73903156D01*
X119100188Y-73903155D01*
X119236108Y-73822773D01*
X119236116Y-73822767D01*
X119347767Y-73711116D01*
X119347773Y-73711108D01*
X119428154Y-73575191D01*
X119428156Y-73575185D01*
X119464525Y-73450000D01*
X117975000Y-73450000D01*
X117975000Y-73950000D01*
X117475000Y-73950000D01*
X117475000Y-73450000D01*
X115985474Y-73450000D01*
X115956586Y-73488475D01*
X115900592Y-73530267D01*
X115830893Y-73535151D01*
X115769618Y-73501579D01*
X115748065Y-73472473D01*
X115745773Y-73468186D01*
X115669114Y-73353458D01*
X115669111Y-73353454D01*
X115571545Y-73255888D01*
X115571541Y-73255885D01*
X115456817Y-73179228D01*
X115456804Y-73179221D01*
X115329332Y-73126421D01*
X115329322Y-73126418D01*
X115193995Y-73099500D01*
X115193993Y-73099500D01*
X115056007Y-73099500D01*
X115056005Y-73099500D01*
X114920677Y-73126418D01*
X114920667Y-73126421D01*
X114793195Y-73179221D01*
X114793182Y-73179228D01*
X114678458Y-73255885D01*
X114678454Y-73255888D01*
X114580888Y-73353454D01*
X114580885Y-73353458D01*
X114504228Y-73468182D01*
X114504221Y-73468195D01*
X114451421Y-73595667D01*
X114451418Y-73595677D01*
X114424500Y-73731004D01*
X114424500Y-73731007D01*
X114424500Y-73868993D01*
X114424500Y-73868995D01*
X114424499Y-73868995D01*
X109100500Y-73868995D01*
X109100500Y-70716887D01*
X109120185Y-70649848D01*
X109172989Y-70604093D01*
X109242147Y-70594149D01*
X109305703Y-70623174D01*
G37*
%TD.AperFunction*%
%TA.AperFunction,Conductor*%
G36*
X128367603Y-76401802D02*
G01*
X128414032Y-76431058D01*
X129359600Y-77376624D01*
X129359621Y-77376647D01*
X129469028Y-77486054D01*
X129469035Y-77486060D01*
X129592608Y-77568628D01*
X129592609Y-77568628D01*
X129592610Y-77568629D01*
X129729920Y-77625505D01*
X129838843Y-77647171D01*
X129875683Y-77654499D01*
X129875687Y-77654500D01*
X129875688Y-77654500D01*
X130024312Y-77654500D01*
X140575500Y-77654500D01*
X140642539Y-77674185D01*
X140688294Y-77726989D01*
X140699500Y-77778500D01*
X140699500Y-78875001D01*
X140699501Y-78875018D01*
X140710000Y-78977796D01*
X140710001Y-78977799D01*
X140743156Y-79077853D01*
X140765186Y-79144334D01*
X140857288Y-79293656D01*
X140857290Y-79293658D01*
X140861188Y-79298587D01*
X140887329Y-79363382D01*
X140874290Y-79432025D01*
X140826211Y-79482721D01*
X140763923Y-79499500D01*
X126153301Y-79499500D01*
X126086262Y-79479815D01*
X126040507Y-79427011D01*
X126030563Y-79357853D01*
X126059588Y-79294297D01*
X126105849Y-79260939D01*
X126106353Y-79260729D01*
X126134076Y-79249247D01*
X126454732Y-79077853D01*
X126757044Y-78875854D01*
X127038101Y-78645197D01*
X127295197Y-78388101D01*
X127525854Y-78107044D01*
X127727853Y-77804732D01*
X127899247Y-77484076D01*
X128038386Y-77148164D01*
X128143930Y-76800233D01*
X128143932Y-76800223D01*
X128143935Y-76800212D01*
X128204734Y-76494548D01*
X128237118Y-76432637D01*
X128297834Y-76398063D01*
X128367603Y-76401802D01*
G37*
%TD.AperFunction*%
%TA.AperFunction,Conductor*%
G36*
X160942539Y-44620185D02*
G01*
X160988294Y-44672989D01*
X160999500Y-44724500D01*
X160999500Y-79375500D01*
X160979815Y-79442539D01*
X160927011Y-79488294D01*
X160875500Y-79499500D01*
X146036077Y-79499500D01*
X145969038Y-79479815D01*
X145923283Y-79427011D01*
X145913339Y-79357853D01*
X145938812Y-79298587D01*
X145942704Y-79293663D01*
X145942712Y-79293656D01*
X146034814Y-79144334D01*
X146089999Y-78977797D01*
X146100500Y-78875009D01*
X146100499Y-78174667D01*
X146100499Y-77524998D01*
X146100498Y-77524981D01*
X146089999Y-77422203D01*
X146089998Y-77422200D01*
X146074903Y-77376647D01*
X146034814Y-77255666D01*
X145942712Y-77106344D01*
X145818656Y-76982288D01*
X145689618Y-76902697D01*
X145669336Y-76890187D01*
X145669331Y-76890185D01*
X145667862Y-76889698D01*
X145502797Y-76835001D01*
X145502795Y-76835000D01*
X145400010Y-76824500D01*
X144499998Y-76824500D01*
X144499980Y-76824501D01*
X144397203Y-76835000D01*
X144397200Y-76835001D01*
X144230668Y-76890185D01*
X144230663Y-76890187D01*
X144081342Y-76982289D01*
X143957289Y-77106342D01*
X143865187Y-77255663D01*
X143865183Y-77255672D01*
X143863467Y-77260852D01*
X143823690Y-77318294D01*
X143759172Y-77345112D01*
X143698314Y-77336400D01*
X143683497Y-77330263D01*
X143683492Y-77330262D01*
X143683490Y-77330261D01*
X143683488Y-77330260D01*
X143528845Y-77299500D01*
X143528842Y-77299500D01*
X143371158Y-77299500D01*
X143371155Y-77299500D01*
X143216510Y-77330261D01*
X143216498Y-77330264D01*
X143113756Y-77372821D01*
X143044286Y-77380290D01*
X142981807Y-77349014D01*
X142948598Y-77297264D01*
X142936532Y-77260852D01*
X142934814Y-77255666D01*
X142842712Y-77106344D01*
X142789376Y-77053008D01*
X142785037Y-77045062D01*
X142777790Y-77039637D01*
X142768555Y-77014877D01*
X142755891Y-76991685D01*
X142756536Y-76982655D01*
X142753373Y-76974173D01*
X142758989Y-76948352D01*
X142760875Y-76921993D01*
X142766693Y-76912939D01*
X142768225Y-76905900D01*
X142789373Y-76877649D01*
X142880963Y-76786060D01*
X142880966Y-76786059D01*
X142986059Y-76680966D01*
X143025102Y-76622533D01*
X148427500Y-76622533D01*
X148427500Y-76917466D01*
X148427501Y-76917483D01*
X148465996Y-77209884D01*
X148465999Y-77209897D01*
X148542335Y-77494790D01*
X148542338Y-77494800D01*
X148655204Y-77767281D01*
X148655209Y-77767292D01*
X148802674Y-78022707D01*
X148802680Y-78022715D01*
X148919277Y-78174667D01*
X149705412Y-77388531D01*
X149800329Y-77519175D01*
X149928325Y-77647171D01*
X150058966Y-77742086D01*
X149272831Y-78528221D01*
X149424784Y-78644819D01*
X149424792Y-78644825D01*
X149680207Y-78792290D01*
X149680218Y-78792295D01*
X149952699Y-78905161D01*
X149952709Y-78905164D01*
X150237602Y-78981500D01*
X150237615Y-78981503D01*
X150530016Y-79019998D01*
X150530034Y-79020000D01*
X150824966Y-79020000D01*
X150824983Y-79019998D01*
X151117384Y-78981503D01*
X151117397Y-78981500D01*
X151402290Y-78905164D01*
X151402300Y-78905161D01*
X151674781Y-78792295D01*
X151674792Y-78792290D01*
X151930207Y-78644825D01*
X151930225Y-78644813D01*
X152082167Y-78528222D01*
X152082167Y-78528220D01*
X151296033Y-77742086D01*
X151426675Y-77647171D01*
X151554671Y-77519175D01*
X151649586Y-77388533D01*
X152435720Y-78174667D01*
X152435722Y-78174667D01*
X152552313Y-78022725D01*
X152552325Y-78022707D01*
X152699790Y-77767292D01*
X152699795Y-77767281D01*
X152812661Y-77494800D01*
X152812664Y-77494790D01*
X152889000Y-77209897D01*
X152889003Y-77209884D01*
X152927498Y-76917483D01*
X152927500Y-76917466D01*
X152927500Y-76622533D01*
X152927498Y-76622516D01*
X152889003Y-76330115D01*
X152889000Y-76330102D01*
X152812664Y-76045209D01*
X152812661Y-76045199D01*
X152699795Y-75772718D01*
X152699790Y-75772707D01*
X152552325Y-75517292D01*
X152552319Y-75517284D01*
X152435721Y-75365331D01*
X151649586Y-76151466D01*
X151554671Y-76020825D01*
X151426675Y-75892829D01*
X151296032Y-75797912D01*
X152082167Y-75011777D01*
X151930215Y-74895180D01*
X151930207Y-74895174D01*
X151674792Y-74747709D01*
X151674781Y-74747704D01*
X151402300Y-74634838D01*
X151402290Y-74634835D01*
X151117397Y-74558499D01*
X151117384Y-74558496D01*
X150824983Y-74520001D01*
X150824966Y-74520000D01*
X150530034Y-74520000D01*
X150530016Y-74520001D01*
X150237615Y-74558496D01*
X150237602Y-74558499D01*
X149977816Y-74628106D01*
X149896247Y-74656651D01*
X149894366Y-74658467D01*
X149884350Y-74663149D01*
X149680219Y-74747703D01*
X149680207Y-74747709D01*
X149424792Y-74895174D01*
X149424776Y-74895185D01*
X149272831Y-75011775D01*
X149272831Y-75011777D01*
X150058966Y-75797912D01*
X149928325Y-75892829D01*
X149800329Y-76020825D01*
X149705412Y-76151466D01*
X148919277Y-75365331D01*
X148919275Y-75365331D01*
X148802685Y-75517276D01*
X148802674Y-75517292D01*
X148655209Y-75772707D01*
X148655204Y-75772718D01*
X148542338Y-76045199D01*
X148542335Y-76045209D01*
X148465999Y-76330102D01*
X148465996Y-76330115D01*
X148427501Y-76622516D01*
X148427500Y-76622533D01*
X143025102Y-76622533D01*
X143068629Y-76557390D01*
X143125505Y-76420080D01*
X143154500Y-76274312D01*
X143154500Y-72086817D01*
X143154501Y-72086812D01*
X143154501Y-72064520D01*
X143167939Y-72018759D01*
X143174186Y-71997485D01*
X143174187Y-71997484D01*
X143174188Y-71997481D01*
X143211207Y-71965406D01*
X143226990Y-71951730D01*
X143226994Y-71951728D01*
X143259840Y-71947006D01*
X143296148Y-71941786D01*
X143296150Y-71941787D01*
X143296152Y-71941787D01*
X143317539Y-71951555D01*
X143359704Y-71970811D01*
X143366182Y-71976843D01*
X143381654Y-71992315D01*
X143530875Y-72084356D01*
X143530880Y-72084358D01*
X143697302Y-72139505D01*
X143697309Y-72139506D01*
X143800019Y-72149999D01*
X144012499Y-72149999D01*
X144012500Y-72149998D01*
X144012500Y-71000000D01*
X143100001Y-71000000D01*
X143100001Y-71346113D01*
X143093763Y-71367355D01*
X143092186Y-71389437D01*
X143084111Y-71400224D01*
X143080316Y-71413152D01*
X143063587Y-71427647D01*
X143050320Y-71445374D01*
X143037693Y-71450084D01*
X143027512Y-71458907D01*
X143005600Y-71462057D01*
X142984858Y-71469796D01*
X142971692Y-71466933D01*
X142958354Y-71468851D01*
X142938214Y-71459653D01*
X142916583Y-71454950D01*
X142898851Y-71441677D01*
X142894798Y-71439826D01*
X142888327Y-71433802D01*
X142880966Y-71426441D01*
X142880963Y-71426439D01*
X142876630Y-71422106D01*
X142876629Y-71422104D01*
X142876624Y-71422100D01*
X142336818Y-70882294D01*
X142303333Y-70820971D01*
X142300499Y-70794613D01*
X142300499Y-70050013D01*
X143100000Y-70050013D01*
X143100000Y-70500000D01*
X144012500Y-70500000D01*
X144012500Y-69350000D01*
X143800029Y-69350000D01*
X143800012Y-69350001D01*
X143697302Y-69360494D01*
X143530880Y-69415641D01*
X143530875Y-69415643D01*
X143381654Y-69507684D01*
X143257684Y-69631654D01*
X143165643Y-69780875D01*
X143165641Y-69780880D01*
X143110494Y-69947302D01*
X143110493Y-69947309D01*
X143100000Y-70050013D01*
X142300499Y-70050013D01*
X142300499Y-70049998D01*
X142300498Y-70049981D01*
X142289999Y-69947203D01*
X142289998Y-69947200D01*
X142280064Y-69917221D01*
X142234814Y-69780666D01*
X142142712Y-69631344D01*
X142051877Y-69540509D01*
X142018392Y-69479186D01*
X142023376Y-69409494D01*
X142051874Y-69365149D01*
X142248559Y-69168466D01*
X142331129Y-69044890D01*
X142343948Y-69013942D01*
X142388005Y-68907580D01*
X142398442Y-68855110D01*
X142417001Y-68761812D01*
X142417001Y-68724499D01*
X142418258Y-68715740D01*
X142429236Y-68691681D01*
X142436686Y-68666313D01*
X142444053Y-68659214D01*
X142447265Y-68652176D01*
X142459569Y-68644263D01*
X142477879Y-68626620D01*
X142576865Y-68568081D01*
X142693081Y-68451865D01*
X142693267Y-68451549D01*
X142693477Y-68451353D01*
X142697861Y-68445702D01*
X142698772Y-68446409D01*
X142744336Y-68403866D01*
X142813077Y-68391362D01*
X142877667Y-68418006D01*
X142901855Y-68445921D01*
X142902139Y-68445702D01*
X142906179Y-68450911D01*
X142906732Y-68451548D01*
X142906919Y-68451865D01*
X142906921Y-68451867D01*
X142906923Y-68451870D01*
X143023129Y-68568076D01*
X143023133Y-68568079D01*
X143023135Y-68568081D01*
X143164602Y-68651744D01*
X143205620Y-68663661D01*
X143322426Y-68697597D01*
X143322429Y-68697597D01*
X143322431Y-68697598D01*
X143359306Y-68700500D01*
X143359314Y-68700500D01*
X144515686Y-68700500D01*
X144515694Y-68700500D01*
X144552569Y-68697598D01*
X144552571Y-68697597D01*
X144552573Y-68697597D01*
X144683964Y-68659424D01*
X144718559Y-68654500D01*
X144971500Y-68654500D01*
X145038539Y-68674185D01*
X145084294Y-68726989D01*
X145095500Y-68778500D01*
X145095500Y-69277515D01*
X145075815Y-69344554D01*
X145023011Y-69390309D01*
X144953853Y-69400253D01*
X144932497Y-69395221D01*
X144827700Y-69360495D01*
X144827690Y-69360493D01*
X144724986Y-69350000D01*
X144512500Y-69350000D01*
X144512500Y-72149999D01*
X144724972Y-72149999D01*
X144724986Y-72149998D01*
X144827697Y-72139505D01*
X144994119Y-72084358D01*
X144994130Y-72084353D01*
X145093309Y-72023179D01*
X145160701Y-72004738D01*
X145227365Y-72025660D01*
X145261505Y-72059822D01*
X145263937Y-72063461D01*
X145263943Y-72063469D01*
X146668681Y-73468205D01*
X146702166Y-73529528D01*
X146705000Y-73555886D01*
X146705000Y-74262001D01*
X146705001Y-74262019D01*
X146715500Y-74364796D01*
X146715501Y-74364799D01*
X146770685Y-74531331D01*
X146770687Y-74531336D01*
X146787441Y-74558499D01*
X146862788Y-74680656D01*
X146986844Y-74804712D01*
X147136166Y-74896814D01*
X147302703Y-74951999D01*
X147405491Y-74962500D01*
X148529508Y-74962499D01*
X148632297Y-74951999D01*
X148798834Y-74896814D01*
X148948156Y-74804712D01*
X149072212Y-74680656D01*
X149164314Y-74531334D01*
X149164316Y-74531327D01*
X149166757Y-74526095D01*
X149178219Y-74513076D01*
X149185426Y-74497297D01*
X149200829Y-74487397D01*
X149212929Y-74473656D01*
X149229814Y-74468770D01*
X149244204Y-74459523D01*
X149279139Y-74454500D01*
X149519554Y-74454500D01*
X149519574Y-74454501D01*
X149525688Y-74454501D01*
X149674314Y-74454501D01*
X149708455Y-74447709D01*
X149795894Y-74430315D01*
X149820080Y-74425505D01*
X149880447Y-74400500D01*
X149957389Y-74368630D01*
X150080966Y-74286059D01*
X153580963Y-70786060D01*
X153580966Y-70786059D01*
X153686059Y-70680966D01*
X153768629Y-70557390D01*
X153825505Y-70420080D01*
X153854500Y-70274312D01*
X153854500Y-65563885D01*
X153874185Y-65496846D01*
X153890814Y-65476209D01*
X155680963Y-63686060D01*
X155680966Y-63686059D01*
X155786059Y-63580966D01*
X155868629Y-63457390D01*
X155925505Y-63320080D01*
X155954500Y-63174312D01*
X155954500Y-58525688D01*
X155925505Y-58379920D01*
X155868629Y-58242610D01*
X155861061Y-58231284D01*
X155786060Y-58119035D01*
X155786054Y-58119028D01*
X155676647Y-58009621D01*
X155676624Y-58009600D01*
X154980969Y-57313943D01*
X154980968Y-57313942D01*
X154939773Y-57286417D01*
X154857389Y-57231370D01*
X154857386Y-57231368D01*
X154857385Y-57231368D01*
X154776955Y-57198053D01*
X154720080Y-57174495D01*
X154695894Y-57169684D01*
X154574314Y-57145499D01*
X154574312Y-57145499D01*
X154425688Y-57145499D01*
X154419574Y-57145499D01*
X154419554Y-57145500D01*
X151850154Y-57145500D01*
X151783115Y-57125815D01*
X151737360Y-57073011D01*
X151727416Y-57003853D01*
X151756441Y-56940297D01*
X151762473Y-56933819D01*
X151856587Y-56839704D01*
X151856592Y-56839699D01*
X152000273Y-56652450D01*
X152107632Y-56466499D01*
X152158199Y-56418284D01*
X152215019Y-56404500D01*
X154369554Y-56404500D01*
X154369574Y-56404501D01*
X154375688Y-56404501D01*
X154524313Y-56404501D01*
X154552849Y-56398824D01*
X154652223Y-56379057D01*
X154670080Y-56375505D01*
X154726955Y-56351946D01*
X154807389Y-56318630D01*
X154930966Y-56236059D01*
X156286059Y-54880966D01*
X156368630Y-54757389D01*
X156425505Y-54620079D01*
X156454501Y-54474312D01*
X156454501Y-54325688D01*
X156454501Y-54320578D01*
X156454500Y-54320552D01*
X156454500Y-48825687D01*
X156454499Y-48825683D01*
X156425505Y-48679920D01*
X156368629Y-48542610D01*
X156286059Y-48419034D01*
X156286054Y-48419028D01*
X156176647Y-48309621D01*
X156176624Y-48309600D01*
X153580969Y-45713943D01*
X153580968Y-45713942D01*
X153539773Y-45686417D01*
X153457389Y-45631370D01*
X153457386Y-45631368D01*
X153457385Y-45631368D01*
X153376955Y-45598053D01*
X153320080Y-45574495D01*
X153320070Y-45574493D01*
X153295894Y-45569684D01*
X153174314Y-45545499D01*
X153174312Y-45545499D01*
X153025688Y-45545499D01*
X153019574Y-45545499D01*
X153019554Y-45545500D01*
X123037683Y-45545500D01*
X122891927Y-45574493D01*
X122891919Y-45574495D01*
X122754608Y-45631371D01*
X122631035Y-45713939D01*
X122631034Y-45713940D01*
X122578488Y-45766487D01*
X122525941Y-45819034D01*
X122525939Y-45819036D01*
X120741187Y-47603786D01*
X120679864Y-47637271D01*
X120621414Y-47635880D01*
X120414014Y-47580307D01*
X120414013Y-47580306D01*
X120414010Y-47580306D01*
X120180020Y-47549501D01*
X120180017Y-47549500D01*
X120180011Y-47549500D01*
X119943989Y-47549500D01*
X119943983Y-47549500D01*
X119943979Y-47549501D01*
X119709989Y-47580306D01*
X119482006Y-47641394D01*
X119263954Y-47731714D01*
X119263943Y-47731719D01*
X119059545Y-47849730D01*
X118872302Y-47993406D01*
X118872295Y-47993412D01*
X118705412Y-48160295D01*
X118705406Y-48160302D01*
X118561730Y-48347545D01*
X118443719Y-48551943D01*
X118443714Y-48551954D01*
X118353394Y-48770006D01*
X118292306Y-48997989D01*
X118261501Y-49231979D01*
X118261500Y-49231995D01*
X118261500Y-49468004D01*
X118261501Y-49468020D01*
X118292306Y-49702010D01*
X118353394Y-49929993D01*
X118403515Y-50050994D01*
X118410984Y-50120463D01*
X118379709Y-50182943D01*
X118376635Y-50186128D01*
X115431286Y-53131478D01*
X115319481Y-53243282D01*
X115319479Y-53243285D01*
X115294420Y-53286689D01*
X115287995Y-53297819D01*
X115269361Y-53330094D01*
X115269359Y-53330096D01*
X115240425Y-53380209D01*
X115240424Y-53380210D01*
X115240423Y-53380215D01*
X115199499Y-53532943D01*
X115199499Y-53532945D01*
X115199499Y-53701046D01*
X115199500Y-53701059D01*
X115199500Y-56213330D01*
X115199499Y-56213348D01*
X115199499Y-56379054D01*
X115199498Y-56379054D01*
X115240423Y-56531785D01*
X115269358Y-56581900D01*
X115269359Y-56581904D01*
X115269360Y-56581904D01*
X115319479Y-56668714D01*
X115319481Y-56668717D01*
X115438349Y-56787585D01*
X115438355Y-56787590D01*
X117615139Y-58964374D01*
X117615149Y-58964385D01*
X117619479Y-58968715D01*
X117619480Y-58968716D01*
X117731284Y-59080520D01*
X117811077Y-59126587D01*
X117818095Y-59130639D01*
X117818097Y-59130641D01*
X117868213Y-59159576D01*
X117868215Y-59159577D01*
X118020942Y-59200500D01*
X118020943Y-59200500D01*
X124799903Y-59200500D01*
X124866942Y-59220185D01*
X124887584Y-59236819D01*
X130015139Y-64364374D01*
X130015149Y-64364385D01*
X130019479Y-64368715D01*
X130019480Y-64368716D01*
X130131284Y-64480520D01*
X130131286Y-64480521D01*
X130131290Y-64480524D01*
X130217214Y-64530132D01*
X130217215Y-64530132D01*
X130268215Y-64559577D01*
X130420942Y-64600500D01*
X130420943Y-64600500D01*
X130604617Y-64600500D01*
X130671656Y-64620185D01*
X130717411Y-64672989D01*
X130728020Y-64712347D01*
X130728500Y-64717224D01*
X130754726Y-64849070D01*
X130754728Y-64849078D01*
X130787231Y-64927547D01*
X130794700Y-64997017D01*
X130787231Y-65022453D01*
X130754728Y-65100921D01*
X130754726Y-65100929D01*
X130728500Y-65232775D01*
X130728500Y-65367224D01*
X130754726Y-65499070D01*
X130754728Y-65499078D01*
X130787231Y-65577547D01*
X130794700Y-65647017D01*
X130787231Y-65672453D01*
X130754728Y-65750921D01*
X130754726Y-65750929D01*
X130728500Y-65882775D01*
X130728500Y-66017224D01*
X130754726Y-66149070D01*
X130754728Y-66149078D01*
X130787231Y-66227547D01*
X130794700Y-66297017D01*
X130787231Y-66322453D01*
X130754728Y-66400921D01*
X130754726Y-66400929D01*
X130728500Y-66532775D01*
X130728500Y-66667224D01*
X130754726Y-66799070D01*
X130754728Y-66799078D01*
X130787231Y-66877547D01*
X130794700Y-66947017D01*
X130787231Y-66972453D01*
X130754728Y-67050921D01*
X130754726Y-67050929D01*
X130728500Y-67182775D01*
X130728500Y-67317224D01*
X130754726Y-67449070D01*
X130754728Y-67449078D01*
X130787502Y-67528200D01*
X130794971Y-67597668D01*
X130787503Y-67623104D01*
X130755207Y-67701075D01*
X130755206Y-67701075D01*
X130751840Y-67717999D01*
X130751841Y-67718000D01*
X130862437Y-67718000D01*
X130886644Y-67725108D01*
X130911690Y-67728201D01*
X130922729Y-67735703D01*
X130929476Y-67737685D01*
X130941756Y-67746687D01*
X130946112Y-67750312D01*
X130975932Y-67780132D01*
X131006439Y-67800516D01*
X131011451Y-67804687D01*
X131027435Y-67828501D01*
X131045828Y-67850511D01*
X131046661Y-67857147D01*
X131050389Y-67862701D01*
X131050960Y-67891378D01*
X131054535Y-67919836D01*
X131051648Y-67925868D01*
X131051782Y-67932557D01*
X131036757Y-67956991D01*
X131024380Y-67982863D01*
X131016825Y-67989409D01*
X131015186Y-67992076D01*
X131011954Y-67993630D01*
X131001024Y-68003102D01*
X130975928Y-68019870D01*
X130950118Y-68045681D01*
X130888795Y-68079166D01*
X130862437Y-68082000D01*
X130751840Y-68082000D01*
X130755206Y-68098924D01*
X130755208Y-68098928D01*
X130787502Y-68176896D01*
X130794969Y-68246365D01*
X130787501Y-68271799D01*
X130754729Y-68350917D01*
X130754726Y-68350929D01*
X130728500Y-68482775D01*
X130728020Y-68487653D01*
X130701860Y-68552440D01*
X130644826Y-68592800D01*
X130604617Y-68599500D01*
X130420941Y-68599500D01*
X130391496Y-68607389D01*
X130391497Y-68607390D01*
X130268214Y-68640423D01*
X130268209Y-68640426D01*
X130131290Y-68719475D01*
X130131282Y-68719481D01*
X130019478Y-68831286D01*
X129822838Y-69027925D01*
X129806240Y-69036987D01*
X129792632Y-69050119D01*
X129763137Y-69060524D01*
X129761515Y-69061410D01*
X129759348Y-69061861D01*
X129606051Y-69092354D01*
X129536460Y-69086127D01*
X129481282Y-69043264D01*
X129476328Y-69035844D01*
X129442712Y-68981344D01*
X129318656Y-68857288D01*
X129192095Y-68779225D01*
X129169336Y-68765187D01*
X129169331Y-68765185D01*
X129120699Y-68749070D01*
X129002797Y-68710001D01*
X129002795Y-68710000D01*
X128900010Y-68699500D01*
X127499998Y-68699500D01*
X127499981Y-68699501D01*
X127397203Y-68710000D01*
X127397200Y-68710001D01*
X127230668Y-68765185D01*
X127230663Y-68765187D01*
X127081342Y-68857289D01*
X126957289Y-68981342D01*
X126865187Y-69130663D01*
X126865185Y-69130668D01*
X126846579Y-69186819D01*
X126810001Y-69297203D01*
X126810001Y-69297204D01*
X126810000Y-69297204D01*
X126799500Y-69399983D01*
X126799500Y-70325001D01*
X126799501Y-70325019D01*
X126810000Y-70427796D01*
X126810001Y-70427799D01*
X126865185Y-70594331D01*
X126865187Y-70594336D01*
X126871205Y-70604093D01*
X126934311Y-70706405D01*
X126952751Y-70773796D01*
X126931828Y-70840459D01*
X126878186Y-70885229D01*
X126828772Y-70895500D01*
X126480221Y-70895500D01*
X126413182Y-70875815D01*
X126367427Y-70823011D01*
X126357483Y-70753853D01*
X126374682Y-70706403D01*
X126459356Y-70569124D01*
X126459358Y-70569119D01*
X126514505Y-70402697D01*
X126514506Y-70402690D01*
X126524999Y-70299986D01*
X126525000Y-70299973D01*
X126525000Y-69850000D01*
X124200001Y-69850000D01*
X124200001Y-70299986D01*
X124210494Y-70402697D01*
X124265641Y-70569119D01*
X124265643Y-70569124D01*
X124350318Y-70706403D01*
X124368758Y-70773796D01*
X124347835Y-70840459D01*
X124294193Y-70885229D01*
X124244779Y-70895500D01*
X123355808Y-70895500D01*
X123288769Y-70875815D01*
X123243014Y-70823011D01*
X123233070Y-70753853D01*
X123250268Y-70706405D01*
X123334814Y-70569334D01*
X123389999Y-70402797D01*
X123400500Y-70300009D01*
X123400499Y-68900013D01*
X124200000Y-68900013D01*
X124200000Y-69350000D01*
X125112500Y-69350000D01*
X125612500Y-69350000D01*
X126524999Y-69350000D01*
X126524999Y-68900028D01*
X126524998Y-68900013D01*
X126514505Y-68797302D01*
X126459358Y-68630880D01*
X126459356Y-68630875D01*
X126367315Y-68481654D01*
X126243345Y-68357684D01*
X126094124Y-68265643D01*
X126094119Y-68265641D01*
X125927697Y-68210494D01*
X125927690Y-68210493D01*
X125824986Y-68200000D01*
X125612500Y-68200000D01*
X125612500Y-69350000D01*
X125112500Y-69350000D01*
X125112500Y-68200000D01*
X124900029Y-68200000D01*
X124900012Y-68200001D01*
X124797302Y-68210494D01*
X124630880Y-68265641D01*
X124630875Y-68265643D01*
X124481654Y-68357684D01*
X124357684Y-68481654D01*
X124265643Y-68630875D01*
X124265641Y-68630880D01*
X124210494Y-68797302D01*
X124210493Y-68797309D01*
X124200000Y-68900013D01*
X123400499Y-68900013D01*
X123400499Y-68899992D01*
X123389999Y-68797203D01*
X123334814Y-68630666D01*
X123242712Y-68481344D01*
X123118656Y-68357288D01*
X123118655Y-68357287D01*
X123050902Y-68315496D01*
X123044078Y-68307909D01*
X123034797Y-68303671D01*
X123021109Y-68282372D01*
X123004178Y-68263548D01*
X123001533Y-68251911D01*
X122997023Y-68244893D01*
X122992000Y-68209958D01*
X122992000Y-67999499D01*
X123011685Y-67932460D01*
X123064489Y-67886705D01*
X123116000Y-67875499D01*
X123121097Y-67875499D01*
X123187882Y-67869431D01*
X123187885Y-67869430D01*
X123187887Y-67869430D01*
X123341602Y-67821531D01*
X123479388Y-67738236D01*
X123593236Y-67624388D01*
X123676531Y-67486602D01*
X123681613Y-67470290D01*
X123720347Y-67412143D01*
X123784371Y-67384167D01*
X123853357Y-67395245D01*
X123905402Y-67441862D01*
X123918383Y-67470284D01*
X123923467Y-67486598D01*
X123923468Y-67486600D01*
X123923469Y-67486602D01*
X123975290Y-67572324D01*
X124006766Y-67624391D01*
X124120608Y-67738233D01*
X124120610Y-67738234D01*
X124120612Y-67738236D01*
X124258398Y-67821531D01*
X124412113Y-67869430D01*
X124478909Y-67875500D01*
X125821090Y-67875499D01*
X125821097Y-67875499D01*
X125887882Y-67869431D01*
X125887885Y-67869430D01*
X125887887Y-67869430D01*
X126041602Y-67821531D01*
X126179388Y-67738236D01*
X126293236Y-67624388D01*
X126376531Y-67486602D01*
X126424430Y-67332887D01*
X126430500Y-67266091D01*
X126430500Y-67199986D01*
X126800001Y-67199986D01*
X126810494Y-67302697D01*
X126865641Y-67469119D01*
X126865643Y-67469124D01*
X126957684Y-67618345D01*
X127081654Y-67742315D01*
X127230875Y-67834356D01*
X127230880Y-67834358D01*
X127397302Y-67889505D01*
X127397309Y-67889506D01*
X127500019Y-67899999D01*
X127949999Y-67899999D01*
X128450000Y-67899999D01*
X128899972Y-67899999D01*
X128899986Y-67899998D01*
X129002697Y-67889505D01*
X129169119Y-67834358D01*
X129169124Y-67834356D01*
X129318345Y-67742315D01*
X129442315Y-67618345D01*
X129534356Y-67469124D01*
X129534358Y-67469119D01*
X129589505Y-67302697D01*
X129589506Y-67302690D01*
X129599999Y-67199986D01*
X129600000Y-67199973D01*
X129600000Y-66987500D01*
X128450000Y-66987500D01*
X128450000Y-67899999D01*
X127949999Y-67899999D01*
X127950000Y-67899998D01*
X127950000Y-66987500D01*
X126800001Y-66987500D01*
X126800001Y-67199986D01*
X126430500Y-67199986D01*
X126430499Y-66833910D01*
X126430499Y-66833909D01*
X126430499Y-66833901D01*
X126424431Y-66767117D01*
X126424428Y-66767106D01*
X126376532Y-66613401D01*
X126376531Y-66613400D01*
X126376531Y-66613398D01*
X126293236Y-66475612D01*
X126293234Y-66475610D01*
X126293233Y-66475608D01*
X126179391Y-66361766D01*
X126073845Y-66297961D01*
X126041602Y-66278469D01*
X125887887Y-66230570D01*
X125887885Y-66230569D01*
X125887883Y-66230569D01*
X125841117Y-66226319D01*
X125821091Y-66224500D01*
X125821088Y-66224500D01*
X124478901Y-66224500D01*
X124412117Y-66230568D01*
X124412106Y-66230571D01*
X124258401Y-66278467D01*
X124120608Y-66361766D01*
X124006766Y-66475608D01*
X123956006Y-66559576D01*
X123927260Y-66607128D01*
X123923468Y-66613400D01*
X123918385Y-66629712D01*
X123900102Y-66657154D01*
X123882737Y-66685182D01*
X123880823Y-66686094D01*
X123879647Y-66687860D01*
X123849429Y-66701061D01*
X123819669Y-66715251D01*
X123817564Y-66714983D01*
X123815621Y-66715833D01*
X123783068Y-66710603D01*
X123750356Y-66706450D01*
X123748730Y-66705087D01*
X123746636Y-66704751D01*
X123722074Y-66682748D01*
X123696805Y-66661572D01*
X123695590Y-66659024D01*
X123694594Y-66658132D01*
X123681615Y-66629714D01*
X123676531Y-66613398D01*
X123676529Y-66613395D01*
X123675799Y-66611051D01*
X123674647Y-66541190D01*
X123675799Y-66537267D01*
X123723933Y-66382799D01*
X123723935Y-66382792D01*
X123726914Y-66350000D01*
X123494496Y-66350000D01*
X123430346Y-66332117D01*
X123373845Y-66297961D01*
X123341602Y-66278469D01*
X123187887Y-66230570D01*
X123187885Y-66230569D01*
X123187883Y-66230569D01*
X123141117Y-66226319D01*
X123121091Y-66224500D01*
X123121088Y-66224500D01*
X121778901Y-66224500D01*
X121712117Y-66230568D01*
X121712106Y-66230571D01*
X121558401Y-66278467D01*
X121469654Y-66332117D01*
X121437466Y-66340615D01*
X121405525Y-66350000D01*
X121173085Y-66350000D01*
X121176064Y-66382792D01*
X121176067Y-66382802D01*
X121224200Y-66537268D01*
X121225352Y-66607128D01*
X121224201Y-66611047D01*
X121206697Y-66667221D01*
X121190333Y-66719738D01*
X121175570Y-66767114D01*
X121169500Y-66833911D01*
X121169500Y-67266098D01*
X121175568Y-67332882D01*
X121175571Y-67332893D01*
X121223467Y-67486598D01*
X121223468Y-67486600D01*
X121223469Y-67486602D01*
X121275290Y-67572324D01*
X121306766Y-67624391D01*
X121420605Y-67738230D01*
X121420607Y-67738231D01*
X121420612Y-67738236D01*
X121423147Y-67739768D01*
X121424617Y-67741373D01*
X121426512Y-67742858D01*
X121426265Y-67743173D01*
X121470334Y-67791291D01*
X121483000Y-67845886D01*
X121483000Y-68209958D01*
X121463315Y-68276997D01*
X121424098Y-68315496D01*
X121356344Y-68357287D01*
X121232289Y-68481342D01*
X121140187Y-68630663D01*
X121140185Y-68630668D01*
X121125765Y-68674185D01*
X121085001Y-68797203D01*
X121085001Y-68797204D01*
X121085000Y-68797204D01*
X121074500Y-68899983D01*
X121074500Y-69121500D01*
X121054815Y-69188539D01*
X121002011Y-69234294D01*
X120950500Y-69245500D01*
X117799312Y-69245500D01*
X116075688Y-69245500D01*
X116041050Y-69252389D01*
X115938549Y-69272778D01*
X115868958Y-69266550D01*
X115813781Y-69223686D01*
X115799798Y-69198612D01*
X115745778Y-69068195D01*
X115745771Y-69068182D01*
X115669114Y-68953458D01*
X115669111Y-68953454D01*
X115571545Y-68855888D01*
X115571541Y-68855885D01*
X115456817Y-68779228D01*
X115456804Y-68779221D01*
X115329332Y-68726421D01*
X115329322Y-68726418D01*
X115193995Y-68699500D01*
X115193993Y-68699500D01*
X115056007Y-68699500D01*
X115056005Y-68699500D01*
X114920677Y-68726418D01*
X114920667Y-68726421D01*
X114793195Y-68779221D01*
X114793182Y-68779228D01*
X114678458Y-68855885D01*
X114678454Y-68855888D01*
X114580888Y-68953454D01*
X114580885Y-68953458D01*
X114504228Y-69068182D01*
X114504221Y-69068195D01*
X114451421Y-69195667D01*
X114451418Y-69195677D01*
X114424500Y-69331004D01*
X114424500Y-69331007D01*
X114424500Y-69468993D01*
X114424500Y-69468995D01*
X114424499Y-69468995D01*
X114451418Y-69604322D01*
X114451421Y-69604332D01*
X114504221Y-69731804D01*
X114504228Y-69731817D01*
X114551530Y-69802609D01*
X114572408Y-69869287D01*
X114553923Y-69936667D01*
X114501944Y-69983357D01*
X114448428Y-69995500D01*
X110863886Y-69995500D01*
X110834445Y-69986855D01*
X110804459Y-69980332D01*
X110799443Y-69976577D01*
X110796847Y-69975815D01*
X110776210Y-69959185D01*
X110640817Y-69823792D01*
X110607334Y-69762471D01*
X110604500Y-69736113D01*
X110604500Y-68670640D01*
X110624185Y-68603601D01*
X110676989Y-68557846D01*
X110746147Y-68547902D01*
X110793597Y-68565102D01*
X110905869Y-68634353D01*
X110905880Y-68634358D01*
X111072302Y-68689505D01*
X111072309Y-68689506D01*
X111175019Y-68699999D01*
X111974999Y-68699999D01*
X112475000Y-68699999D01*
X113274972Y-68699999D01*
X113274986Y-68699998D01*
X113377697Y-68689505D01*
X113544119Y-68634358D01*
X113544124Y-68634356D01*
X113693345Y-68542315D01*
X113817315Y-68418345D01*
X113909356Y-68269124D01*
X113909358Y-68269119D01*
X113964505Y-68102697D01*
X113964506Y-68102690D01*
X113974999Y-67999986D01*
X115975001Y-67999986D01*
X115985494Y-68102697D01*
X116040641Y-68269119D01*
X116040643Y-68269124D01*
X116132684Y-68418345D01*
X116256654Y-68542315D01*
X116405875Y-68634356D01*
X116405880Y-68634358D01*
X116572302Y-68689505D01*
X116572309Y-68689506D01*
X116675019Y-68699999D01*
X117474999Y-68699999D01*
X117975000Y-68699999D01*
X118774972Y-68699999D01*
X118774986Y-68699998D01*
X118877697Y-68689505D01*
X119044119Y-68634358D01*
X119044124Y-68634356D01*
X119193345Y-68542315D01*
X119317315Y-68418345D01*
X119409356Y-68269124D01*
X119409358Y-68269119D01*
X119464505Y-68102697D01*
X119464506Y-68102690D01*
X119474999Y-67999986D01*
X119475000Y-67999973D01*
X119475000Y-67450000D01*
X117975000Y-67450000D01*
X117975000Y-68699999D01*
X117474999Y-68699999D01*
X117475000Y-68699998D01*
X117475000Y-67450000D01*
X115975001Y-67450000D01*
X115975001Y-67999986D01*
X113974999Y-67999986D01*
X113975000Y-67999973D01*
X113975000Y-67450000D01*
X112475000Y-67450000D01*
X112475000Y-68699999D01*
X111974999Y-68699999D01*
X111975000Y-68699998D01*
X111975000Y-67324000D01*
X111994685Y-67256961D01*
X112047489Y-67211206D01*
X112099000Y-67200000D01*
X112225000Y-67200000D01*
X112225000Y-67074000D01*
X112244685Y-67006961D01*
X112297489Y-66961206D01*
X112349000Y-66950000D01*
X113974999Y-66950000D01*
X113974999Y-66400028D01*
X113974998Y-66400013D01*
X113964505Y-66297302D01*
X113909358Y-66130880D01*
X113909353Y-66130869D01*
X113886363Y-66093597D01*
X113867922Y-66026205D01*
X113888844Y-65959542D01*
X113942486Y-65914772D01*
X113991901Y-65904500D01*
X115958099Y-65904500D01*
X116025138Y-65924185D01*
X116070893Y-65976989D01*
X116080837Y-66046147D01*
X116063637Y-66093597D01*
X116040646Y-66130869D01*
X116040641Y-66130880D01*
X115985494Y-66297302D01*
X115985493Y-66297309D01*
X115975000Y-66400013D01*
X115975000Y-66950000D01*
X119474999Y-66950000D01*
X119474999Y-66400028D01*
X119474998Y-66400013D01*
X119464505Y-66297302D01*
X119409358Y-66130880D01*
X119409353Y-66130869D01*
X119386363Y-66093597D01*
X119367922Y-66026205D01*
X119388844Y-65959542D01*
X119442486Y-65914772D01*
X119491901Y-65904500D01*
X121495658Y-65904500D01*
X121550906Y-65919901D01*
X121551559Y-65918453D01*
X121558393Y-65921528D01*
X121558398Y-65921531D01*
X121712113Y-65969430D01*
X121778909Y-65975500D01*
X123121090Y-65975499D01*
X123121097Y-65975499D01*
X123187882Y-65969431D01*
X123187885Y-65969430D01*
X123187887Y-65969430D01*
X123341602Y-65921531D01*
X123430346Y-65867882D01*
X123494496Y-65850000D01*
X123726915Y-65850000D01*
X123726914Y-65849999D01*
X123723935Y-65817207D01*
X123723933Y-65817200D01*
X123675799Y-65662732D01*
X123675472Y-65642911D01*
X123670201Y-65623802D01*
X123674695Y-65595813D01*
X123674647Y-65592871D01*
X123675797Y-65588954D01*
X123676528Y-65586605D01*
X123676531Y-65586602D01*
X123681615Y-65570286D01*
X123720348Y-65512142D01*
X123784373Y-65484167D01*
X123853358Y-65495246D01*
X123905403Y-65541863D01*
X123918383Y-65570284D01*
X123923467Y-65586598D01*
X123923468Y-65586600D01*
X123923469Y-65586602D01*
X124006764Y-65724388D01*
X124006766Y-65724391D01*
X124120608Y-65838233D01*
X124120610Y-65838234D01*
X124120612Y-65838236D01*
X124258398Y-65921531D01*
X124412113Y-65969430D01*
X124478909Y-65975500D01*
X125821090Y-65975499D01*
X125821097Y-65975499D01*
X125887882Y-65969431D01*
X125887885Y-65969430D01*
X125887887Y-65969430D01*
X126041602Y-65921531D01*
X126179388Y-65838236D01*
X126230804Y-65786820D01*
X126292127Y-65753334D01*
X126318486Y-65750500D01*
X126800986Y-65750500D01*
X126868025Y-65770185D01*
X126913780Y-65822989D01*
X126923724Y-65892147D01*
X126906525Y-65939597D01*
X126865643Y-66005875D01*
X126865641Y-66005880D01*
X126810494Y-66172302D01*
X126810493Y-66172309D01*
X126800000Y-66275013D01*
X126800000Y-66487500D01*
X127950000Y-66487500D01*
X128450000Y-66487500D01*
X129599999Y-66487500D01*
X129599999Y-66275028D01*
X129599998Y-66275013D01*
X129589505Y-66172302D01*
X129534358Y-66005880D01*
X129534356Y-66005875D01*
X129442315Y-65856654D01*
X129318345Y-65732684D01*
X129169124Y-65640643D01*
X129169119Y-65640641D01*
X129002697Y-65585494D01*
X129002690Y-65585493D01*
X128899986Y-65575000D01*
X128450000Y-65575000D01*
X128450000Y-66487500D01*
X127950000Y-66487500D01*
X127950000Y-65586976D01*
X127900914Y-65551465D01*
X127881527Y-65526429D01*
X127860802Y-65502511D01*
X127860299Y-65499015D01*
X127858136Y-65496222D01*
X127855362Y-65464682D01*
X127850858Y-65433353D01*
X127852325Y-65430139D01*
X127852016Y-65426621D01*
X127866731Y-65398595D01*
X127879883Y-65369797D01*
X127884398Y-65364947D01*
X127884497Y-65364760D01*
X127884658Y-65364668D01*
X127885915Y-65363319D01*
X127974922Y-65274312D01*
X128214662Y-65034572D01*
X128275983Y-65001089D01*
X128278150Y-65000638D01*
X128336085Y-64989113D01*
X128433497Y-64969737D01*
X128579179Y-64909394D01*
X128710289Y-64821789D01*
X128821789Y-64710289D01*
X128909394Y-64579179D01*
X128910872Y-64575612D01*
X128949907Y-64481371D01*
X128969737Y-64433497D01*
X129000500Y-64278842D01*
X129000500Y-64121158D01*
X129000500Y-64121155D01*
X129000499Y-64121153D01*
X128986398Y-64050264D01*
X128969737Y-63966503D01*
X128968716Y-63964037D01*
X128909397Y-63820827D01*
X128909390Y-63820814D01*
X128821789Y-63689711D01*
X128821786Y-63689707D01*
X128710292Y-63578213D01*
X128710288Y-63578210D01*
X128579185Y-63490609D01*
X128579172Y-63490602D01*
X128433501Y-63430264D01*
X128433489Y-63430261D01*
X128278845Y-63399500D01*
X128278842Y-63399500D01*
X128121158Y-63399500D01*
X128121155Y-63399500D01*
X127966510Y-63430261D01*
X127966498Y-63430264D01*
X127820827Y-63490602D01*
X127820814Y-63490609D01*
X127689711Y-63578210D01*
X127689707Y-63578213D01*
X127578213Y-63689707D01*
X127578210Y-63689711D01*
X127490609Y-63820814D01*
X127490602Y-63820827D01*
X127430264Y-63966498D01*
X127430261Y-63966508D01*
X127399361Y-64121850D01*
X127366976Y-64183761D01*
X127365425Y-64185339D01*
X127037584Y-64513181D01*
X126976261Y-64546666D01*
X126949903Y-64549500D01*
X126318486Y-64549500D01*
X126251447Y-64529815D01*
X126230804Y-64513180D01*
X126179392Y-64461767D01*
X126179391Y-64461766D01*
X126135227Y-64435068D01*
X126041602Y-64378469D01*
X126041601Y-64378468D01*
X126041597Y-64378466D01*
X126036098Y-64375991D01*
X126022312Y-64364175D01*
X126005797Y-64356633D01*
X125996335Y-64341910D01*
X125983048Y-64330522D01*
X125977838Y-64313128D01*
X125968023Y-64297855D01*
X125963183Y-64264195D01*
X125963002Y-64263590D01*
X125963000Y-64262920D01*
X125963000Y-64067874D01*
X125982685Y-64000835D01*
X126035489Y-63955080D01*
X126047988Y-63950170D01*
X126094334Y-63934814D01*
X126243656Y-63842712D01*
X126367712Y-63718656D01*
X126459814Y-63569334D01*
X126514999Y-63402797D01*
X126525500Y-63300009D01*
X126525499Y-61899992D01*
X126514999Y-61797203D01*
X126459814Y-61630666D01*
X126367712Y-61481344D01*
X126243656Y-61357288D01*
X126094334Y-61265186D01*
X125927797Y-61210001D01*
X125927795Y-61210000D01*
X125825010Y-61199500D01*
X124899998Y-61199500D01*
X124899980Y-61199501D01*
X124797203Y-61210000D01*
X124797200Y-61210001D01*
X124630668Y-61265185D01*
X124630663Y-61265187D01*
X124481342Y-61357289D01*
X124357289Y-61481342D01*
X124265187Y-61630663D01*
X124265185Y-61630668D01*
X124265115Y-61630880D01*
X124210001Y-61797203D01*
X124210001Y-61797204D01*
X124210000Y-61797204D01*
X124199500Y-61899983D01*
X124199500Y-63300001D01*
X124199501Y-63300018D01*
X124210000Y-63402796D01*
X124210001Y-63402799D01*
X124265185Y-63569331D01*
X124265187Y-63569336D01*
X124297018Y-63620943D01*
X124357288Y-63718656D01*
X124481344Y-63842712D01*
X124629927Y-63934358D01*
X124630668Y-63934815D01*
X124646923Y-63940201D01*
X124677002Y-63950168D01*
X124697036Y-63964037D01*
X124719203Y-63974161D01*
X124725250Y-63983571D01*
X124734447Y-63989938D01*
X124743803Y-64012440D01*
X124756977Y-64032939D01*
X124759435Y-64050035D01*
X124761272Y-64054453D01*
X124762000Y-64067874D01*
X124762000Y-64200500D01*
X124742315Y-64267539D01*
X124689511Y-64313294D01*
X124638001Y-64324500D01*
X124478901Y-64324500D01*
X124412117Y-64330568D01*
X124412106Y-64330571D01*
X124258401Y-64378467D01*
X124120608Y-64461766D01*
X124006766Y-64575608D01*
X123975529Y-64627281D01*
X123924105Y-64712347D01*
X123923468Y-64713400D01*
X123918385Y-64729712D01*
X123879647Y-64787860D01*
X123815621Y-64815833D01*
X123746636Y-64804751D01*
X123694594Y-64758132D01*
X123681615Y-64729712D01*
X123677722Y-64717220D01*
X123676531Y-64713398D01*
X123593236Y-64575612D01*
X123593234Y-64575610D01*
X123593233Y-64575608D01*
X123479391Y-64461766D01*
X123435227Y-64435068D01*
X123341602Y-64378469D01*
X123187887Y-64330570D01*
X123187885Y-64330569D01*
X123187883Y-64330569D01*
X123141117Y-64326319D01*
X123121091Y-64324500D01*
X123121088Y-64324500D01*
X121778901Y-64324500D01*
X121712117Y-64330568D01*
X121712106Y-64330571D01*
X121558400Y-64378467D01*
X121551559Y-64381547D01*
X121550906Y-64380098D01*
X121495658Y-64395500D01*
X110730446Y-64395500D01*
X110730426Y-64395499D01*
X110724312Y-64395499D01*
X110575688Y-64395499D01*
X110575686Y-64395499D01*
X110460307Y-64418450D01*
X110460304Y-64418450D01*
X110454105Y-64419684D01*
X110429920Y-64424495D01*
X110404395Y-64435068D01*
X110398999Y-64437302D01*
X110398986Y-64437307D01*
X110292613Y-64481367D01*
X110292611Y-64481370D01*
X110169033Y-64563941D01*
X110132476Y-64600499D01*
X110063941Y-64669034D01*
X110063939Y-64669036D01*
X109312181Y-65420793D01*
X109250858Y-65454278D01*
X109181166Y-65449294D01*
X109125233Y-65407422D01*
X109100816Y-65341958D01*
X109100500Y-65333112D01*
X109100500Y-63299986D01*
X121075001Y-63299986D01*
X121085494Y-63402697D01*
X121140641Y-63569119D01*
X121140643Y-63569124D01*
X121232684Y-63718345D01*
X121356654Y-63842315D01*
X121505875Y-63934356D01*
X121505880Y-63934358D01*
X121672302Y-63989505D01*
X121672309Y-63989506D01*
X121775019Y-63999999D01*
X121987499Y-63999999D01*
X122487500Y-63999999D01*
X122699972Y-63999999D01*
X122699986Y-63999998D01*
X122802697Y-63989505D01*
X122969119Y-63934358D01*
X122969124Y-63934356D01*
X123118345Y-63842315D01*
X123242315Y-63718345D01*
X123334356Y-63569124D01*
X123334358Y-63569119D01*
X123389505Y-63402697D01*
X123389506Y-63402690D01*
X123399999Y-63299986D01*
X123400000Y-63299973D01*
X123400000Y-62850000D01*
X122487500Y-62850000D01*
X122487500Y-63999999D01*
X121987499Y-63999999D01*
X121987500Y-63999998D01*
X121987500Y-62850000D01*
X121075001Y-62850000D01*
X121075001Y-63299986D01*
X109100500Y-63299986D01*
X109100500Y-61900013D01*
X121075000Y-61900013D01*
X121075000Y-62350000D01*
X121987500Y-62350000D01*
X122487500Y-62350000D01*
X123399999Y-62350000D01*
X123399999Y-61900028D01*
X123399998Y-61900013D01*
X123389505Y-61797302D01*
X123334358Y-61630880D01*
X123334356Y-61630875D01*
X123242315Y-61481654D01*
X123118345Y-61357684D01*
X122969124Y-61265643D01*
X122969119Y-61265641D01*
X122802697Y-61210494D01*
X122802690Y-61210493D01*
X122699986Y-61200000D01*
X122487500Y-61200000D01*
X122487500Y-62350000D01*
X121987500Y-62350000D01*
X121987500Y-61200000D01*
X121775029Y-61200000D01*
X121775012Y-61200001D01*
X121672302Y-61210494D01*
X121505880Y-61265641D01*
X121505875Y-61265643D01*
X121356654Y-61357684D01*
X121232684Y-61481654D01*
X121140643Y-61630875D01*
X121140641Y-61630880D01*
X121085494Y-61797302D01*
X121085493Y-61797309D01*
X121075000Y-61900013D01*
X109100500Y-61900013D01*
X109100500Y-44724500D01*
X109120185Y-44657461D01*
X109172989Y-44611706D01*
X109224500Y-44600500D01*
X160875500Y-44600500D01*
X160942539Y-44620185D01*
G37*
%TD.AperFunction*%
%TA.AperFunction,Conductor*%
G36*
X129592822Y-70631934D02*
G01*
X129597231Y-70631217D01*
X129606036Y-70632641D01*
X129692539Y-70649848D01*
X129759350Y-70663138D01*
X129821261Y-70695523D01*
X129822839Y-70697074D01*
X131223181Y-72097416D01*
X131256666Y-72158739D01*
X131259500Y-72185097D01*
X131259500Y-72325500D01*
X131239815Y-72392539D01*
X131187011Y-72438294D01*
X131135501Y-72449500D01*
X130962130Y-72449500D01*
X130962123Y-72449501D01*
X130902516Y-72455908D01*
X130767671Y-72506202D01*
X130767664Y-72506206D01*
X130652455Y-72592452D01*
X130652452Y-72592455D01*
X130566206Y-72707664D01*
X130566202Y-72707671D01*
X130515908Y-72842517D01*
X130509501Y-72902116D01*
X130509500Y-72902135D01*
X130509500Y-74697870D01*
X130509501Y-74697876D01*
X130515908Y-74757483D01*
X130566202Y-74892328D01*
X130566206Y-74892335D01*
X130652452Y-75007544D01*
X130652455Y-75007547D01*
X130767664Y-75093793D01*
X130767671Y-75093797D01*
X130902517Y-75144091D01*
X130902516Y-75144091D01*
X130909444Y-75144835D01*
X130962127Y-75150500D01*
X132757872Y-75150499D01*
X132817483Y-75144091D01*
X132952331Y-75093796D01*
X133067546Y-75007546D01*
X133153796Y-74892331D01*
X133204091Y-74757483D01*
X133210500Y-74697873D01*
X133210499Y-74673979D01*
X133213330Y-74660963D01*
X133223940Y-74641525D01*
X133230179Y-74620275D01*
X133246803Y-74599643D01*
X133246808Y-74599636D01*
X133246811Y-74599634D01*
X133246818Y-74599626D01*
X133917037Y-73929408D01*
X133934075Y-73992993D01*
X133999901Y-74107007D01*
X134092993Y-74200099D01*
X134207007Y-74265925D01*
X134270590Y-74282962D01*
X133638282Y-74915269D01*
X133638282Y-74915270D01*
X133692449Y-74954624D01*
X133881782Y-75051095D01*
X134083870Y-75116757D01*
X134293754Y-75150000D01*
X134506246Y-75150000D01*
X134716127Y-75116757D01*
X134716130Y-75116757D01*
X134918217Y-75051095D01*
X135107554Y-74954622D01*
X135161716Y-74915270D01*
X135161717Y-74915270D01*
X134529408Y-74282962D01*
X134592993Y-74265925D01*
X134707007Y-74200099D01*
X134800099Y-74107007D01*
X134865925Y-73992993D01*
X134882962Y-73929408D01*
X135515270Y-74561717D01*
X135515270Y-74561716D01*
X135554622Y-74507555D01*
X135559232Y-74498507D01*
X135607205Y-74447709D01*
X135675025Y-74430912D01*
X135741161Y-74453447D01*
X135780204Y-74498504D01*
X135784949Y-74507817D01*
X135909890Y-74679786D01*
X136060213Y-74830109D01*
X136232179Y-74955048D01*
X136232181Y-74955049D01*
X136232184Y-74955051D01*
X136421588Y-75051557D01*
X136623757Y-75117246D01*
X136833713Y-75150500D01*
X136833714Y-75150500D01*
X137046286Y-75150500D01*
X137046287Y-75150500D01*
X137256243Y-75117246D01*
X137458412Y-75051557D01*
X137647816Y-74955051D01*
X137730222Y-74895180D01*
X137819786Y-74830109D01*
X137819788Y-74830106D01*
X137819792Y-74830104D01*
X137970104Y-74679792D01*
X137970106Y-74679788D01*
X137970109Y-74679786D01*
X138095048Y-74507820D01*
X138095050Y-74507817D01*
X138095051Y-74507816D01*
X138099514Y-74499054D01*
X138147488Y-74448259D01*
X138215308Y-74431463D01*
X138281444Y-74453999D01*
X138320484Y-74499054D01*
X138324591Y-74507115D01*
X138324951Y-74507820D01*
X138449890Y-74679786D01*
X138600213Y-74830109D01*
X138772179Y-74955048D01*
X138772181Y-74955049D01*
X138772184Y-74955051D01*
X138961588Y-75051557D01*
X139163757Y-75117246D01*
X139373713Y-75150500D01*
X139373714Y-75150500D01*
X139586286Y-75150500D01*
X139586287Y-75150500D01*
X139796243Y-75117246D01*
X139998412Y-75051557D01*
X140187816Y-74955051D01*
X140270222Y-74895180D01*
X140359786Y-74830109D01*
X140359788Y-74830106D01*
X140359792Y-74830104D01*
X140510104Y-74679792D01*
X140510106Y-74679788D01*
X140510109Y-74679786D01*
X140635048Y-74507820D01*
X140635050Y-74507817D01*
X140635051Y-74507816D01*
X140731557Y-74318412D01*
X140797246Y-74116243D01*
X140830500Y-73906287D01*
X140830500Y-73693713D01*
X140797246Y-73483757D01*
X140731557Y-73281588D01*
X140635051Y-73092184D01*
X140635049Y-73092181D01*
X140635048Y-73092179D01*
X140510109Y-72920213D01*
X140359786Y-72769890D01*
X140187815Y-72644948D01*
X140187814Y-72644947D01*
X140148205Y-72624765D01*
X140097409Y-72576791D01*
X140080500Y-72514281D01*
X140080500Y-72106424D01*
X140100185Y-72039385D01*
X140152989Y-71993630D01*
X140222147Y-71983686D01*
X140269591Y-72000882D01*
X140405666Y-72084814D01*
X140572203Y-72139999D01*
X140674991Y-72150500D01*
X141419612Y-72150499D01*
X141449061Y-72159145D01*
X141479038Y-72165667D01*
X141484051Y-72169419D01*
X141486651Y-72170183D01*
X141507288Y-72186813D01*
X141609182Y-72288706D01*
X141642666Y-72350027D01*
X141645500Y-72376386D01*
X141645500Y-75836113D01*
X141625815Y-75903152D01*
X141609181Y-75923794D01*
X141423794Y-76109181D01*
X141362471Y-76142666D01*
X141336113Y-76145500D01*
X130313886Y-76145500D01*
X130246847Y-76125815D01*
X130226205Y-76109181D01*
X129690819Y-75573794D01*
X129657334Y-75512471D01*
X129654500Y-75486113D01*
X129654500Y-72830446D01*
X129654501Y-72830425D01*
X129654501Y-72675685D01*
X129625506Y-72529926D01*
X129625505Y-72529925D01*
X129625505Y-72529921D01*
X129614431Y-72503186D01*
X129568633Y-72392618D01*
X129568632Y-72392617D01*
X129568630Y-72392611D01*
X129509167Y-72303618D01*
X129486059Y-72269034D01*
X129486057Y-72269031D01*
X129376647Y-72159621D01*
X129376624Y-72159600D01*
X128454206Y-71237180D01*
X128420721Y-71175857D01*
X128425705Y-71106165D01*
X128467577Y-71050232D01*
X128533041Y-71025815D01*
X128541887Y-71025499D01*
X128900002Y-71025499D01*
X128900008Y-71025499D01*
X129002797Y-71014999D01*
X129169334Y-70959814D01*
X129318656Y-70867712D01*
X129442712Y-70743656D01*
X129476323Y-70689163D01*
X129492815Y-70674329D01*
X129505790Y-70656336D01*
X129518284Y-70651420D01*
X129528268Y-70642440D01*
X129550164Y-70638876D01*
X129570809Y-70630754D01*
X129592822Y-70631934D01*
G37*
%TD.AperFunction*%
%TA.AperFunction,Conductor*%
G36*
X133916942Y-69170185D02*
G01*
X133937584Y-69186819D01*
X134063181Y-69312416D01*
X134096666Y-69373739D01*
X134099500Y-69400097D01*
X134099500Y-71213330D01*
X134099499Y-71213348D01*
X134099499Y-71379054D01*
X134099498Y-71379054D01*
X134111034Y-71422104D01*
X134136269Y-71516284D01*
X134140423Y-71531784D01*
X134140424Y-71531788D01*
X134165770Y-71575689D01*
X134165771Y-71575689D01*
X134219477Y-71668712D01*
X134219481Y-71668717D01*
X134338349Y-71787585D01*
X134338355Y-71787590D01*
X134615139Y-72064374D01*
X134615149Y-72064385D01*
X134619479Y-72068715D01*
X134619480Y-72068716D01*
X134731284Y-72180520D01*
X134731286Y-72180521D01*
X134731290Y-72180524D01*
X134864551Y-72257461D01*
X134868216Y-72259577D01*
X134980019Y-72289534D01*
X135020942Y-72300500D01*
X135020943Y-72300500D01*
X136099903Y-72300500D01*
X136129343Y-72309144D01*
X136159330Y-72315668D01*
X136164345Y-72319422D01*
X136166942Y-72320185D01*
X136187584Y-72336819D01*
X136286079Y-72435314D01*
X136319564Y-72496637D01*
X136314580Y-72566329D01*
X136272708Y-72622262D01*
X136254694Y-72633479D01*
X136232182Y-72644949D01*
X136060213Y-72769890D01*
X135909890Y-72920213D01*
X135784949Y-73092182D01*
X135780202Y-73101499D01*
X135732227Y-73152293D01*
X135664405Y-73169087D01*
X135598271Y-73146548D01*
X135559234Y-73101495D01*
X135554626Y-73092452D01*
X135515270Y-73038282D01*
X135515269Y-73038282D01*
X134882962Y-73670590D01*
X134865925Y-73607007D01*
X134800099Y-73492993D01*
X134707007Y-73399901D01*
X134592993Y-73334075D01*
X134529409Y-73317037D01*
X135161716Y-72684728D01*
X135107550Y-72645375D01*
X134918217Y-72548904D01*
X134716129Y-72483242D01*
X134506246Y-72450000D01*
X134293754Y-72450000D01*
X134083872Y-72483242D01*
X134083869Y-72483242D01*
X133881782Y-72548904D01*
X133692439Y-72645380D01*
X133638282Y-72684727D01*
X133638282Y-72684728D01*
X134270591Y-73317037D01*
X134207007Y-73334075D01*
X134092993Y-73399901D01*
X133999901Y-73492993D01*
X133934075Y-73607007D01*
X133917037Y-73670591D01*
X133246818Y-73000372D01*
X133213333Y-72939049D01*
X133213330Y-72939036D01*
X133210499Y-72926015D01*
X133210499Y-72902128D01*
X133204091Y-72842517D01*
X133175665Y-72766302D01*
X133153798Y-72707673D01*
X133153793Y-72707664D01*
X133067547Y-72592455D01*
X133067544Y-72592452D01*
X132952335Y-72506206D01*
X132952328Y-72506202D01*
X132817482Y-72455908D01*
X132817483Y-72455908D01*
X132757883Y-72449501D01*
X132757881Y-72449500D01*
X132757873Y-72449500D01*
X132757865Y-72449500D01*
X132584500Y-72449500D01*
X132517461Y-72429815D01*
X132471706Y-72377011D01*
X132460500Y-72325500D01*
X132460500Y-71974059D01*
X132460501Y-71974046D01*
X132460501Y-71805945D01*
X132460501Y-71805943D01*
X132419577Y-71653215D01*
X132390639Y-71603095D01*
X132340520Y-71516284D01*
X132228716Y-71404480D01*
X132228715Y-71404479D01*
X132224385Y-71400149D01*
X132224374Y-71400139D01*
X131568416Y-70744181D01*
X131534931Y-70682858D01*
X131539915Y-70613166D01*
X131581787Y-70557233D01*
X131647251Y-70532816D01*
X131656097Y-70532500D01*
X132856221Y-70532500D01*
X132856222Y-70532499D01*
X132988078Y-70506272D01*
X133112285Y-70454823D01*
X133224068Y-70380132D01*
X133319132Y-70285068D01*
X133393823Y-70173285D01*
X133445272Y-70049078D01*
X133471500Y-69917220D01*
X133471500Y-69782780D01*
X133445272Y-69650922D01*
X133412767Y-69572450D01*
X133405299Y-69502984D01*
X133412765Y-69477554D01*
X133445272Y-69399078D01*
X133471500Y-69267220D01*
X133471500Y-69267213D01*
X133471980Y-69262347D01*
X133498140Y-69197560D01*
X133555174Y-69157200D01*
X133595383Y-69150500D01*
X133849903Y-69150500D01*
X133916942Y-69170185D01*
G37*
%TD.AperFunction*%
%TA.AperFunction,Conductor*%
G36*
X154203152Y-58674185D02*
G01*
X154223794Y-58690819D01*
X154409181Y-58876205D01*
X154442666Y-58937528D01*
X154445500Y-58963886D01*
X154445500Y-62736112D01*
X154425815Y-62803151D01*
X154409181Y-62823793D01*
X153105748Y-64127225D01*
X153044425Y-64160710D01*
X152974733Y-64155726D01*
X152918800Y-64113854D01*
X152894383Y-64048390D01*
X152895128Y-64023358D01*
X152927499Y-63777480D01*
X152927500Y-63777466D01*
X152927500Y-63482533D01*
X152927498Y-63482516D01*
X152889003Y-63190115D01*
X152889000Y-63190102D01*
X152812664Y-62905209D01*
X152812661Y-62905199D01*
X152699795Y-62632718D01*
X152699790Y-62632707D01*
X152552325Y-62377292D01*
X152552319Y-62377284D01*
X152435721Y-62225331D01*
X151649586Y-63011466D01*
X151554671Y-62880825D01*
X151426675Y-62752829D01*
X151296032Y-62657912D01*
X152082167Y-61871777D01*
X151930215Y-61755180D01*
X151930207Y-61755174D01*
X151674792Y-61607709D01*
X151674781Y-61607704D01*
X151402300Y-61494838D01*
X151402290Y-61494835D01*
X151117397Y-61418499D01*
X151117384Y-61418496D01*
X150824983Y-61380001D01*
X150824966Y-61380000D01*
X150530034Y-61380000D01*
X150530016Y-61380001D01*
X150237615Y-61418496D01*
X150237602Y-61418499D01*
X149952709Y-61494835D01*
X149952699Y-61494838D01*
X149680218Y-61607704D01*
X149680207Y-61607709D01*
X149424792Y-61755174D01*
X149424776Y-61755185D01*
X149272831Y-61871775D01*
X149272831Y-61871777D01*
X150058966Y-62657912D01*
X149928325Y-62752829D01*
X149800329Y-62880825D01*
X149705412Y-63011466D01*
X148919277Y-62225331D01*
X148919275Y-62225331D01*
X148802685Y-62377276D01*
X148802674Y-62377292D01*
X148655209Y-62632707D01*
X148655204Y-62632718D01*
X148542338Y-62905199D01*
X148542335Y-62905209D01*
X148465999Y-63190102D01*
X148465996Y-63190115D01*
X148427501Y-63482516D01*
X148427500Y-63482533D01*
X148427500Y-63777466D01*
X148427501Y-63777483D01*
X148465996Y-64069884D01*
X148465999Y-64069897D01*
X148542335Y-64354790D01*
X148542338Y-64354800D01*
X148655204Y-64627281D01*
X148655209Y-64627292D01*
X148802674Y-64882707D01*
X148802680Y-64882715D01*
X148919277Y-65034667D01*
X149705412Y-64248531D01*
X149800329Y-64379175D01*
X149928325Y-64507171D01*
X150058966Y-64602086D01*
X149272831Y-65388221D01*
X149424784Y-65504819D01*
X149424792Y-65504825D01*
X149680207Y-65652290D01*
X149680218Y-65652295D01*
X149952699Y-65765161D01*
X149952709Y-65765164D01*
X150237602Y-65841500D01*
X150237615Y-65841503D01*
X150530016Y-65879998D01*
X150530034Y-65880000D01*
X150824966Y-65880000D01*
X150824983Y-65879998D01*
X151117384Y-65841503D01*
X151117397Y-65841500D01*
X151402290Y-65765164D01*
X151402300Y-65765161D01*
X151674781Y-65652295D01*
X151674792Y-65652290D01*
X151930207Y-65504825D01*
X151930215Y-65504819D01*
X152146013Y-65339232D01*
X152211182Y-65314038D01*
X152279627Y-65328076D01*
X152329617Y-65376890D01*
X152345500Y-65437608D01*
X152345500Y-69836113D01*
X152325815Y-69903152D01*
X152309181Y-69923794D01*
X149351502Y-72881472D01*
X149290179Y-72914957D01*
X149220487Y-72909973D01*
X149164554Y-72868101D01*
X149158282Y-72858887D01*
X149143851Y-72835491D01*
X149072212Y-72719344D01*
X148948156Y-72595288D01*
X148842179Y-72529921D01*
X148798836Y-72503187D01*
X148798835Y-72503186D01*
X148798834Y-72503186D01*
X148700516Y-72470606D01*
X148643073Y-72430834D01*
X148616250Y-72366318D01*
X148628565Y-72297542D01*
X148666637Y-72252583D01*
X148789964Y-72162981D01*
X148930481Y-72022464D01*
X149047287Y-71861694D01*
X149137505Y-71684632D01*
X149198913Y-71495636D01*
X149230000Y-71299361D01*
X149230000Y-71100639D01*
X149198913Y-70904364D01*
X149153861Y-70765706D01*
X149137506Y-70715370D01*
X149137505Y-70715367D01*
X149075833Y-70594331D01*
X149047287Y-70538306D01*
X148930481Y-70377536D01*
X148840626Y-70287681D01*
X148807141Y-70226358D01*
X148812125Y-70156666D01*
X148840626Y-70112319D01*
X148930481Y-70022464D01*
X149047287Y-69861694D01*
X149137505Y-69684632D01*
X149198913Y-69495636D01*
X149230000Y-69299361D01*
X149230000Y-69100639D01*
X149198913Y-68904364D01*
X149153692Y-68765186D01*
X149137506Y-68715370D01*
X149137505Y-68715367D01*
X149082487Y-68607389D01*
X149047287Y-68538306D01*
X148930481Y-68377536D01*
X148789964Y-68237019D01*
X148629194Y-68120213D01*
X148511419Y-68060203D01*
X148460624Y-68012229D01*
X148443829Y-67944408D01*
X148466366Y-67878273D01*
X148511421Y-67839234D01*
X148628922Y-67779364D01*
X148666216Y-67752268D01*
X148064250Y-67150302D01*
X148145053Y-67128651D01*
X148249946Y-67068091D01*
X148335591Y-66982446D01*
X148396151Y-66877553D01*
X148417802Y-66796749D01*
X149019768Y-67398715D01*
X149046862Y-67361425D01*
X149137042Y-67184437D01*
X149198424Y-66995523D01*
X149198424Y-66995520D01*
X149229500Y-66799321D01*
X149229500Y-66600678D01*
X149198424Y-66404479D01*
X149198424Y-66404476D01*
X149137042Y-66215562D01*
X149046858Y-66038567D01*
X149019768Y-66001283D01*
X148417802Y-66603249D01*
X148396151Y-66522447D01*
X148335591Y-66417554D01*
X148249946Y-66331909D01*
X148145053Y-66271349D01*
X148064249Y-66249697D01*
X148666216Y-65647731D01*
X148666215Y-65647730D01*
X148628932Y-65620641D01*
X148451937Y-65530457D01*
X148263022Y-65469075D01*
X148066821Y-65438000D01*
X147868179Y-65438000D01*
X147671979Y-65469075D01*
X147671976Y-65469075D01*
X147483062Y-65530457D01*
X147306064Y-65620643D01*
X147268783Y-65647729D01*
X147268782Y-65647730D01*
X147870750Y-66249697D01*
X147789947Y-66271349D01*
X147685054Y-66331909D01*
X147599409Y-66417554D01*
X147538849Y-66522447D01*
X147517197Y-66603250D01*
X146915230Y-66001282D01*
X146906845Y-66001942D01*
X146869487Y-66030751D01*
X146799874Y-66036729D01*
X146738079Y-66004122D01*
X146703722Y-65943283D01*
X146701838Y-65933365D01*
X146700500Y-65924330D01*
X146700500Y-65871158D01*
X146669737Y-65716503D01*
X146649942Y-65668713D01*
X146609397Y-65570827D01*
X146609390Y-65570814D01*
X146521789Y-65439711D01*
X146521786Y-65439707D01*
X146410292Y-65328213D01*
X146410288Y-65328210D01*
X146279185Y-65240609D01*
X146279172Y-65240602D01*
X146133501Y-65180264D01*
X146133489Y-65180261D01*
X145978845Y-65149500D01*
X145978842Y-65149500D01*
X145821158Y-65149500D01*
X145821155Y-65149500D01*
X145666510Y-65180261D01*
X145666498Y-65180264D01*
X145520827Y-65240602D01*
X145520814Y-65240609D01*
X145389711Y-65328210D01*
X145389707Y-65328213D01*
X145354742Y-65363180D01*
X145293420Y-65396666D01*
X145267060Y-65399500D01*
X144970808Y-65399500D01*
X144903769Y-65379815D01*
X144883126Y-65363180D01*
X144851870Y-65331923D01*
X144851862Y-65331917D01*
X144710396Y-65248255D01*
X144710393Y-65248254D01*
X144552573Y-65202402D01*
X144552567Y-65202401D01*
X144515701Y-65199500D01*
X144515694Y-65199500D01*
X143359306Y-65199500D01*
X143359298Y-65199500D01*
X143322432Y-65202401D01*
X143322426Y-65202402D01*
X143164606Y-65248254D01*
X143164603Y-65248255D01*
X143023137Y-65331917D01*
X143023129Y-65331923D01*
X142906923Y-65448129D01*
X142906914Y-65448140D01*
X142906729Y-65448455D01*
X142906519Y-65448650D01*
X142902139Y-65454298D01*
X142901227Y-65453591D01*
X142855657Y-65496136D01*
X142786915Y-65508637D01*
X142722327Y-65481988D01*
X142698143Y-65454078D01*
X142697861Y-65454298D01*
X142693823Y-65449092D01*
X142693271Y-65448455D01*
X142693085Y-65448140D01*
X142693076Y-65448129D01*
X142576870Y-65331923D01*
X142576862Y-65331917D01*
X142435396Y-65248255D01*
X142435393Y-65248254D01*
X142277573Y-65202402D01*
X142277567Y-65202401D01*
X142240701Y-65199500D01*
X142240694Y-65199500D01*
X141084306Y-65199500D01*
X141084298Y-65199500D01*
X141047432Y-65202401D01*
X141047426Y-65202402D01*
X140889606Y-65248254D01*
X140889603Y-65248255D01*
X140748137Y-65331917D01*
X140748129Y-65331923D01*
X140716874Y-65363180D01*
X140689943Y-65377885D01*
X140664127Y-65394477D01*
X140657928Y-65395368D01*
X140655552Y-65396666D01*
X140629192Y-65399500D01*
X140624500Y-65399500D01*
X140557461Y-65379815D01*
X140511706Y-65327011D01*
X140500500Y-65275500D01*
X140500500Y-64285523D01*
X140520185Y-64218484D01*
X140572989Y-64172729D01*
X140642147Y-64162785D01*
X140705703Y-64191810D01*
X140712181Y-64197842D01*
X140756654Y-64242315D01*
X140905875Y-64334356D01*
X140905880Y-64334358D01*
X141072302Y-64389505D01*
X141072309Y-64389506D01*
X141175019Y-64399999D01*
X141387499Y-64399999D01*
X141887500Y-64399999D01*
X142099972Y-64399999D01*
X142099986Y-64399998D01*
X142202697Y-64389505D01*
X142369119Y-64334358D01*
X142369124Y-64334356D01*
X142518345Y-64242315D01*
X142642315Y-64118345D01*
X142734356Y-63969124D01*
X142734358Y-63969119D01*
X142789505Y-63802697D01*
X142789506Y-63802690D01*
X142799999Y-63699986D01*
X142800000Y-63699973D01*
X142800000Y-63250000D01*
X141887500Y-63250000D01*
X141887500Y-64399999D01*
X141387499Y-64399999D01*
X141387500Y-64399998D01*
X141387500Y-63250000D01*
X140475000Y-63250000D01*
X140474797Y-63250203D01*
X140466853Y-63254540D01*
X140461431Y-63261784D01*
X140436670Y-63271020D01*
X140413473Y-63283686D01*
X140404446Y-63283040D01*
X140395968Y-63286203D01*
X140370143Y-63280586D01*
X140343781Y-63278700D01*
X140334730Y-63272883D01*
X140327694Y-63271353D01*
X140299453Y-63250212D01*
X140299439Y-63250203D01*
X140299236Y-63250000D01*
X140268716Y-63219480D01*
X140268713Y-63219478D01*
X139437590Y-62388355D01*
X139437588Y-62388352D01*
X139349249Y-62300013D01*
X140475000Y-62300013D01*
X140475000Y-62750000D01*
X141387500Y-62750000D01*
X141887500Y-62750000D01*
X142799999Y-62750000D01*
X142799999Y-62300028D01*
X142799998Y-62300013D01*
X142789505Y-62197302D01*
X142734358Y-62030880D01*
X142734356Y-62030875D01*
X142642315Y-61881654D01*
X142518345Y-61757684D01*
X142369124Y-61665643D01*
X142369119Y-61665641D01*
X142202697Y-61610494D01*
X142202690Y-61610493D01*
X142099986Y-61600000D01*
X141887500Y-61600000D01*
X141887500Y-62750000D01*
X141387500Y-62750000D01*
X141387500Y-61600000D01*
X141175029Y-61600000D01*
X141175012Y-61600001D01*
X141072302Y-61610494D01*
X140905880Y-61665641D01*
X140905875Y-61665643D01*
X140756654Y-61757684D01*
X140632684Y-61881654D01*
X140540643Y-62030875D01*
X140540641Y-62030880D01*
X140485494Y-62197302D01*
X140485493Y-62197309D01*
X140475000Y-62300013D01*
X139349249Y-62300013D01*
X139318717Y-62269481D01*
X139318716Y-62269480D01*
X139231904Y-62219360D01*
X139231904Y-62219359D01*
X139231900Y-62219358D01*
X139181785Y-62190423D01*
X139029057Y-62149499D01*
X138870943Y-62149499D01*
X138863347Y-62149499D01*
X138863331Y-62149500D01*
X137336670Y-62149500D01*
X137336654Y-62149499D01*
X137329058Y-62149499D01*
X137170943Y-62149499D01*
X137094579Y-62169961D01*
X137018214Y-62190423D01*
X137018209Y-62190426D01*
X136881290Y-62269475D01*
X136881282Y-62269481D01*
X135312181Y-63838583D01*
X135250858Y-63872068D01*
X135181166Y-63867084D01*
X135125233Y-63825212D01*
X135100816Y-63759748D01*
X135100500Y-63750902D01*
X135100500Y-59453340D01*
X135120185Y-59386301D01*
X135172989Y-59340546D01*
X135242147Y-59330602D01*
X135289591Y-59347798D01*
X135430666Y-59434814D01*
X135597203Y-59489999D01*
X135699991Y-59500500D01*
X138800008Y-59500499D01*
X138902797Y-59489999D01*
X139069334Y-59434814D01*
X139218656Y-59342712D01*
X139342712Y-59218656D01*
X139434814Y-59069334D01*
X139444701Y-59039495D01*
X139484474Y-58982051D01*
X139548990Y-58955228D01*
X139562407Y-58954500D01*
X143586113Y-58954500D01*
X143653152Y-58974185D01*
X143673794Y-58990819D01*
X143971681Y-59288705D01*
X144005166Y-59350028D01*
X144008000Y-59376386D01*
X144008000Y-61609958D01*
X143988315Y-61676997D01*
X143949098Y-61715496D01*
X143881344Y-61757287D01*
X143757289Y-61881342D01*
X143665187Y-62030663D01*
X143665185Y-62030668D01*
X143665115Y-62030880D01*
X143610001Y-62197203D01*
X143610001Y-62197204D01*
X143610000Y-62197204D01*
X143599500Y-62299983D01*
X143599500Y-63700001D01*
X143599501Y-63700018D01*
X143610000Y-63802796D01*
X143610001Y-63802799D01*
X143665185Y-63969331D01*
X143665187Y-63969336D01*
X143684100Y-63999999D01*
X143757288Y-64118656D01*
X143881344Y-64242712D01*
X144030666Y-64334814D01*
X144197203Y-64389999D01*
X144299991Y-64400500D01*
X145225008Y-64400499D01*
X145225016Y-64400498D01*
X145225019Y-64400498D01*
X145281302Y-64394748D01*
X145327797Y-64389999D01*
X145494334Y-64334814D01*
X145643656Y-64242712D01*
X145767712Y-64118656D01*
X145859814Y-63969334D01*
X145914999Y-63802797D01*
X145925500Y-63700009D01*
X145925499Y-62905209D01*
X145925499Y-62299998D01*
X145925498Y-62299981D01*
X145914999Y-62197203D01*
X145914998Y-62197200D01*
X145899191Y-62149499D01*
X145859814Y-62030666D01*
X145767712Y-61881344D01*
X145643656Y-61757288D01*
X145643655Y-61757287D01*
X145575902Y-61715496D01*
X145529178Y-61663548D01*
X145517000Y-61609958D01*
X145517000Y-59376386D01*
X145536685Y-59309347D01*
X145553319Y-59288705D01*
X146151205Y-58690819D01*
X146212528Y-58657334D01*
X146238886Y-58654500D01*
X154136113Y-58654500D01*
X154203152Y-58674185D01*
G37*
%TD.AperFunction*%
%TA.AperFunction,Conductor*%
G36*
X139361148Y-66099445D02*
G01*
X139405260Y-66144086D01*
X139419480Y-66168716D01*
X139419481Y-66168717D01*
X139548720Y-66297956D01*
X139548725Y-66297960D01*
X139731284Y-66480520D01*
X139731286Y-66480521D01*
X139731290Y-66480524D01*
X139829575Y-66537268D01*
X139868216Y-66559577D01*
X140020943Y-66600501D01*
X140020945Y-66600501D01*
X140186654Y-66600501D01*
X140186670Y-66600500D01*
X140629192Y-66600500D01*
X140696231Y-66620185D01*
X140716874Y-66636820D01*
X140748129Y-66668076D01*
X140748133Y-66668079D01*
X140748135Y-66668081D01*
X140889602Y-66751744D01*
X140919947Y-66760560D01*
X141047426Y-66797597D01*
X141047429Y-66797597D01*
X141047431Y-66797598D01*
X141084306Y-66800500D01*
X141084314Y-66800500D01*
X142240686Y-66800500D01*
X142240694Y-66800500D01*
X142277569Y-66797598D01*
X142277571Y-66797597D01*
X142277573Y-66797597D01*
X142319191Y-66785505D01*
X142435398Y-66751744D01*
X142576865Y-66668081D01*
X142576870Y-66668075D01*
X142583031Y-66663298D01*
X142584339Y-66664984D01*
X142636009Y-66636761D01*
X142705701Y-66641735D01*
X142753441Y-66673752D01*
X142777704Y-66700000D01*
X143043185Y-66700000D01*
X143106306Y-66717268D01*
X143164602Y-66751744D01*
X143194947Y-66760560D01*
X143322426Y-66797597D01*
X143322429Y-66797597D01*
X143322431Y-66797598D01*
X143359306Y-66800500D01*
X143359314Y-66800500D01*
X144515686Y-66800500D01*
X144515694Y-66800500D01*
X144552569Y-66797598D01*
X144552571Y-66797597D01*
X144552573Y-66797597D01*
X144594191Y-66785505D01*
X144710398Y-66751744D01*
X144768694Y-66717268D01*
X144772219Y-66716303D01*
X144774672Y-66713951D01*
X144796288Y-66709719D01*
X144831815Y-66700000D01*
X145097295Y-66700000D01*
X145110087Y-66686161D01*
X145114355Y-66665848D01*
X145124117Y-66655946D01*
X145129894Y-66643297D01*
X145148164Y-66631555D01*
X145163409Y-66616093D01*
X145178177Y-66612267D01*
X145188672Y-66605523D01*
X145223607Y-66600500D01*
X145395065Y-66600500D01*
X145462104Y-66620185D01*
X145463909Y-66621366D01*
X145520821Y-66659394D01*
X145520823Y-66659395D01*
X145520827Y-66659397D01*
X145660542Y-66717268D01*
X145666503Y-66719737D01*
X145821153Y-66750499D01*
X145821156Y-66750500D01*
X145821158Y-66750500D01*
X145978844Y-66750500D01*
X145978845Y-66750499D01*
X146133497Y-66719737D01*
X146263598Y-66665848D01*
X146279172Y-66659397D01*
X146279172Y-66659396D01*
X146279179Y-66659394D01*
X146410289Y-66571789D01*
X146496639Y-66485438D01*
X146557960Y-66451955D01*
X146627652Y-66456939D01*
X146683586Y-66498810D01*
X146708003Y-66564274D01*
X146706793Y-66592515D01*
X146705500Y-66600680D01*
X146705500Y-66799321D01*
X146736575Y-66995520D01*
X146736575Y-66995523D01*
X146797957Y-67184437D01*
X146888141Y-67361432D01*
X146915230Y-67398715D01*
X146915231Y-67398716D01*
X147517197Y-66796749D01*
X147538849Y-66877553D01*
X147599409Y-66982446D01*
X147685054Y-67068091D01*
X147789947Y-67128651D01*
X147870750Y-67150302D01*
X147268783Y-67752268D01*
X147268783Y-67752269D01*
X147306067Y-67779358D01*
X147423579Y-67839234D01*
X147474375Y-67887209D01*
X147491170Y-67955030D01*
X147468633Y-68021165D01*
X147423579Y-68060204D01*
X147305805Y-68120213D01*
X147145033Y-68237021D01*
X147004521Y-68377533D01*
X146887709Y-68538310D01*
X146838984Y-68633939D01*
X146834609Y-68638570D01*
X146832815Y-68644683D01*
X146810913Y-68663661D01*
X146791010Y-68684735D01*
X146784825Y-68686266D01*
X146780011Y-68690438D01*
X146751323Y-68694562D01*
X146723189Y-68701530D01*
X146717159Y-68699475D01*
X146710853Y-68700382D01*
X146684484Y-68688340D01*
X146657054Y-68678992D01*
X146653092Y-68674003D01*
X146647297Y-68671357D01*
X146631625Y-68646971D01*
X146613603Y-68624277D01*
X146612103Y-68616593D01*
X146609523Y-68612579D01*
X146604500Y-68577644D01*
X146604500Y-68330446D01*
X146604501Y-68330425D01*
X146604501Y-68175685D01*
X146575506Y-68029927D01*
X146575505Y-68029922D01*
X146571340Y-68019868D01*
X146570153Y-68017001D01*
X146542194Y-67949500D01*
X146518630Y-67892611D01*
X146478652Y-67832780D01*
X146478652Y-67832779D01*
X146436060Y-67769035D01*
X146436054Y-67769028D01*
X146326646Y-67659620D01*
X146326625Y-67659601D01*
X145980969Y-67313943D01*
X145980968Y-67313942D01*
X145909348Y-67266088D01*
X145857389Y-67231370D01*
X145857386Y-67231368D01*
X145857385Y-67231368D01*
X145776955Y-67198053D01*
X145720080Y-67174495D01*
X145695894Y-67169684D01*
X145574314Y-67145499D01*
X145574312Y-67145499D01*
X145425688Y-67145499D01*
X145419574Y-67145499D01*
X145419554Y-67145500D01*
X144718559Y-67145500D01*
X144712911Y-67143841D01*
X144707134Y-67144973D01*
X144683964Y-67140576D01*
X144552573Y-67102402D01*
X144552567Y-67102401D01*
X144515701Y-67099500D01*
X144515694Y-67099500D01*
X143359306Y-67099500D01*
X143359298Y-67099500D01*
X143322432Y-67102401D01*
X143322426Y-67102402D01*
X143164606Y-67148254D01*
X143164603Y-67148255D01*
X143106306Y-67182732D01*
X143043185Y-67200000D01*
X142777704Y-67200000D01*
X142753440Y-67226248D01*
X142693479Y-67262114D01*
X142623645Y-67259869D01*
X142583987Y-67235468D01*
X142583031Y-67236702D01*
X142576862Y-67231917D01*
X142479766Y-67174495D01*
X142435398Y-67148256D01*
X142435397Y-67148255D01*
X142435396Y-67148255D01*
X142435393Y-67148254D01*
X142277573Y-67102402D01*
X142277567Y-67102401D01*
X142240701Y-67099500D01*
X142240694Y-67099500D01*
X141084306Y-67099500D01*
X141084298Y-67099500D01*
X141047432Y-67102401D01*
X141047426Y-67102402D01*
X140889606Y-67148254D01*
X140889603Y-67148255D01*
X140748137Y-67231917D01*
X140748129Y-67231923D01*
X140631923Y-67348129D01*
X140631917Y-67348137D01*
X140548255Y-67489603D01*
X140548254Y-67489606D01*
X140502402Y-67647426D01*
X140502401Y-67647432D01*
X140499500Y-67684298D01*
X140499500Y-68115701D01*
X140502401Y-68152567D01*
X140502402Y-68152573D01*
X140548254Y-68310393D01*
X140548255Y-68310396D01*
X140631732Y-68451550D01*
X140631918Y-68451864D01*
X140631923Y-68451870D01*
X140643832Y-68463779D01*
X140677317Y-68525102D01*
X140672333Y-68594794D01*
X140643833Y-68639140D01*
X140551442Y-68731532D01*
X140551440Y-68731535D01*
X140468872Y-68855107D01*
X140468866Y-68855117D01*
X140447137Y-68907580D01*
X140415043Y-68985063D01*
X140415041Y-68985069D01*
X140411993Y-68992425D01*
X140411993Y-68992426D01*
X140382999Y-69138185D01*
X140382999Y-69292925D01*
X140383000Y-69292946D01*
X140383000Y-69359958D01*
X140363315Y-69426997D01*
X140324098Y-69465496D01*
X140256344Y-69507287D01*
X140132289Y-69631342D01*
X140040187Y-69780663D01*
X140040185Y-69780668D01*
X140025895Y-69823794D01*
X139985001Y-69947203D01*
X139985001Y-69947204D01*
X139985000Y-69947204D01*
X139974500Y-70049983D01*
X139974500Y-71325903D01*
X139968261Y-71347148D01*
X139966682Y-71369237D01*
X139958609Y-71380020D01*
X139954815Y-71392942D01*
X139938081Y-71407441D01*
X139924810Y-71425170D01*
X139912189Y-71429877D01*
X139902011Y-71438697D01*
X139880093Y-71441848D01*
X139859346Y-71449587D01*
X139846185Y-71446724D01*
X139832853Y-71448641D01*
X139812709Y-71439441D01*
X139791073Y-71434735D01*
X139773347Y-71421466D01*
X139769297Y-71419616D01*
X139762819Y-71413584D01*
X139587590Y-71238355D01*
X139587588Y-71238352D01*
X139468717Y-71119481D01*
X139468716Y-71119480D01*
X139368831Y-71061812D01*
X139368830Y-71061811D01*
X139331783Y-71040422D01*
X139269076Y-71023620D01*
X139179057Y-70999499D01*
X139020943Y-70999499D01*
X139013347Y-70999499D01*
X139013331Y-70999500D01*
X137300097Y-70999500D01*
X137233058Y-70979815D01*
X137212416Y-70963181D01*
X136993416Y-70744181D01*
X136959931Y-70682858D01*
X136964915Y-70613166D01*
X137006787Y-70557233D01*
X137072251Y-70532816D01*
X137081097Y-70532500D01*
X138598221Y-70532500D01*
X138598222Y-70532499D01*
X138730078Y-70506272D01*
X138854285Y-70454823D01*
X138966068Y-70380132D01*
X139061132Y-70285068D01*
X139135823Y-70173285D01*
X139187272Y-70049078D01*
X139213500Y-69917220D01*
X139213500Y-69782780D01*
X139187272Y-69650922D01*
X139154767Y-69572450D01*
X139147299Y-69502984D01*
X139154765Y-69477554D01*
X139187272Y-69399078D01*
X139213500Y-69267220D01*
X139213500Y-69132780D01*
X139187272Y-69000922D01*
X139154767Y-68922450D01*
X139147299Y-68852984D01*
X139154765Y-68827554D01*
X139187272Y-68749078D01*
X139213500Y-68617220D01*
X139213500Y-68482780D01*
X139187272Y-68350922D01*
X139154767Y-68272450D01*
X139147299Y-68202984D01*
X139154765Y-68177554D01*
X139187272Y-68099078D01*
X139213500Y-67967220D01*
X139213500Y-67832780D01*
X139187272Y-67700922D01*
X139154767Y-67622450D01*
X139147299Y-67552984D01*
X139154765Y-67527554D01*
X139187272Y-67449078D01*
X139213500Y-67317220D01*
X139213500Y-67182780D01*
X139187272Y-67050922D01*
X139154767Y-66972450D01*
X139147299Y-66902984D01*
X139154766Y-66877553D01*
X139187272Y-66799078D01*
X139213500Y-66667220D01*
X139213500Y-66532780D01*
X139187272Y-66400922D01*
X139154767Y-66322450D01*
X139151486Y-66291936D01*
X139146040Y-66261745D01*
X139147588Y-66255677D01*
X139147299Y-66252984D01*
X139154766Y-66227551D01*
X139183314Y-66158632D01*
X139227154Y-66104231D01*
X139293449Y-66082166D01*
X139361148Y-66099445D01*
G37*
%TD.AperFunction*%
%TA.AperFunction,Conductor*%
G36*
X133305091Y-47074185D02*
G01*
X133350846Y-47126989D01*
X133360790Y-47196147D01*
X133331765Y-47259703D01*
X133296505Y-47287858D01*
X133045279Y-47422140D01*
X133045261Y-47422151D01*
X132742964Y-47624140D01*
X132742950Y-47624150D01*
X132461893Y-47854807D01*
X132204807Y-48111893D01*
X131974150Y-48392950D01*
X131974140Y-48392964D01*
X131772151Y-48695261D01*
X131772140Y-48695279D01*
X131600756Y-49015916D01*
X131600754Y-49015921D01*
X131461614Y-49351834D01*
X131356067Y-49699776D01*
X131356064Y-49699787D01*
X131285137Y-50056369D01*
X131257628Y-50335679D01*
X131249500Y-50418206D01*
X131249500Y-50781794D01*
X131256244Y-50850269D01*
X131285137Y-51143630D01*
X131356064Y-51500212D01*
X131356067Y-51500223D01*
X131461614Y-51848165D01*
X131600754Y-52184078D01*
X131600756Y-52184083D01*
X131772140Y-52504720D01*
X131772151Y-52504738D01*
X131974140Y-52807035D01*
X131974150Y-52807049D01*
X132204807Y-53088106D01*
X132461893Y-53345192D01*
X132461898Y-53345196D01*
X132461899Y-53345197D01*
X132742956Y-53575854D01*
X133045268Y-53777853D01*
X133045277Y-53777858D01*
X133045279Y-53777859D01*
X133365916Y-53949243D01*
X133365918Y-53949243D01*
X133365924Y-53949247D01*
X133701836Y-54088386D01*
X134049767Y-54193930D01*
X134049773Y-54193931D01*
X134049776Y-54193932D01*
X134049787Y-54193935D01*
X134406369Y-54264862D01*
X134768206Y-54300500D01*
X134768209Y-54300500D01*
X135131791Y-54300500D01*
X135131794Y-54300500D01*
X135493631Y-54264862D01*
X135563045Y-54251054D01*
X135850212Y-54193935D01*
X135850223Y-54193932D01*
X135850223Y-54193931D01*
X135850233Y-54193930D01*
X136198164Y-54088386D01*
X136534076Y-53949247D01*
X136854732Y-53777853D01*
X137157044Y-53575854D01*
X137438101Y-53345197D01*
X137695197Y-53088101D01*
X137925854Y-52807044D01*
X138127853Y-52504732D01*
X138299247Y-52184076D01*
X138438386Y-51848164D01*
X138543930Y-51500233D01*
X138543932Y-51500223D01*
X138543935Y-51500212D01*
X138614862Y-51143630D01*
X138614862Y-51143628D01*
X138619305Y-51098521D01*
X138619305Y-51098520D01*
X138628173Y-51008484D01*
X138650500Y-50781794D01*
X138650500Y-50418206D01*
X138614862Y-50056369D01*
X138598387Y-49973542D01*
X138543935Y-49699787D01*
X138543932Y-49699776D01*
X138543931Y-49699773D01*
X138543930Y-49699767D01*
X138438386Y-49351836D01*
X138299247Y-49015924D01*
X138197563Y-48825687D01*
X138127859Y-48695279D01*
X138127858Y-48695277D01*
X138127853Y-48695268D01*
X137925854Y-48392956D01*
X137695197Y-48111899D01*
X137695196Y-48111898D01*
X137695192Y-48111893D01*
X137438106Y-47854807D01*
X137157049Y-47624150D01*
X137157048Y-47624149D01*
X137157044Y-47624146D01*
X136854732Y-47422147D01*
X136854727Y-47422144D01*
X136854720Y-47422140D01*
X136603495Y-47287858D01*
X136553651Y-47238896D01*
X136538190Y-47170758D01*
X136562022Y-47105079D01*
X136617579Y-47062710D01*
X136661948Y-47054500D01*
X152736113Y-47054500D01*
X152803152Y-47074185D01*
X152823794Y-47090819D01*
X154909181Y-49176205D01*
X154942666Y-49237528D01*
X154945500Y-49263886D01*
X154945500Y-54036113D01*
X154925815Y-54103152D01*
X154909181Y-54123794D01*
X154173794Y-54859181D01*
X154112471Y-54892666D01*
X154086113Y-54895500D01*
X152215019Y-54895500D01*
X152147980Y-54875815D01*
X152107632Y-54833501D01*
X152063690Y-54757392D01*
X152000273Y-54647550D01*
X151856592Y-54460301D01*
X151856587Y-54460295D01*
X151689704Y-54293412D01*
X151689697Y-54293406D01*
X151502454Y-54149730D01*
X151502453Y-54149729D01*
X151502450Y-54149727D01*
X151420957Y-54102677D01*
X151298056Y-54031719D01*
X151298045Y-54031714D01*
X151079993Y-53941394D01*
X150852010Y-53880306D01*
X150618020Y-53849501D01*
X150618017Y-53849500D01*
X150618011Y-53849500D01*
X150381989Y-53849500D01*
X150381983Y-53849500D01*
X150381979Y-53849501D01*
X150147989Y-53880306D01*
X149920006Y-53941394D01*
X149701954Y-54031714D01*
X149701943Y-54031719D01*
X149497545Y-54149730D01*
X149310302Y-54293406D01*
X149310295Y-54293412D01*
X149143412Y-54460295D01*
X149143406Y-54460302D01*
X148999730Y-54647545D01*
X148881719Y-54851943D01*
X148881714Y-54851954D01*
X148791394Y-55070006D01*
X148730306Y-55297989D01*
X148699501Y-55531979D01*
X148699500Y-55531989D01*
X148699500Y-55768011D01*
X148730307Y-56002014D01*
X148786929Y-56213330D01*
X148791394Y-56229993D01*
X148881714Y-56448045D01*
X148881719Y-56448056D01*
X148928164Y-56528500D01*
X148999727Y-56652450D01*
X148999729Y-56652453D01*
X148999730Y-56652454D01*
X149143406Y-56839697D01*
X149143412Y-56839704D01*
X149237527Y-56933819D01*
X149271012Y-56995142D01*
X149266028Y-57064834D01*
X149224156Y-57120767D01*
X149158692Y-57145184D01*
X149149846Y-57145500D01*
X145955446Y-57145500D01*
X145955426Y-57145499D01*
X145949312Y-57145499D01*
X145800688Y-57145499D01*
X145800686Y-57145499D01*
X145679105Y-57169684D01*
X145664540Y-57172581D01*
X145654918Y-57174495D01*
X145654917Y-57174495D01*
X145598045Y-57198052D01*
X145598045Y-57198053D01*
X145517616Y-57231368D01*
X145517609Y-57231371D01*
X145394033Y-57313941D01*
X145349370Y-57358605D01*
X145288941Y-57419034D01*
X145288939Y-57419036D01*
X144850181Y-57857793D01*
X144788858Y-57891278D01*
X144719166Y-57886294D01*
X144674819Y-57857793D01*
X144430968Y-57613942D01*
X144307392Y-57531372D01*
X144307391Y-57531371D01*
X144307389Y-57531370D01*
X144307386Y-57531368D01*
X144307381Y-57531366D01*
X144228723Y-57498785D01*
X144228713Y-57498781D01*
X144224902Y-57497203D01*
X144170080Y-57474495D01*
X144145894Y-57469684D01*
X144138000Y-57468113D01*
X144137998Y-57468113D01*
X144024314Y-57445499D01*
X144024312Y-57445499D01*
X143875688Y-57445499D01*
X143869574Y-57445499D01*
X143869554Y-57445500D01*
X139562407Y-57445500D01*
X139495368Y-57425815D01*
X139449613Y-57373011D01*
X139444701Y-57360504D01*
X139444072Y-57358605D01*
X139434814Y-57330666D01*
X139342712Y-57181344D01*
X139218656Y-57057288D01*
X139069334Y-56965186D01*
X138902797Y-56910001D01*
X138902795Y-56910000D01*
X138800010Y-56899500D01*
X135699998Y-56899500D01*
X135699981Y-56899501D01*
X135597203Y-56910000D01*
X135597200Y-56910001D01*
X135430668Y-56965185D01*
X135430659Y-56965189D01*
X135289596Y-57052198D01*
X135222204Y-57070638D01*
X135155541Y-57049715D01*
X135110771Y-56996073D01*
X135100500Y-56946659D01*
X135100500Y-56528500D01*
X135120185Y-56461461D01*
X135172989Y-56415706D01*
X135224500Y-56404500D01*
X144119554Y-56404500D01*
X144119574Y-56404501D01*
X144125688Y-56404501D01*
X144274313Y-56404501D01*
X144302849Y-56398824D01*
X144402223Y-56379057D01*
X144420080Y-56375505D01*
X144476955Y-56351946D01*
X144557389Y-56318630D01*
X144680966Y-56236059D01*
X149820812Y-51096211D01*
X149882133Y-51062728D01*
X149940581Y-51064118D01*
X150147986Y-51119693D01*
X150381989Y-51150500D01*
X150381996Y-51150500D01*
X150618004Y-51150500D01*
X150618011Y-51150500D01*
X150852014Y-51119693D01*
X151079993Y-51058606D01*
X151298049Y-50968284D01*
X151502450Y-50850273D01*
X151689699Y-50706592D01*
X151856592Y-50539699D01*
X152000273Y-50352450D01*
X152118284Y-50148049D01*
X152208606Y-49929993D01*
X152269693Y-49702014D01*
X152300500Y-49468011D01*
X152300500Y-49231989D01*
X152269693Y-48997986D01*
X152208606Y-48770007D01*
X152118284Y-48551951D01*
X152118282Y-48551948D01*
X152118280Y-48551943D01*
X152076118Y-48478918D01*
X152000273Y-48347550D01*
X151856592Y-48160301D01*
X151856587Y-48160295D01*
X151689704Y-47993412D01*
X151689697Y-47993406D01*
X151502454Y-47849730D01*
X151502453Y-47849729D01*
X151502450Y-47849727D01*
X151420957Y-47802677D01*
X151298056Y-47731719D01*
X151298045Y-47731714D01*
X151079993Y-47641394D01*
X151015600Y-47624140D01*
X150852014Y-47580307D01*
X150852013Y-47580306D01*
X150852010Y-47580306D01*
X150618020Y-47549501D01*
X150618017Y-47549500D01*
X150618011Y-47549500D01*
X150381989Y-47549500D01*
X150381983Y-47549500D01*
X150381979Y-47549501D01*
X150147989Y-47580306D01*
X149920006Y-47641394D01*
X149701954Y-47731714D01*
X149701943Y-47731719D01*
X149497545Y-47849730D01*
X149310302Y-47993406D01*
X149310295Y-47993412D01*
X149143412Y-48160295D01*
X149143406Y-48160302D01*
X148999730Y-48347545D01*
X148881719Y-48551943D01*
X148881714Y-48551954D01*
X148791394Y-48770006D01*
X148730306Y-48997989D01*
X148699501Y-49231979D01*
X148699500Y-49231995D01*
X148699500Y-49468004D01*
X148699501Y-49468020D01*
X148730013Y-49699787D01*
X148730307Y-49702014D01*
X148785879Y-49909414D01*
X148784217Y-49979262D01*
X148753786Y-50029187D01*
X144981298Y-53801676D01*
X144919975Y-53835161D01*
X144850283Y-53830177D01*
X144794350Y-53788305D01*
X144769933Y-53722841D01*
X144784785Y-53654568D01*
X144795241Y-53638509D01*
X144899849Y-53502180D01*
X144899855Y-53502171D01*
X145017834Y-53297828D01*
X145017839Y-53297819D01*
X145108129Y-53079837D01*
X145169200Y-52851914D01*
X145199999Y-52617985D01*
X145200000Y-52617971D01*
X145200000Y-52382028D01*
X145199999Y-52382014D01*
X145169200Y-52148085D01*
X145108129Y-51920162D01*
X145017839Y-51702180D01*
X145017834Y-51702171D01*
X144899855Y-51497828D01*
X144899854Y-51497827D01*
X144837277Y-51416275D01*
X144115846Y-52137706D01*
X144108951Y-52121058D01*
X144021401Y-51990030D01*
X143909970Y-51878599D01*
X143778942Y-51791049D01*
X143762293Y-51784152D01*
X144483723Y-51062721D01*
X144402172Y-51000145D01*
X144402171Y-51000144D01*
X144197828Y-50882165D01*
X144197819Y-50882160D01*
X143979836Y-50791870D01*
X143979838Y-50791870D01*
X143751914Y-50730799D01*
X143517985Y-50700000D01*
X143282014Y-50700000D01*
X143048085Y-50730799D01*
X142820162Y-50791870D01*
X142602180Y-50882160D01*
X142602171Y-50882165D01*
X142397828Y-51000144D01*
X142397818Y-51000150D01*
X142316275Y-51062720D01*
X142316275Y-51062721D01*
X143037706Y-51784152D01*
X143021058Y-51791049D01*
X142890030Y-51878599D01*
X142778599Y-51990030D01*
X142691049Y-52121058D01*
X142684153Y-52137706D01*
X141962721Y-51416275D01*
X141962720Y-51416275D01*
X141900150Y-51497818D01*
X141900144Y-51497828D01*
X141782165Y-51702171D01*
X141782160Y-51702180D01*
X141691870Y-51920162D01*
X141630799Y-52148085D01*
X141600000Y-52382014D01*
X141600000Y-52617985D01*
X141630799Y-52851914D01*
X141691870Y-53079837D01*
X141782160Y-53297819D01*
X141782165Y-53297828D01*
X141900144Y-53502171D01*
X141900145Y-53502172D01*
X141962721Y-53583723D01*
X142684152Y-52862292D01*
X142691049Y-52878942D01*
X142778599Y-53009970D01*
X142890030Y-53121401D01*
X143021058Y-53208951D01*
X143037706Y-53215846D01*
X142316275Y-53937277D01*
X142397827Y-53999854D01*
X142397828Y-53999855D01*
X142602171Y-54117834D01*
X142602180Y-54117839D01*
X142820163Y-54208129D01*
X142820161Y-54208129D01*
X143048085Y-54269200D01*
X143282014Y-54299999D01*
X143282029Y-54300000D01*
X143517971Y-54300000D01*
X143517985Y-54299999D01*
X143751914Y-54269200D01*
X143979837Y-54208129D01*
X144197819Y-54117839D01*
X144197828Y-54117834D01*
X144402171Y-53999855D01*
X144402182Y-53999848D01*
X144538508Y-53895241D01*
X144603677Y-53870046D01*
X144672122Y-53884084D01*
X144722112Y-53932898D01*
X144737776Y-54000989D01*
X144714140Y-54066739D01*
X144701676Y-54081297D01*
X143923794Y-54859181D01*
X143862471Y-54892666D01*
X143836113Y-54895500D01*
X121777019Y-54895500D01*
X121709980Y-54875815D01*
X121669632Y-54833501D01*
X121625690Y-54757392D01*
X121562273Y-54647550D01*
X121418592Y-54460301D01*
X121418587Y-54460295D01*
X121251704Y-54293412D01*
X121251697Y-54293406D01*
X121064454Y-54149730D01*
X121064453Y-54149729D01*
X121064450Y-54149727D01*
X120982957Y-54102677D01*
X120860056Y-54031719D01*
X120860045Y-54031714D01*
X120792862Y-54003886D01*
X120641993Y-53941394D01*
X120414010Y-53880306D01*
X120180020Y-53849501D01*
X120180017Y-53849500D01*
X120180011Y-53849500D01*
X119943989Y-53849500D01*
X119943983Y-53849500D01*
X119943979Y-53849501D01*
X119709989Y-53880306D01*
X119482006Y-53941394D01*
X119263954Y-54031714D01*
X119263943Y-54031719D01*
X119059545Y-54149730D01*
X118872302Y-54293406D01*
X118872295Y-54293412D01*
X118705412Y-54460295D01*
X118705406Y-54460302D01*
X118561730Y-54647545D01*
X118443719Y-54851943D01*
X118443714Y-54851954D01*
X118353394Y-55070006D01*
X118292306Y-55297989D01*
X118261501Y-55531979D01*
X118261500Y-55531989D01*
X118261500Y-55768011D01*
X118292307Y-56002014D01*
X118348929Y-56213330D01*
X118353394Y-56229993D01*
X118443714Y-56448045D01*
X118443719Y-56448056D01*
X118490164Y-56528500D01*
X118561727Y-56652450D01*
X118561729Y-56652453D01*
X118561730Y-56652454D01*
X118705406Y-56839697D01*
X118705412Y-56839704D01*
X118872295Y-57006587D01*
X118872302Y-57006593D01*
X118955767Y-57070638D01*
X119059550Y-57150273D01*
X119190918Y-57226118D01*
X119263943Y-57268280D01*
X119263948Y-57268282D01*
X119263951Y-57268284D01*
X119482007Y-57358606D01*
X119709986Y-57419693D01*
X119943989Y-57450500D01*
X119943996Y-57450500D01*
X120180004Y-57450500D01*
X120180011Y-57450500D01*
X120414014Y-57419693D01*
X120641993Y-57358606D01*
X120860049Y-57268284D01*
X121064450Y-57150273D01*
X121251699Y-57006592D01*
X121418592Y-56839699D01*
X121562273Y-56652450D01*
X121669632Y-56466499D01*
X121720199Y-56418284D01*
X121777019Y-56404500D01*
X133775500Y-56404500D01*
X133842539Y-56424185D01*
X133888294Y-56476989D01*
X133899500Y-56528500D01*
X133899500Y-56885565D01*
X133879815Y-56952604D01*
X133827011Y-56998359D01*
X133757853Y-57008303D01*
X133710405Y-56991104D01*
X133669133Y-56965648D01*
X133669119Y-56965641D01*
X133502697Y-56910494D01*
X133502690Y-56910493D01*
X133399986Y-56900000D01*
X132100000Y-56900000D01*
X132100000Y-59499999D01*
X133399972Y-59499999D01*
X133399986Y-59499998D01*
X133502697Y-59489505D01*
X133669119Y-59434358D01*
X133669130Y-59434353D01*
X133710403Y-59408896D01*
X133777795Y-59390455D01*
X133844459Y-59411377D01*
X133889229Y-59465019D01*
X133899500Y-59514434D01*
X133899500Y-63799903D01*
X133890855Y-63829343D01*
X133884332Y-63859330D01*
X133880577Y-63864345D01*
X133879815Y-63866942D01*
X133863181Y-63887584D01*
X133737584Y-64013181D01*
X133676261Y-64046666D01*
X133649903Y-64049500D01*
X133595383Y-64049500D01*
X133528344Y-64029815D01*
X133482589Y-63977011D01*
X133471980Y-63937653D01*
X133471500Y-63932785D01*
X133471500Y-63932780D01*
X133445272Y-63800922D01*
X133393823Y-63676715D01*
X133393821Y-63676712D01*
X133393819Y-63676708D01*
X133319132Y-63564932D01*
X133319129Y-63564928D01*
X133224071Y-63469870D01*
X133224067Y-63469867D01*
X133112291Y-63395180D01*
X133112281Y-63395175D01*
X132988078Y-63343728D01*
X132988070Y-63343726D01*
X132856224Y-63317500D01*
X132856220Y-63317500D01*
X131343780Y-63317500D01*
X131343775Y-63317500D01*
X131211929Y-63343726D01*
X131211921Y-63343728D01*
X131100066Y-63390061D01*
X131052613Y-63399500D01*
X130800097Y-63399500D01*
X130733058Y-63379815D01*
X130712416Y-63363181D01*
X126149221Y-58799986D01*
X129600001Y-58799986D01*
X129610494Y-58902697D01*
X129665641Y-59069119D01*
X129665643Y-59069124D01*
X129757684Y-59218345D01*
X129881654Y-59342315D01*
X130030875Y-59434356D01*
X130030880Y-59434358D01*
X130197302Y-59489505D01*
X130197309Y-59489506D01*
X130300019Y-59499999D01*
X131599999Y-59499999D01*
X131600000Y-59499998D01*
X131600000Y-58450000D01*
X129600001Y-58450000D01*
X129600001Y-58799986D01*
X126149221Y-58799986D01*
X125587590Y-58238355D01*
X125587588Y-58238352D01*
X125468717Y-58119481D01*
X125468716Y-58119480D01*
X125381904Y-58069360D01*
X125381904Y-58069359D01*
X125381900Y-58069358D01*
X125331785Y-58040423D01*
X125179057Y-57999499D01*
X125020943Y-57999499D01*
X125013347Y-57999499D01*
X125013331Y-57999500D01*
X118400097Y-57999500D01*
X118333058Y-57979815D01*
X118312416Y-57963181D01*
X117949248Y-57600013D01*
X129600000Y-57600013D01*
X129600000Y-57950000D01*
X131600000Y-57950000D01*
X131600000Y-56900000D01*
X130300028Y-56900000D01*
X130300012Y-56900001D01*
X130197302Y-56910494D01*
X130030880Y-56965641D01*
X130030875Y-56965643D01*
X129881654Y-57057684D01*
X129757684Y-57181654D01*
X129665643Y-57330875D01*
X129665641Y-57330880D01*
X129610494Y-57497302D01*
X129610493Y-57497309D01*
X129600000Y-57600013D01*
X117949248Y-57600013D01*
X116436819Y-56087584D01*
X116403334Y-56026261D01*
X116400500Y-55999903D01*
X116400500Y-53912096D01*
X116420185Y-53845057D01*
X116436814Y-53824420D01*
X117879219Y-52382014D01*
X125362000Y-52382014D01*
X125362000Y-52617985D01*
X125392799Y-52851914D01*
X125453870Y-53079837D01*
X125544160Y-53297819D01*
X125544165Y-53297828D01*
X125662144Y-53502171D01*
X125662145Y-53502172D01*
X125724721Y-53583723D01*
X126446152Y-52862292D01*
X126453049Y-52878942D01*
X126540599Y-53009970D01*
X126652030Y-53121401D01*
X126783058Y-53208951D01*
X126799706Y-53215846D01*
X126078275Y-53937277D01*
X126159827Y-53999854D01*
X126159828Y-53999855D01*
X126364171Y-54117834D01*
X126364180Y-54117839D01*
X126582163Y-54208129D01*
X126582161Y-54208129D01*
X126810085Y-54269200D01*
X127044014Y-54299999D01*
X127044029Y-54300000D01*
X127279971Y-54300000D01*
X127279985Y-54299999D01*
X127513914Y-54269200D01*
X127741837Y-54208129D01*
X127959819Y-54117839D01*
X127959828Y-54117834D01*
X128164181Y-53999850D01*
X128245723Y-53937279D01*
X128245723Y-53937276D01*
X127524293Y-53215847D01*
X127540942Y-53208951D01*
X127671970Y-53121401D01*
X127783401Y-53009970D01*
X127870951Y-52878942D01*
X127877846Y-52862293D01*
X128599276Y-53583723D01*
X128599279Y-53583723D01*
X128661850Y-53502181D01*
X128779834Y-53297828D01*
X128779839Y-53297819D01*
X128870129Y-53079837D01*
X128931200Y-52851914D01*
X128961999Y-52617985D01*
X128962000Y-52617971D01*
X128962000Y-52382028D01*
X128961999Y-52382014D01*
X128931200Y-52148085D01*
X128870129Y-51920162D01*
X128779839Y-51702180D01*
X128779834Y-51702171D01*
X128661855Y-51497828D01*
X128661854Y-51497827D01*
X128599277Y-51416275D01*
X127877846Y-52137705D01*
X127870951Y-52121058D01*
X127783401Y-51990030D01*
X127671970Y-51878599D01*
X127540942Y-51791049D01*
X127524293Y-51784152D01*
X128245723Y-51062721D01*
X128164172Y-51000145D01*
X128164171Y-51000144D01*
X127959828Y-50882165D01*
X127959819Y-50882160D01*
X127741836Y-50791870D01*
X127741838Y-50791870D01*
X127513914Y-50730799D01*
X127279985Y-50700000D01*
X127044014Y-50700000D01*
X126810085Y-50730799D01*
X126582162Y-50791870D01*
X126364180Y-50882160D01*
X126364171Y-50882165D01*
X126159828Y-51000144D01*
X126159818Y-51000150D01*
X126078275Y-51062720D01*
X126078275Y-51062721D01*
X126799706Y-51784152D01*
X126783058Y-51791049D01*
X126652030Y-51878599D01*
X126540599Y-51990030D01*
X126453049Y-52121058D01*
X126446153Y-52137706D01*
X125724721Y-51416275D01*
X125724720Y-51416275D01*
X125662150Y-51497818D01*
X125662144Y-51497828D01*
X125544165Y-51702171D01*
X125544160Y-51702180D01*
X125453870Y-51920162D01*
X125392799Y-52148085D01*
X125362000Y-52382014D01*
X117879219Y-52382014D01*
X119225871Y-51035362D01*
X119287192Y-51001879D01*
X119356884Y-51006863D01*
X119361003Y-51008484D01*
X119482007Y-51058606D01*
X119709986Y-51119693D01*
X119943989Y-51150500D01*
X119943996Y-51150500D01*
X120180004Y-51150500D01*
X120180011Y-51150500D01*
X120414014Y-51119693D01*
X120641993Y-51058606D01*
X120839545Y-50976777D01*
X120860040Y-50968288D01*
X120860043Y-50968286D01*
X120860049Y-50968284D01*
X121064450Y-50850273D01*
X121251699Y-50706592D01*
X121418592Y-50539699D01*
X121562273Y-50352450D01*
X121680284Y-50148049D01*
X121770606Y-49929993D01*
X121831693Y-49702014D01*
X121862500Y-49468011D01*
X121862500Y-49231989D01*
X121831693Y-48997986D01*
X121776119Y-48790581D01*
X121777782Y-48720735D01*
X121808211Y-48670812D01*
X123388205Y-47090819D01*
X123449528Y-47057334D01*
X123475886Y-47054500D01*
X133238052Y-47054500D01*
X133305091Y-47074185D01*
G37*
%TD.AperFunction*%
%TD*%
M02*
