%TF.GenerationSoftware,KiCad,Pcbnew,10.0.1*%
%TF.CreationDate,2026-05-15T16:38:46+02:00*%
%TF.ProjectId,ADC_Silence_detector,4144435f-5369-46c6-956e-63655f646574,rev?*%
%TF.SameCoordinates,Original*%
%TF.FileFunction,Soldermask,Top*%
%TF.FilePolarity,Negative*%
%FSLAX46Y46*%
G04 Gerber Fmt 4.6, Leading zero omitted, Abs format (unit mm)*
G04 Created by KiCad (PCBNEW 10.0.1) date 2026-05-15 16:38:46*
%MOMM*%
%LPD*%
G01*
G04 APERTURE LIST*
G04 Aperture macros list*
%AMRoundRect*
0 Rectangle with rounded corners*
0 $1 Rounding radius*
0 $2 $3 $4 $5 $6 $7 $8 $9 X,Y pos of 4 corners*
0 Add a 4 corners polygon primitive as box body*
4,1,4,$2,$3,$4,$5,$6,$7,$8,$9,$2,$3,0*
0 Add four circle primitives for the rounded corners*
1,1,$1+$1,$2,$3*
1,1,$1+$1,$4,$5*
1,1,$1+$1,$6,$7*
1,1,$1+$1,$8,$9*
0 Add four rect primitives between the rounded corners*
20,1,$1+$1,$2,$3,$4,$5,0*
20,1,$1+$1,$4,$5,$6,$7,0*
20,1,$1+$1,$6,$7,$8,$9,0*
20,1,$1+$1,$8,$9,$2,$3,0*%
G04 Aperture macros list end*
%ADD10C,6.400000*%
%ADD11RoundRect,0.250000X0.412500X0.650000X-0.412500X0.650000X-0.412500X-0.650000X0.412500X-0.650000X0*%
%ADD12RoundRect,0.250000X0.650000X-0.412500X0.650000X0.412500X-0.650000X0.412500X-0.650000X-0.412500X0*%
%ADD13RoundRect,0.250000X-0.412500X-0.650000X0.412500X-0.650000X0.412500X0.650000X-0.412500X0.650000X0*%
%ADD14R,1.700000X1.700000*%
%ADD15C,1.700000*%
%ADD16RoundRect,0.250000X-0.400000X-0.625000X0.400000X-0.625000X0.400000X0.625000X-0.400000X0.625000X0*%
%ADD17RoundRect,0.250000X0.512000X-0.512000X0.512000X0.512000X-0.512000X0.512000X-0.512000X-0.512000X0*%
%ADD18C,1.524000*%
%ADD19C,3.500000*%
%ADD20RoundRect,0.150000X0.512500X0.150000X-0.512500X0.150000X-0.512500X-0.150000X0.512500X-0.150000X0*%
%ADD21RoundRect,0.125000X-1.125000X0.125000X-1.125000X-0.125000X1.125000X-0.125000X1.125000X0.125000X0*%
%ADD22RoundRect,0.250000X-1.000000X0.750000X-1.000000X-0.750000X1.000000X-0.750000X1.000000X0.750000X0*%
%ADD23O,1.742000X0.364000*%
%ADD24RoundRect,0.250000X1.500000X0.550000X-1.500000X0.550000X-1.500000X-0.550000X1.500000X-0.550000X0*%
%ADD25RoundRect,0.162500X-0.617500X-0.162500X0.617500X-0.162500X0.617500X0.162500X-0.617500X0.162500X0*%
%ADD26C,2.600000*%
G04 APERTURE END LIST*
D10*
%TO.C,REF\u002A\u002A*%
X134950000Y-50600000D03*
%TD*%
%TO.C,REF\u002A\u002A*%
X124550000Y-75900000D03*
%TD*%
D11*
%TO.C,C5*%
X144762500Y-63000000D03*
X141637500Y-63000000D03*
%TD*%
D12*
%TO.C,C3*%
X128200000Y-69862500D03*
X128200000Y-66737500D03*
%TD*%
D13*
%TO.C,C4*%
X141137500Y-70750000D03*
X144262500Y-70750000D03*
%TD*%
D11*
%TO.C,C2*%
X125362500Y-62600000D03*
X122237500Y-62600000D03*
%TD*%
D14*
%TO.C,J4*%
X131860000Y-73800000D03*
D15*
X134400000Y-73800000D03*
X136940000Y-73800000D03*
X139480000Y-73800000D03*
%TD*%
D16*
%TO.C,R1*%
X141850000Y-78200000D03*
X144950000Y-78200000D03*
%TD*%
D17*
%TO.C,J5*%
X147967500Y-73700000D03*
D18*
X147967500Y-71200000D03*
X147967500Y-69200000D03*
X147967500Y-66700000D03*
D19*
X150677500Y-76770000D03*
X150677500Y-63630000D03*
%TD*%
D20*
%TO.C,U3*%
X143937500Y-67900000D03*
X143937500Y-66950000D03*
X143937500Y-66000000D03*
X141662500Y-66000000D03*
X141662500Y-67900000D03*
%TD*%
D21*
%TO.C,J3*%
X117725000Y-70000000D03*
X117725000Y-70800000D03*
X117725000Y-71600000D03*
X117725000Y-72400000D03*
X117725000Y-73200000D03*
D22*
X117725000Y-67200000D03*
X112225000Y-67200000D03*
X117725000Y-76000000D03*
X112225000Y-76000000D03*
%TD*%
D23*
%TO.C,U1*%
X132100000Y-64000000D03*
X132100000Y-64650000D03*
X132100000Y-65300000D03*
X132100000Y-65950000D03*
X132100000Y-66600000D03*
X132100000Y-67250000D03*
X132100000Y-67900000D03*
X132100000Y-68550000D03*
X132100000Y-69200000D03*
X132100000Y-69850000D03*
X137842000Y-69850000D03*
X137842000Y-69200000D03*
X137842000Y-68550000D03*
X137842000Y-67900000D03*
X137842000Y-67250000D03*
X137842000Y-66600000D03*
X137842000Y-65950000D03*
X137842000Y-65300000D03*
X137842000Y-64650000D03*
X137842000Y-64000000D03*
%TD*%
D13*
%TO.C,C1*%
X122237500Y-69600000D03*
X125362500Y-69600000D03*
%TD*%
D24*
%TO.C,C6*%
X137250000Y-58200000D03*
X131850000Y-58200000D03*
%TD*%
D25*
%TO.C,U2*%
X122450000Y-65150000D03*
X122450000Y-66100000D03*
X122450000Y-67050000D03*
X125150000Y-67050000D03*
X125150000Y-65150000D03*
%TD*%
D26*
%TO.C,J2*%
X150500000Y-49350000D03*
X150500000Y-55650000D03*
X143400000Y-52500000D03*
%TD*%
%TO.C,J1*%
X120062000Y-55650000D03*
X120062000Y-49350000D03*
X127162000Y-52500000D03*
%TD*%
M02*
