%TF.GenerationSoftware,KiCad,Pcbnew,10.0.1*%
%TF.CreationDate,2026-05-15T16:38:46+02:00*%
%TF.ProjectId,ADC_Silence_detector,4144435f-5369-46c6-956e-63655f646574,rev?*%
%TF.SameCoordinates,Original*%
%TF.FileFunction,Copper,L2,Bot*%
%TF.FilePolarity,Positive*%
%FSLAX46Y46*%
G04 Gerber Fmt 4.6, Leading zero omitted, Abs format (unit mm)*
G04 Created by KiCad (PCBNEW 10.0.1) date 2026-05-15 16:38:46*
%MOMM*%
%LPD*%
G01*
G04 APERTURE LIST*
G04 Aperture macros list*
%AMRoundRect*
0 Rectangle with rounded corners*
0 $1 Rounding radius*
0 $2 $3 $4 $5 $6 $7 $8 $9 X,Y pos of 4 corners*
0 Add a 4 corners polygon primitive as box body*
4,1,4,$2,$3,$4,$5,$6,$7,$8,$9,$2,$3,0*
0 Add four circle primitives for the rounded corners*
1,1,$1+$1,$2,$3*
1,1,$1+$1,$4,$5*
1,1,$1+$1,$6,$7*
1,1,$1+$1,$8,$9*
0 Add four rect primitives between the rounded corners*
20,1,$1+$1,$2,$3,$4,$5,0*
20,1,$1+$1,$4,$5,$6,$7,0*
20,1,$1+$1,$6,$7,$8,$9,0*
20,1,$1+$1,$8,$9,$2,$3,0*%
G04 Aperture macros list end*
%TA.AperFunction,ComponentPad*%
%ADD10C,6.400000*%
%TD*%
%TA.AperFunction,ComponentPad*%
%ADD11R,1.700000X1.700000*%
%TD*%
%TA.AperFunction,ComponentPad*%
%ADD12C,1.700000*%
%TD*%
%TA.AperFunction,ComponentPad*%
%ADD13RoundRect,0.250000X0.512000X-0.512000X0.512000X0.512000X-0.512000X0.512000X-0.512000X-0.512000X0*%
%TD*%
%TA.AperFunction,ComponentPad*%
%ADD14C,1.524000*%
%TD*%
%TA.AperFunction,ComponentPad*%
%ADD15C,3.500000*%
%TD*%
%TA.AperFunction,ComponentPad*%
%ADD16C,2.600000*%
%TD*%
%TA.AperFunction,ViaPad*%
%ADD17C,0.600000*%
%TD*%
%TA.AperFunction,Conductor*%
%ADD18C,0.200000*%
%TD*%
G04 APERTURE END LIST*
D10*
%TO.P,REF\u002A\u002A,1*%
%TO.N,N/C*%
X134950000Y-50600000D03*
%TD*%
%TO.P,REF\u002A\u002A,1*%
%TO.N,N/C*%
X124550000Y-75900000D03*
%TD*%
D11*
%TO.P,J4,1,Pin_1_1*%
%TO.N,+3.3V*%
X131860000Y-73800000D03*
D12*
%TO.P,J4,2,Pin_2_2*%
%TO.N,GND*%
X134400000Y-73800000D03*
%TO.P,J4,3,Pin_3_3*%
%TO.N,/DIO*%
X136940000Y-73800000D03*
%TO.P,J4,4,Pin_4_4*%
%TO.N,/DCK*%
X139480000Y-73800000D03*
%TD*%
D13*
%TO.P,J5,1,VBUS_1*%
%TO.N,+VOUT*%
X147967500Y-73700000D03*
D14*
%TO.P,J5,2,D-_2*%
%TO.N,unconnected-(J5-D--Pad2)*%
X147967500Y-71200000D03*
%TO.P,J5,3,D+_3*%
%TO.N,unconnected-(J5-D+-Pad3)*%
X147967500Y-69200000D03*
%TO.P,J5,4,GND_4*%
%TO.N,GND*%
X147967500Y-66700000D03*
D15*
%TO.P,J5,SH,Shield_SH*%
X150677500Y-76770000D03*
X150677500Y-63630000D03*
%TD*%
D16*
%TO.P,J2,1,IN1_1*%
%TO.N,/Channel_2*%
X150500000Y-49350000D03*
%TO.P,J2,2,IN2_2*%
%TO.N,/Channel_1*%
X150500000Y-55650000D03*
%TO.P,J2,3,EXT_3*%
%TO.N,GND*%
X143400000Y-52500000D03*
%TD*%
%TO.P,J1,1,IN1_1*%
%TO.N,/Channel_2*%
X120062000Y-55650000D03*
%TO.P,J1,2,IN2_2*%
%TO.N,/Channel_1*%
X120062000Y-49350000D03*
%TO.P,J1,3,EXT_3*%
%TO.N,GND*%
X127162000Y-52500000D03*
%TD*%
D17*
%TO.N,+3.3V*%
X128200000Y-64200000D03*
X129837500Y-69862500D03*
%TO.N,GND*%
X141350000Y-75300000D03*
X131850000Y-60650000D03*
X143200000Y-64550000D03*
X156800000Y-61400000D03*
X118000000Y-64050000D03*
X153350000Y-59100000D03*
X140350000Y-78750000D03*
X156550000Y-74750000D03*
X113500000Y-73250000D03*
X120250000Y-68100000D03*
X148400000Y-61700000D03*
X117050000Y-59900000D03*
X114100000Y-62100000D03*
X119450000Y-78600000D03*
X120500000Y-75900000D03*
X123400000Y-53500000D03*
X137900000Y-78600000D03*
X141550000Y-73900000D03*
X115100000Y-67800000D03*
X143150000Y-69150000D03*
X120250000Y-66800000D03*
X115550000Y-78600000D03*
X157200000Y-45800000D03*
X112100000Y-73000000D03*
X157750000Y-58200000D03*
X131950000Y-75700000D03*
X130700000Y-75600000D03*
X132050000Y-78550000D03*
X113450000Y-69600000D03*
X139950000Y-68300000D03*
X143700000Y-75200000D03*
X132850000Y-71300000D03*
X112850000Y-57000000D03*
X139650000Y-69300000D03*
X151150000Y-67750000D03*
X122000000Y-59650000D03*
X120400000Y-52300000D03*
X144500000Y-72800000D03*
X147550000Y-77300000D03*
X154050000Y-75950000D03*
X147150000Y-63850000D03*
X139950000Y-61300000D03*
X141800000Y-59650000D03*
X158700000Y-55250000D03*
X115050000Y-58600000D03*
X135850000Y-60100000D03*
X147150000Y-56350000D03*
X115150000Y-75050000D03*
X133050000Y-54000000D03*
X110800000Y-62650000D03*
X129900000Y-78400000D03*
X120650000Y-78200000D03*
X151700000Y-73600000D03*
X137800000Y-61000000D03*
X121450000Y-78850000D03*
X139550000Y-75650000D03*
X143600000Y-72850000D03*
X111350000Y-71800000D03*
X143400000Y-56900000D03*
X112400000Y-52500000D03*
X120550000Y-73500000D03*
X157250000Y-72100000D03*
X114000000Y-71600000D03*
X134450000Y-78600000D03*
X129600000Y-53000000D03*
X121600000Y-72300000D03*
X140250000Y-59800000D03*
X119750000Y-68800000D03*
X145400000Y-64700000D03*
X119350000Y-61700000D03*
X129700000Y-71500000D03*
X137150000Y-53850000D03*
X146400000Y-61000000D03*
X118600000Y-46100000D03*
X122950000Y-51900000D03*
X139850000Y-67100000D03*
X134350000Y-75650000D03*
X120400000Y-71850000D03*
X132100000Y-62400000D03*
X115550000Y-71950000D03*
X122200000Y-53500000D03*
X133750000Y-71900000D03*
X157100000Y-64000000D03*
X136250000Y-78550000D03*
X145800000Y-49700000D03*
X147850000Y-75650000D03*
X114200000Y-64250000D03*
X139850000Y-53000000D03*
X144250000Y-69100000D03*
X130450000Y-62000000D03*
X142600000Y-70000000D03*
X141000000Y-49950000D03*
X150950000Y-70450000D03*
X128200000Y-78050000D03*
X144650000Y-74150000D03*
X129300000Y-49200000D03*
X136200000Y-75550000D03*
X159100000Y-49450000D03*
X142700000Y-48800000D03*
X110300000Y-73750000D03*
X147500000Y-78750000D03*
X149600000Y-72600000D03*
X111600000Y-69600000D03*
X126350000Y-49400000D03*
X110800000Y-64050000D03*
X138200000Y-75500000D03*
X115050000Y-48450000D03*
X147400000Y-59000000D03*
X115100000Y-66650000D03*
X154600000Y-70200000D03*
X123800000Y-49700000D03*
X154450000Y-65800000D03*
X112550000Y-78900000D03*
X154700000Y-71900000D03*
X140450000Y-57000000D03*
X141550000Y-64750000D03*
X115050000Y-76850000D03*
X142950000Y-60700000D03*
X153350000Y-61000000D03*
X156350000Y-69500000D03*
X109600000Y-78100000D03*
X143650000Y-73800000D03*
%TO.N,Net-(U3-~{FLG})*%
X145900000Y-65950000D03*
X143450000Y-78100000D03*
%TD*%
%TO.N,+3.3V*%
D18*
X129837500Y-69862500D02*
X129837500Y-65837500D01*
X129837500Y-65837500D02*
X128200000Y-64200000D01*
%TO.N,Net-(U3-~{FLG})*%
X145900000Y-74800000D02*
X143450000Y-77250000D01*
X143450000Y-77250000D02*
X143450000Y-78100000D01*
X145900000Y-65950000D02*
X145900000Y-74800000D01*
%TD*%
%TA.AperFunction,Conductor*%
%TO.N,GND*%
G36*
X147538849Y-66877553D02*
G01*
X147599409Y-66982446D01*
X147685054Y-67068091D01*
X147789947Y-67128651D01*
X147870750Y-67150302D01*
X147268783Y-67752268D01*
X147268783Y-67752269D01*
X147306067Y-67779358D01*
X147423579Y-67839234D01*
X147474375Y-67887209D01*
X147491170Y-67955030D01*
X147468633Y-68021165D01*
X147423579Y-68060204D01*
X147305805Y-68120213D01*
X147145033Y-68237021D01*
X147004521Y-68377533D01*
X146887713Y-68538305D01*
X146797494Y-68715367D01*
X146797493Y-68715370D01*
X146742431Y-68884837D01*
X146702994Y-68942512D01*
X146638635Y-68969711D01*
X146569789Y-68957796D01*
X146518313Y-68910552D01*
X146500500Y-68846519D01*
X146500500Y-67051861D01*
X146520185Y-66984822D01*
X146572989Y-66939067D01*
X146642147Y-66929123D01*
X146705703Y-66958148D01*
X146742431Y-67013543D01*
X146797957Y-67184437D01*
X146888141Y-67361432D01*
X146915230Y-67398715D01*
X146915231Y-67398716D01*
X147517197Y-66796749D01*
X147538849Y-66877553D01*
G37*
%TD.AperFunction*%
%TA.AperFunction,Conductor*%
G36*
X160942539Y-44620185D02*
G01*
X160988294Y-44672989D01*
X160999500Y-44724500D01*
X160999500Y-79375500D01*
X160979815Y-79442539D01*
X160927011Y-79488294D01*
X160875500Y-79499500D01*
X126153301Y-79499500D01*
X126086262Y-79479815D01*
X126040507Y-79427011D01*
X126030563Y-79357853D01*
X126059588Y-79294297D01*
X126105849Y-79260939D01*
X126106353Y-79260729D01*
X126134076Y-79249247D01*
X126454732Y-79077853D01*
X126757044Y-78875854D01*
X127038101Y-78645197D01*
X127295197Y-78388101D01*
X127525854Y-78107044D01*
X127583245Y-78021153D01*
X142649500Y-78021153D01*
X142649500Y-78178846D01*
X142680261Y-78333489D01*
X142680264Y-78333501D01*
X142740602Y-78479172D01*
X142740609Y-78479185D01*
X142828210Y-78610288D01*
X142828213Y-78610292D01*
X142939707Y-78721786D01*
X142939711Y-78721789D01*
X143070814Y-78809390D01*
X143070827Y-78809397D01*
X143216498Y-78869735D01*
X143216503Y-78869737D01*
X143371153Y-78900499D01*
X143371156Y-78900500D01*
X143371158Y-78900500D01*
X143528844Y-78900500D01*
X143528845Y-78900499D01*
X143683497Y-78869737D01*
X143829179Y-78809394D01*
X143960289Y-78721789D01*
X144071789Y-78610289D01*
X144159394Y-78479179D01*
X144197120Y-78388101D01*
X144219735Y-78333501D01*
X144219737Y-78333497D01*
X144250500Y-78178842D01*
X144250500Y-78021158D01*
X144250500Y-78021155D01*
X144250499Y-78021153D01*
X144230378Y-77920000D01*
X144219737Y-77866503D01*
X144206998Y-77835747D01*
X144159397Y-77720827D01*
X144159390Y-77720814D01*
X144083359Y-77607026D01*
X144062481Y-77540348D01*
X144080965Y-77472968D01*
X144098776Y-77450458D01*
X144926701Y-76622533D01*
X148427500Y-76622533D01*
X148427500Y-76917466D01*
X148427501Y-76917483D01*
X148465996Y-77209884D01*
X148465999Y-77209897D01*
X148542335Y-77494790D01*
X148542338Y-77494800D01*
X148655204Y-77767281D01*
X148655209Y-77767292D01*
X148802674Y-78022707D01*
X148802680Y-78022715D01*
X148919277Y-78174667D01*
X149705412Y-77388531D01*
X149800329Y-77519175D01*
X149928325Y-77647171D01*
X150058966Y-77742086D01*
X149272831Y-78528221D01*
X149424784Y-78644819D01*
X149424792Y-78644825D01*
X149680207Y-78792290D01*
X149680218Y-78792295D01*
X149952699Y-78905161D01*
X149952709Y-78905164D01*
X150237602Y-78981500D01*
X150237615Y-78981503D01*
X150530016Y-79019998D01*
X150530034Y-79020000D01*
X150824966Y-79020000D01*
X150824983Y-79019998D01*
X151117384Y-78981503D01*
X151117397Y-78981500D01*
X151402290Y-78905164D01*
X151402300Y-78905161D01*
X151674781Y-78792295D01*
X151674792Y-78792290D01*
X151930207Y-78644825D01*
X151930225Y-78644813D01*
X152082167Y-78528222D01*
X152082167Y-78528220D01*
X151296033Y-77742086D01*
X151426675Y-77647171D01*
X151554671Y-77519175D01*
X151649586Y-77388533D01*
X152435720Y-78174667D01*
X152435722Y-78174667D01*
X152552313Y-78022725D01*
X152552325Y-78022707D01*
X152699790Y-77767292D01*
X152699795Y-77767281D01*
X152812661Y-77494800D01*
X152812664Y-77494790D01*
X152889000Y-77209897D01*
X152889003Y-77209884D01*
X152927498Y-76917483D01*
X152927500Y-76917466D01*
X152927500Y-76622533D01*
X152927498Y-76622516D01*
X152889003Y-76330115D01*
X152889000Y-76330102D01*
X152812664Y-76045209D01*
X152812661Y-76045199D01*
X152699795Y-75772718D01*
X152699790Y-75772707D01*
X152552325Y-75517292D01*
X152552319Y-75517284D01*
X152435721Y-75365331D01*
X151649586Y-76151466D01*
X151554671Y-76020825D01*
X151426675Y-75892829D01*
X151296032Y-75797912D01*
X152082167Y-75011777D01*
X151930215Y-74895180D01*
X151930207Y-74895174D01*
X151674792Y-74747709D01*
X151674781Y-74747704D01*
X151402300Y-74634838D01*
X151402290Y-74634835D01*
X151117397Y-74558499D01*
X151117384Y-74558496D01*
X150824983Y-74520001D01*
X150824966Y-74520000D01*
X150530034Y-74520000D01*
X150530016Y-74520001D01*
X150237615Y-74558496D01*
X150237602Y-74558499D01*
X149952709Y-74634835D01*
X149952699Y-74634838D01*
X149680218Y-74747704D01*
X149680207Y-74747709D01*
X149424792Y-74895174D01*
X149424776Y-74895185D01*
X149272831Y-75011775D01*
X149272831Y-75011777D01*
X150058966Y-75797912D01*
X149928325Y-75892829D01*
X149800329Y-76020825D01*
X149705412Y-76151466D01*
X148919277Y-75365331D01*
X148919275Y-75365331D01*
X148802685Y-75517276D01*
X148802674Y-75517292D01*
X148655209Y-75772707D01*
X148655204Y-75772718D01*
X148542338Y-76045199D01*
X148542335Y-76045209D01*
X148465999Y-76330102D01*
X148465996Y-76330115D01*
X148427501Y-76622516D01*
X148427500Y-76622533D01*
X144926701Y-76622533D01*
X146268713Y-75280521D01*
X146268716Y-75280520D01*
X146380520Y-75168716D01*
X146430639Y-75081904D01*
X146459577Y-75031785D01*
X146500500Y-74879058D01*
X146500500Y-74720943D01*
X146500500Y-74484390D01*
X146520185Y-74417351D01*
X146572989Y-74371596D01*
X146642147Y-74361652D01*
X146705703Y-74390677D01*
X146742205Y-74445384D01*
X146762893Y-74507816D01*
X146770685Y-74531331D01*
X146770687Y-74531336D01*
X146787441Y-74558499D01*
X146862788Y-74680656D01*
X146986844Y-74804712D01*
X147136166Y-74896814D01*
X147302703Y-74951999D01*
X147405491Y-74962500D01*
X148529508Y-74962499D01*
X148632297Y-74951999D01*
X148798834Y-74896814D01*
X148948156Y-74804712D01*
X149072212Y-74680656D01*
X149164314Y-74531334D01*
X149219499Y-74364797D01*
X149230000Y-74262009D01*
X149229999Y-73137992D01*
X149225319Y-73092182D01*
X149219499Y-73035203D01*
X149219498Y-73035200D01*
X149192794Y-72954614D01*
X149164314Y-72868666D01*
X149072212Y-72719344D01*
X148948156Y-72595288D01*
X148855388Y-72538069D01*
X148798836Y-72503187D01*
X148798835Y-72503186D01*
X148798834Y-72503186D01*
X148700516Y-72470606D01*
X148643073Y-72430834D01*
X148616250Y-72366318D01*
X148628565Y-72297542D01*
X148666637Y-72252583D01*
X148690648Y-72235138D01*
X148789964Y-72162981D01*
X148930481Y-72022464D01*
X149047287Y-71861694D01*
X149137505Y-71684632D01*
X149198913Y-71495636D01*
X149230000Y-71299361D01*
X149230000Y-71100639D01*
X149198913Y-70904364D01*
X149137505Y-70715368D01*
X149137505Y-70715367D01*
X149091535Y-70625149D01*
X149047287Y-70538306D01*
X148930481Y-70377536D01*
X148840626Y-70287681D01*
X148807141Y-70226358D01*
X148812125Y-70156666D01*
X148840626Y-70112319D01*
X148879367Y-70073578D01*
X148930481Y-70022464D01*
X149047287Y-69861694D01*
X149137505Y-69684632D01*
X149198913Y-69495636D01*
X149230000Y-69299361D01*
X149230000Y-69100639D01*
X149198913Y-68904364D01*
X149158252Y-68779221D01*
X149137506Y-68715370D01*
X149137505Y-68715367D01*
X149047286Y-68538305D01*
X148930481Y-68377536D01*
X148789964Y-68237019D01*
X148629194Y-68120213D01*
X148511419Y-68060203D01*
X148460624Y-68012229D01*
X148443829Y-67944408D01*
X148466366Y-67878273D01*
X148511421Y-67839234D01*
X148628922Y-67779364D01*
X148666216Y-67752268D01*
X148064250Y-67150302D01*
X148145053Y-67128651D01*
X148249946Y-67068091D01*
X148335591Y-66982446D01*
X148396151Y-66877553D01*
X148417802Y-66796749D01*
X149019768Y-67398715D01*
X149046862Y-67361425D01*
X149137042Y-67184437D01*
X149198424Y-66995523D01*
X149198424Y-66995520D01*
X149229500Y-66799321D01*
X149229500Y-66600678D01*
X149198424Y-66404479D01*
X149198424Y-66404476D01*
X149137042Y-66215562D01*
X149046858Y-66038567D01*
X149019768Y-66001283D01*
X148417802Y-66603249D01*
X148396151Y-66522447D01*
X148335591Y-66417554D01*
X148249946Y-66331909D01*
X148145053Y-66271349D01*
X148064249Y-66249697D01*
X148666216Y-65647731D01*
X148666215Y-65647730D01*
X148628932Y-65620641D01*
X148451937Y-65530457D01*
X148263022Y-65469075D01*
X148223035Y-65462742D01*
X148066821Y-65438000D01*
X147868179Y-65438000D01*
X147671979Y-65469075D01*
X147671976Y-65469075D01*
X147483062Y-65530457D01*
X147306064Y-65620643D01*
X147268783Y-65647729D01*
X147268782Y-65647730D01*
X147870750Y-66249697D01*
X147789947Y-66271349D01*
X147685054Y-66331909D01*
X147599409Y-66417554D01*
X147538849Y-66522447D01*
X147517197Y-66603250D01*
X146915230Y-66001282D01*
X146906845Y-66001942D01*
X146869487Y-66030751D01*
X146799874Y-66036729D01*
X146738079Y-66004122D01*
X146703722Y-65943283D01*
X146701838Y-65933365D01*
X146700500Y-65924330D01*
X146700500Y-65871158D01*
X146669737Y-65716503D01*
X146669711Y-65716440D01*
X146609397Y-65570827D01*
X146609390Y-65570814D01*
X146521789Y-65439711D01*
X146521786Y-65439707D01*
X146410292Y-65328213D01*
X146410288Y-65328210D01*
X146279185Y-65240609D01*
X146279172Y-65240602D01*
X146133501Y-65180264D01*
X146133489Y-65180261D01*
X145978845Y-65149500D01*
X145978842Y-65149500D01*
X145821158Y-65149500D01*
X145821155Y-65149500D01*
X145666510Y-65180261D01*
X145666498Y-65180264D01*
X145520827Y-65240602D01*
X145520814Y-65240609D01*
X145389711Y-65328210D01*
X145389707Y-65328213D01*
X145278213Y-65439707D01*
X145278210Y-65439711D01*
X145190609Y-65570814D01*
X145190602Y-65570827D01*
X145130264Y-65716498D01*
X145130261Y-65716510D01*
X145099500Y-65871153D01*
X145099500Y-66028846D01*
X145130261Y-66183489D01*
X145130264Y-66183501D01*
X145190602Y-66329172D01*
X145190609Y-66329185D01*
X145278602Y-66460874D01*
X145299480Y-66527551D01*
X145299500Y-66529765D01*
X145299500Y-74499902D01*
X145279815Y-74566941D01*
X145263181Y-74587583D01*
X142969481Y-76881282D01*
X142969479Y-76881285D01*
X142919361Y-76968094D01*
X142919359Y-76968096D01*
X142890425Y-77018209D01*
X142890424Y-77018210D01*
X142890423Y-77018215D01*
X142849499Y-77170943D01*
X142849499Y-77170945D01*
X142849499Y-77339046D01*
X142849500Y-77339059D01*
X142849500Y-77520234D01*
X142829815Y-77587273D01*
X142828602Y-77589125D01*
X142740609Y-77720814D01*
X142740602Y-77720827D01*
X142680264Y-77866498D01*
X142680261Y-77866510D01*
X142649500Y-78021153D01*
X127583245Y-78021153D01*
X127727853Y-77804732D01*
X127899247Y-77484076D01*
X128038386Y-77148164D01*
X128143930Y-76800233D01*
X128143932Y-76800223D01*
X128143935Y-76800212D01*
X128214862Y-76443630D01*
X128250500Y-76081794D01*
X128250500Y-75718206D01*
X128214862Y-75356369D01*
X128177536Y-75168716D01*
X128143935Y-74999787D01*
X128143932Y-74999776D01*
X128143931Y-74999773D01*
X128143930Y-74999767D01*
X128038386Y-74651836D01*
X127899247Y-74315924D01*
X127890735Y-74300000D01*
X127727859Y-73995279D01*
X127727858Y-73995277D01*
X127727853Y-73995268D01*
X127525854Y-73692956D01*
X127295197Y-73411899D01*
X127295196Y-73411898D01*
X127295192Y-73411893D01*
X127038106Y-73154807D01*
X126842965Y-72994659D01*
X126757047Y-72924148D01*
X126757035Y-72924140D01*
X126724102Y-72902135D01*
X130509500Y-72902135D01*
X130509500Y-74697870D01*
X130509501Y-74697876D01*
X130515908Y-74757483D01*
X130566202Y-74892328D01*
X130566206Y-74892335D01*
X130652452Y-75007544D01*
X130652455Y-75007547D01*
X130767664Y-75093793D01*
X130767671Y-75093797D01*
X130902517Y-75144091D01*
X130902516Y-75144091D01*
X130909444Y-75144835D01*
X130962127Y-75150500D01*
X132757872Y-75150499D01*
X132817483Y-75144091D01*
X132952331Y-75093796D01*
X133067546Y-75007546D01*
X133153796Y-74892331D01*
X133204091Y-74757483D01*
X133210500Y-74697873D01*
X133210499Y-74673979D01*
X133213330Y-74660963D01*
X133223940Y-74641525D01*
X133230179Y-74620275D01*
X133246803Y-74599643D01*
X133246808Y-74599636D01*
X133246811Y-74599634D01*
X133246818Y-74599626D01*
X133917037Y-73929408D01*
X133934075Y-73992993D01*
X133999901Y-74107007D01*
X134092993Y-74200099D01*
X134207007Y-74265925D01*
X134270590Y-74282962D01*
X133638282Y-74915269D01*
X133638282Y-74915270D01*
X133692449Y-74954624D01*
X133881782Y-75051095D01*
X134083870Y-75116757D01*
X134293754Y-75150000D01*
X134506246Y-75150000D01*
X134716127Y-75116757D01*
X134716130Y-75116757D01*
X134918217Y-75051095D01*
X135107554Y-74954622D01*
X135161716Y-74915270D01*
X135161717Y-74915270D01*
X134529408Y-74282962D01*
X134592993Y-74265925D01*
X134707007Y-74200099D01*
X134800099Y-74107007D01*
X134865925Y-73992993D01*
X134882962Y-73929408D01*
X135515270Y-74561717D01*
X135515270Y-74561716D01*
X135554622Y-74507555D01*
X135559232Y-74498507D01*
X135607205Y-74447709D01*
X135675025Y-74430912D01*
X135741161Y-74453447D01*
X135780204Y-74498504D01*
X135784949Y-74507817D01*
X135909890Y-74679786D01*
X136060213Y-74830109D01*
X136232179Y-74955048D01*
X136232181Y-74955049D01*
X136232184Y-74955051D01*
X136421588Y-75051557D01*
X136623757Y-75117246D01*
X136833713Y-75150500D01*
X136833714Y-75150500D01*
X137046286Y-75150500D01*
X137046287Y-75150500D01*
X137256243Y-75117246D01*
X137458412Y-75051557D01*
X137647816Y-74955051D01*
X137730222Y-74895180D01*
X137819786Y-74830109D01*
X137819788Y-74830106D01*
X137819792Y-74830104D01*
X137970104Y-74679792D01*
X137970106Y-74679788D01*
X137970109Y-74679786D01*
X138095048Y-74507820D01*
X138095050Y-74507817D01*
X138095051Y-74507816D01*
X138099514Y-74499054D01*
X138147488Y-74448259D01*
X138215308Y-74431463D01*
X138281444Y-74453999D01*
X138320484Y-74499054D01*
X138324591Y-74507115D01*
X138324951Y-74507820D01*
X138449890Y-74679786D01*
X138600213Y-74830109D01*
X138772179Y-74955048D01*
X138772181Y-74955049D01*
X138772184Y-74955051D01*
X138961588Y-75051557D01*
X139163757Y-75117246D01*
X139373713Y-75150500D01*
X139373714Y-75150500D01*
X139586286Y-75150500D01*
X139586287Y-75150500D01*
X139796243Y-75117246D01*
X139998412Y-75051557D01*
X140187816Y-74955051D01*
X140270222Y-74895180D01*
X140359786Y-74830109D01*
X140359788Y-74830106D01*
X140359792Y-74830104D01*
X140510104Y-74679792D01*
X140510106Y-74679788D01*
X140510109Y-74679786D01*
X140635048Y-74507820D01*
X140635050Y-74507817D01*
X140635051Y-74507816D01*
X140731557Y-74318412D01*
X140797246Y-74116243D01*
X140830500Y-73906287D01*
X140830500Y-73693713D01*
X140797246Y-73483757D01*
X140731557Y-73281588D01*
X140635051Y-73092184D01*
X140635049Y-73092181D01*
X140635048Y-73092179D01*
X140510109Y-72920213D01*
X140359786Y-72769890D01*
X140187820Y-72644951D01*
X139998414Y-72548444D01*
X139998413Y-72548443D01*
X139998412Y-72548443D01*
X139796243Y-72482754D01*
X139796241Y-72482753D01*
X139796240Y-72482753D01*
X139634957Y-72457208D01*
X139586287Y-72449500D01*
X139373713Y-72449500D01*
X139325042Y-72457208D01*
X139163760Y-72482753D01*
X138961585Y-72548444D01*
X138772179Y-72644951D01*
X138600213Y-72769890D01*
X138449890Y-72920213D01*
X138324949Y-73092182D01*
X138320484Y-73100946D01*
X138272509Y-73151742D01*
X138204688Y-73168536D01*
X138138553Y-73145998D01*
X138099516Y-73100946D01*
X138095050Y-73092182D01*
X137970109Y-72920213D01*
X137819786Y-72769890D01*
X137647820Y-72644951D01*
X137458414Y-72548444D01*
X137458413Y-72548443D01*
X137458412Y-72548443D01*
X137256243Y-72482754D01*
X137256241Y-72482753D01*
X137256240Y-72482753D01*
X137094957Y-72457208D01*
X137046287Y-72449500D01*
X136833713Y-72449500D01*
X136785042Y-72457208D01*
X136623760Y-72482753D01*
X136421585Y-72548444D01*
X136232179Y-72644951D01*
X136060213Y-72769890D01*
X135909890Y-72920213D01*
X135784949Y-73092182D01*
X135780202Y-73101499D01*
X135732227Y-73152293D01*
X135664405Y-73169087D01*
X135598271Y-73146548D01*
X135559234Y-73101495D01*
X135554626Y-73092452D01*
X135515270Y-73038282D01*
X135515269Y-73038282D01*
X134882962Y-73670590D01*
X134865925Y-73607007D01*
X134800099Y-73492993D01*
X134707007Y-73399901D01*
X134592993Y-73334075D01*
X134529409Y-73317037D01*
X135161716Y-72684728D01*
X135107550Y-72645375D01*
X134918217Y-72548904D01*
X134716129Y-72483242D01*
X134506246Y-72450000D01*
X134293754Y-72450000D01*
X134083872Y-72483242D01*
X134083869Y-72483242D01*
X133881782Y-72548904D01*
X133692439Y-72645380D01*
X133638282Y-72684727D01*
X133638282Y-72684728D01*
X134270591Y-73317037D01*
X134207007Y-73334075D01*
X134092993Y-73399901D01*
X133999901Y-73492993D01*
X133934075Y-73607007D01*
X133917037Y-73670591D01*
X133246818Y-73000372D01*
X133213333Y-72939049D01*
X133213330Y-72939036D01*
X133210499Y-72926015D01*
X133210499Y-72902128D01*
X133204091Y-72842517D01*
X133175926Y-72767002D01*
X133153798Y-72707673D01*
X133153793Y-72707664D01*
X133067547Y-72592455D01*
X133067544Y-72592452D01*
X132952335Y-72506206D01*
X132952328Y-72506202D01*
X132817482Y-72455908D01*
X132817483Y-72455908D01*
X132757883Y-72449501D01*
X132757881Y-72449500D01*
X132757873Y-72449500D01*
X132757864Y-72449500D01*
X130962129Y-72449500D01*
X130962123Y-72449501D01*
X130902516Y-72455908D01*
X130767671Y-72506202D01*
X130767664Y-72506206D01*
X130652455Y-72592452D01*
X130652452Y-72592455D01*
X130566206Y-72707664D01*
X130566202Y-72707671D01*
X130515908Y-72842517D01*
X130509501Y-72902116D01*
X130509500Y-72902135D01*
X126724102Y-72902135D01*
X126454738Y-72722151D01*
X126454737Y-72722150D01*
X126454732Y-72722147D01*
X126454727Y-72722144D01*
X126454720Y-72722140D01*
X126134083Y-72550756D01*
X126134078Y-72550754D01*
X126128501Y-72548444D01*
X125905102Y-72455909D01*
X125798165Y-72411614D01*
X125484803Y-72316556D01*
X125450233Y-72306070D01*
X125450232Y-72306069D01*
X125450223Y-72306067D01*
X125450212Y-72306064D01*
X125093630Y-72235137D01*
X124821111Y-72208296D01*
X124731794Y-72199500D01*
X124368206Y-72199500D01*
X124285679Y-72207628D01*
X124006369Y-72235137D01*
X123649787Y-72306064D01*
X123649776Y-72306067D01*
X123301834Y-72411614D01*
X122965921Y-72550754D01*
X122965916Y-72550756D01*
X122645279Y-72722140D01*
X122645261Y-72722151D01*
X122342964Y-72924140D01*
X122342950Y-72924150D01*
X122061893Y-73154807D01*
X121804807Y-73411893D01*
X121574150Y-73692950D01*
X121574140Y-73692964D01*
X121372151Y-73995261D01*
X121372140Y-73995279D01*
X121200756Y-74315916D01*
X121200754Y-74315921D01*
X121061614Y-74651834D01*
X120956067Y-74999776D01*
X120956064Y-74999787D01*
X120885137Y-75356369D01*
X120869290Y-75517276D01*
X120850875Y-75704253D01*
X120849500Y-75718209D01*
X120849500Y-76081790D01*
X120885137Y-76443630D01*
X120956064Y-76800212D01*
X120956067Y-76800223D01*
X121061614Y-77148165D01*
X121200754Y-77484078D01*
X121200756Y-77484083D01*
X121372140Y-77804720D01*
X121372151Y-77804738D01*
X121574140Y-78107035D01*
X121574150Y-78107049D01*
X121804807Y-78388106D01*
X122061893Y-78645192D01*
X122061898Y-78645196D01*
X122061899Y-78645197D01*
X122342956Y-78875854D01*
X122645268Y-79077853D01*
X122645277Y-79077858D01*
X122645279Y-79077859D01*
X122965916Y-79249243D01*
X122965918Y-79249243D01*
X122965924Y-79249247D01*
X122993337Y-79260601D01*
X122994151Y-79260939D01*
X123048555Y-79304779D01*
X123070620Y-79371074D01*
X123053341Y-79438773D01*
X123002204Y-79486384D01*
X122946699Y-79499500D01*
X109224500Y-79499500D01*
X109157461Y-79479815D01*
X109111706Y-79427011D01*
X109100500Y-79375500D01*
X109100500Y-73868995D01*
X114424499Y-73868995D01*
X114451418Y-74004322D01*
X114451421Y-74004332D01*
X114504221Y-74131804D01*
X114504228Y-74131817D01*
X114580885Y-74246541D01*
X114580888Y-74246545D01*
X114678454Y-74344111D01*
X114678458Y-74344114D01*
X114793182Y-74420771D01*
X114793195Y-74420778D01*
X114859541Y-74448259D01*
X114920672Y-74473580D01*
X114920676Y-74473580D01*
X114920677Y-74473581D01*
X115056004Y-74500500D01*
X115056007Y-74500500D01*
X115193995Y-74500500D01*
X115285041Y-74482389D01*
X115329328Y-74473580D01*
X115456811Y-74420775D01*
X115571542Y-74344114D01*
X115669114Y-74246542D01*
X115745775Y-74131811D01*
X115752224Y-74116243D01*
X115798578Y-74004332D01*
X115798580Y-74004328D01*
X115825500Y-73868993D01*
X115825500Y-73731007D01*
X115825500Y-73731004D01*
X115798581Y-73595677D01*
X115798580Y-73595676D01*
X115798580Y-73595672D01*
X115798578Y-73595667D01*
X115745778Y-73468195D01*
X115745771Y-73468182D01*
X115669114Y-73353458D01*
X115669111Y-73353454D01*
X115571545Y-73255888D01*
X115571541Y-73255885D01*
X115456817Y-73179228D01*
X115456804Y-73179221D01*
X115329332Y-73126421D01*
X115329322Y-73126418D01*
X115193995Y-73099500D01*
X115193993Y-73099500D01*
X115056007Y-73099500D01*
X115056005Y-73099500D01*
X114920677Y-73126418D01*
X114920667Y-73126421D01*
X114793195Y-73179221D01*
X114793182Y-73179228D01*
X114678458Y-73255885D01*
X114678454Y-73255888D01*
X114580888Y-73353454D01*
X114580885Y-73353458D01*
X114504228Y-73468182D01*
X114504221Y-73468195D01*
X114451421Y-73595667D01*
X114451418Y-73595677D01*
X114424500Y-73731004D01*
X114424500Y-73731007D01*
X114424500Y-73868993D01*
X114424500Y-73868995D01*
X114424499Y-73868995D01*
X109100500Y-73868995D01*
X109100500Y-69468995D01*
X114424499Y-69468995D01*
X114451418Y-69604322D01*
X114451421Y-69604332D01*
X114504221Y-69731804D01*
X114504228Y-69731817D01*
X114580885Y-69846541D01*
X114580888Y-69846545D01*
X114678454Y-69944111D01*
X114678458Y-69944114D01*
X114793182Y-70020771D01*
X114793195Y-70020778D01*
X114920667Y-70073578D01*
X114920672Y-70073580D01*
X114920676Y-70073580D01*
X114920677Y-70073581D01*
X115056004Y-70100500D01*
X115056007Y-70100500D01*
X115193995Y-70100500D01*
X115285041Y-70082389D01*
X115329328Y-70073580D01*
X115452729Y-70022466D01*
X115456804Y-70020778D01*
X115456804Y-70020777D01*
X115456811Y-70020775D01*
X115571542Y-69944114D01*
X115669114Y-69846542D01*
X115745775Y-69731811D01*
X115798580Y-69604328D01*
X115814965Y-69521957D01*
X115825500Y-69468995D01*
X115825500Y-69331004D01*
X115798581Y-69195677D01*
X115798580Y-69195676D01*
X115798580Y-69195672D01*
X115798578Y-69195667D01*
X115745778Y-69068195D01*
X115745771Y-69068182D01*
X115669114Y-68953458D01*
X115669111Y-68953454D01*
X115571545Y-68855888D01*
X115571541Y-68855885D01*
X115456817Y-68779228D01*
X115456804Y-68779221D01*
X115329332Y-68726421D01*
X115329322Y-68726418D01*
X115193995Y-68699500D01*
X115193993Y-68699500D01*
X115056007Y-68699500D01*
X115056005Y-68699500D01*
X114920677Y-68726418D01*
X114920667Y-68726421D01*
X114793195Y-68779221D01*
X114793182Y-68779228D01*
X114678458Y-68855885D01*
X114678454Y-68855888D01*
X114580888Y-68953454D01*
X114580885Y-68953458D01*
X114504228Y-69068182D01*
X114504221Y-69068195D01*
X114451421Y-69195667D01*
X114451418Y-69195677D01*
X114424500Y-69331004D01*
X114424500Y-69331007D01*
X114424500Y-69468993D01*
X114424500Y-69468995D01*
X114424499Y-69468995D01*
X109100500Y-69468995D01*
X109100500Y-64121153D01*
X127399500Y-64121153D01*
X127399500Y-64278846D01*
X127430261Y-64433489D01*
X127430264Y-64433501D01*
X127490602Y-64579172D01*
X127490609Y-64579185D01*
X127578210Y-64710288D01*
X127578213Y-64710292D01*
X127689707Y-64821786D01*
X127689711Y-64821789D01*
X127820814Y-64909390D01*
X127820827Y-64909397D01*
X127966498Y-64969735D01*
X127966503Y-64969737D01*
X128031147Y-64982595D01*
X128121849Y-65000638D01*
X128183760Y-65033023D01*
X128185339Y-65034574D01*
X129200681Y-66049916D01*
X129234166Y-66111239D01*
X129237000Y-66137597D01*
X129237000Y-69282734D01*
X129217315Y-69349773D01*
X129216102Y-69351625D01*
X129128109Y-69483314D01*
X129128102Y-69483327D01*
X129067764Y-69628998D01*
X129067761Y-69629010D01*
X129037000Y-69783653D01*
X129037000Y-69941346D01*
X129067761Y-70095989D01*
X129067764Y-70096001D01*
X129128102Y-70241672D01*
X129128109Y-70241685D01*
X129215710Y-70372788D01*
X129215713Y-70372792D01*
X129327207Y-70484286D01*
X129327211Y-70484289D01*
X129458314Y-70571890D01*
X129458327Y-70571897D01*
X129603998Y-70632235D01*
X129604003Y-70632237D01*
X129758653Y-70662999D01*
X129758656Y-70663000D01*
X129758658Y-70663000D01*
X129916344Y-70663000D01*
X129916345Y-70662999D01*
X130070997Y-70632237D01*
X130216679Y-70571894D01*
X130347789Y-70484289D01*
X130459289Y-70372789D01*
X130546894Y-70241679D01*
X130607237Y-70095997D01*
X130638000Y-69941342D01*
X130638000Y-69783658D01*
X130638000Y-69783655D01*
X130637999Y-69783653D01*
X130627687Y-69731811D01*
X130607237Y-69629003D01*
X130597018Y-69604332D01*
X130546897Y-69483327D01*
X130546890Y-69483314D01*
X130458898Y-69351625D01*
X130438020Y-69284947D01*
X130438000Y-69282734D01*
X130438000Y-65926560D01*
X130438001Y-65926547D01*
X130438001Y-65758444D01*
X130426763Y-65716503D01*
X130397077Y-65605716D01*
X130338825Y-65504819D01*
X130318024Y-65468790D01*
X130318018Y-65468782D01*
X129034573Y-64185337D01*
X129001088Y-64124014D01*
X129000637Y-64121847D01*
X128990301Y-64069884D01*
X128969737Y-63966503D01*
X128941898Y-63899292D01*
X128909397Y-63820827D01*
X128909390Y-63820814D01*
X128821789Y-63689711D01*
X128821786Y-63689707D01*
X128710292Y-63578213D01*
X128710287Y-63578209D01*
X128579185Y-63490609D01*
X128579172Y-63490602D01*
X128559691Y-63482533D01*
X148427500Y-63482533D01*
X148427500Y-63777466D01*
X148427501Y-63777483D01*
X148465996Y-64069884D01*
X148465999Y-64069897D01*
X148542335Y-64354790D01*
X148542338Y-64354800D01*
X148655204Y-64627281D01*
X148655209Y-64627292D01*
X148802674Y-64882707D01*
X148802680Y-64882715D01*
X148919277Y-65034667D01*
X149705412Y-64248531D01*
X149800329Y-64379175D01*
X149928325Y-64507171D01*
X150058966Y-64602086D01*
X149272831Y-65388221D01*
X149424784Y-65504819D01*
X149424792Y-65504825D01*
X149680207Y-65652290D01*
X149680218Y-65652295D01*
X149952699Y-65765161D01*
X149952709Y-65765164D01*
X150237602Y-65841500D01*
X150237615Y-65841503D01*
X150530016Y-65879998D01*
X150530034Y-65880000D01*
X150824966Y-65880000D01*
X150824983Y-65879998D01*
X151117384Y-65841503D01*
X151117397Y-65841500D01*
X151402290Y-65765164D01*
X151402300Y-65765161D01*
X151674781Y-65652295D01*
X151674792Y-65652290D01*
X151930207Y-65504825D01*
X151930225Y-65504813D01*
X152082167Y-65388222D01*
X152082167Y-65388220D01*
X151296033Y-64602086D01*
X151426675Y-64507171D01*
X151554671Y-64379175D01*
X151649586Y-64248533D01*
X152435720Y-65034667D01*
X152435722Y-65034667D01*
X152552313Y-64882725D01*
X152552325Y-64882707D01*
X152699790Y-64627292D01*
X152699795Y-64627281D01*
X152812661Y-64354800D01*
X152812664Y-64354790D01*
X152889000Y-64069897D01*
X152889003Y-64069884D01*
X152927498Y-63777483D01*
X152927500Y-63777466D01*
X152927500Y-63482533D01*
X152927498Y-63482516D01*
X152889003Y-63190115D01*
X152889000Y-63190102D01*
X152812664Y-62905209D01*
X152812661Y-62905199D01*
X152699795Y-62632718D01*
X152699790Y-62632707D01*
X152552325Y-62377292D01*
X152552319Y-62377284D01*
X152435721Y-62225331D01*
X151649586Y-63011466D01*
X151554671Y-62880825D01*
X151426675Y-62752829D01*
X151296032Y-62657912D01*
X152082167Y-61871777D01*
X151930215Y-61755180D01*
X151930207Y-61755174D01*
X151674792Y-61607709D01*
X151674781Y-61607704D01*
X151402300Y-61494838D01*
X151402290Y-61494835D01*
X151117397Y-61418499D01*
X151117384Y-61418496D01*
X150824983Y-61380001D01*
X150824966Y-61380000D01*
X150530034Y-61380000D01*
X150530016Y-61380001D01*
X150237615Y-61418496D01*
X150237602Y-61418499D01*
X149952709Y-61494835D01*
X149952699Y-61494838D01*
X149680218Y-61607704D01*
X149680207Y-61607709D01*
X149424792Y-61755174D01*
X149424776Y-61755185D01*
X149272831Y-61871775D01*
X149272831Y-61871777D01*
X150058966Y-62657912D01*
X149928325Y-62752829D01*
X149800329Y-62880825D01*
X149705412Y-63011466D01*
X148919277Y-62225331D01*
X148919275Y-62225331D01*
X148802685Y-62377276D01*
X148802674Y-62377292D01*
X148655209Y-62632707D01*
X148655204Y-62632718D01*
X148542338Y-62905199D01*
X148542335Y-62905209D01*
X148465999Y-63190102D01*
X148465996Y-63190115D01*
X148427501Y-63482516D01*
X148427500Y-63482533D01*
X128559691Y-63482533D01*
X128433501Y-63430264D01*
X128433489Y-63430261D01*
X128278845Y-63399500D01*
X128278842Y-63399500D01*
X128121158Y-63399500D01*
X128121155Y-63399500D01*
X127966510Y-63430261D01*
X127966498Y-63430264D01*
X127820827Y-63490602D01*
X127820814Y-63490609D01*
X127689711Y-63578210D01*
X127689707Y-63578213D01*
X127578213Y-63689707D01*
X127578210Y-63689711D01*
X127490609Y-63820814D01*
X127490602Y-63820827D01*
X127430264Y-63966498D01*
X127430261Y-63966510D01*
X127399500Y-64121153D01*
X109100500Y-64121153D01*
X109100500Y-55531995D01*
X118261500Y-55531995D01*
X118261500Y-55768004D01*
X118261501Y-55768020D01*
X118292306Y-56002010D01*
X118353394Y-56229993D01*
X118443714Y-56448045D01*
X118443719Y-56448056D01*
X118514677Y-56570957D01*
X118561727Y-56652450D01*
X118561729Y-56652453D01*
X118561730Y-56652454D01*
X118705406Y-56839697D01*
X118705412Y-56839704D01*
X118872295Y-57006587D01*
X118872301Y-57006592D01*
X119059550Y-57150273D01*
X119190918Y-57226118D01*
X119263943Y-57268280D01*
X119263948Y-57268282D01*
X119263951Y-57268284D01*
X119482007Y-57358606D01*
X119709986Y-57419693D01*
X119943989Y-57450500D01*
X119943996Y-57450500D01*
X120180004Y-57450500D01*
X120180011Y-57450500D01*
X120414014Y-57419693D01*
X120641993Y-57358606D01*
X120860049Y-57268284D01*
X121064450Y-57150273D01*
X121251699Y-57006592D01*
X121418592Y-56839699D01*
X121562273Y-56652450D01*
X121680284Y-56448049D01*
X121770606Y-56229993D01*
X121831693Y-56002014D01*
X121862500Y-55768011D01*
X121862500Y-55531995D01*
X148699500Y-55531995D01*
X148699500Y-55768004D01*
X148699501Y-55768020D01*
X148730306Y-56002010D01*
X148791394Y-56229993D01*
X148881714Y-56448045D01*
X148881719Y-56448056D01*
X148952677Y-56570957D01*
X148999727Y-56652450D01*
X148999729Y-56652453D01*
X148999730Y-56652454D01*
X149143406Y-56839697D01*
X149143412Y-56839704D01*
X149310295Y-57006587D01*
X149310301Y-57006592D01*
X149497550Y-57150273D01*
X149628918Y-57226118D01*
X149701943Y-57268280D01*
X149701948Y-57268282D01*
X149701951Y-57268284D01*
X149920007Y-57358606D01*
X150147986Y-57419693D01*
X150381989Y-57450500D01*
X150381996Y-57450500D01*
X150618004Y-57450500D01*
X150618011Y-57450500D01*
X150852014Y-57419693D01*
X151079993Y-57358606D01*
X151298049Y-57268284D01*
X151502450Y-57150273D01*
X151689699Y-57006592D01*
X151856592Y-56839699D01*
X152000273Y-56652450D01*
X152118284Y-56448049D01*
X152208606Y-56229993D01*
X152269693Y-56002014D01*
X152300500Y-55768011D01*
X152300500Y-55531989D01*
X152269693Y-55297986D01*
X152208606Y-55070007D01*
X152118284Y-54851951D01*
X152118282Y-54851948D01*
X152118280Y-54851943D01*
X152076118Y-54778918D01*
X152000273Y-54647550D01*
X151856592Y-54460301D01*
X151856587Y-54460295D01*
X151689704Y-54293412D01*
X151689697Y-54293406D01*
X151502454Y-54149730D01*
X151502453Y-54149729D01*
X151502450Y-54149727D01*
X151420957Y-54102677D01*
X151298056Y-54031719D01*
X151298045Y-54031714D01*
X151079993Y-53941394D01*
X150852010Y-53880306D01*
X150618020Y-53849501D01*
X150618017Y-53849500D01*
X150618011Y-53849500D01*
X150381989Y-53849500D01*
X150381983Y-53849500D01*
X150381979Y-53849501D01*
X150147989Y-53880306D01*
X149920006Y-53941394D01*
X149701954Y-54031714D01*
X149701943Y-54031719D01*
X149497545Y-54149730D01*
X149310302Y-54293406D01*
X149310295Y-54293412D01*
X149143412Y-54460295D01*
X149143406Y-54460302D01*
X148999730Y-54647545D01*
X148881719Y-54851943D01*
X148881714Y-54851954D01*
X148791394Y-55070006D01*
X148730306Y-55297989D01*
X148699501Y-55531979D01*
X148699500Y-55531995D01*
X121862500Y-55531995D01*
X121862500Y-55531989D01*
X121831693Y-55297986D01*
X121770606Y-55070007D01*
X121680284Y-54851951D01*
X121680282Y-54851948D01*
X121680280Y-54851943D01*
X121638118Y-54778918D01*
X121562273Y-54647550D01*
X121418592Y-54460301D01*
X121418587Y-54460295D01*
X121251704Y-54293412D01*
X121251697Y-54293406D01*
X121064454Y-54149730D01*
X121064453Y-54149729D01*
X121064450Y-54149727D01*
X120982957Y-54102677D01*
X120860056Y-54031719D01*
X120860045Y-54031714D01*
X120792862Y-54003886D01*
X120641993Y-53941394D01*
X120414010Y-53880306D01*
X120180020Y-53849501D01*
X120180017Y-53849500D01*
X120180011Y-53849500D01*
X119943989Y-53849500D01*
X119943983Y-53849500D01*
X119943979Y-53849501D01*
X119709989Y-53880306D01*
X119482006Y-53941394D01*
X119263954Y-54031714D01*
X119263943Y-54031719D01*
X119059545Y-54149730D01*
X118872302Y-54293406D01*
X118872295Y-54293412D01*
X118705412Y-54460295D01*
X118705406Y-54460302D01*
X118561730Y-54647545D01*
X118443719Y-54851943D01*
X118443714Y-54851954D01*
X118353394Y-55070006D01*
X118292306Y-55297989D01*
X118261501Y-55531979D01*
X118261500Y-55531995D01*
X109100500Y-55531995D01*
X109100500Y-52382014D01*
X125362000Y-52382014D01*
X125362000Y-52617985D01*
X125392799Y-52851914D01*
X125453870Y-53079837D01*
X125544160Y-53297819D01*
X125544165Y-53297828D01*
X125662144Y-53502171D01*
X125662145Y-53502172D01*
X125724721Y-53583723D01*
X126446152Y-52862292D01*
X126453049Y-52878942D01*
X126540599Y-53009970D01*
X126652030Y-53121401D01*
X126783058Y-53208951D01*
X126799706Y-53215846D01*
X126078275Y-53937277D01*
X126159827Y-53999854D01*
X126159828Y-53999855D01*
X126364171Y-54117834D01*
X126364180Y-54117839D01*
X126582163Y-54208129D01*
X126582161Y-54208129D01*
X126810085Y-54269200D01*
X127044014Y-54299999D01*
X127044029Y-54300000D01*
X127279971Y-54300000D01*
X127279985Y-54299999D01*
X127513914Y-54269200D01*
X127741837Y-54208129D01*
X127959819Y-54117839D01*
X127959828Y-54117834D01*
X128164181Y-53999850D01*
X128245723Y-53937279D01*
X128245723Y-53937276D01*
X127524293Y-53215847D01*
X127540942Y-53208951D01*
X127671970Y-53121401D01*
X127783401Y-53009970D01*
X127870951Y-52878942D01*
X127877846Y-52862293D01*
X128599276Y-53583723D01*
X128599279Y-53583723D01*
X128661850Y-53502181D01*
X128779834Y-53297828D01*
X128779839Y-53297819D01*
X128870129Y-53079837D01*
X128931200Y-52851914D01*
X128961999Y-52617985D01*
X128962000Y-52617971D01*
X128962000Y-52382028D01*
X128961999Y-52382014D01*
X128931200Y-52148085D01*
X128870129Y-51920162D01*
X128779839Y-51702180D01*
X128779834Y-51702171D01*
X128661855Y-51497828D01*
X128661854Y-51497827D01*
X128599277Y-51416275D01*
X127877846Y-52137705D01*
X127870951Y-52121058D01*
X127783401Y-51990030D01*
X127671970Y-51878599D01*
X127540942Y-51791049D01*
X127524293Y-51784152D01*
X128245723Y-51062721D01*
X128164172Y-51000145D01*
X128164171Y-51000144D01*
X127959828Y-50882165D01*
X127959819Y-50882160D01*
X127741836Y-50791870D01*
X127741838Y-50791870D01*
X127513914Y-50730799D01*
X127279985Y-50700000D01*
X127044014Y-50700000D01*
X126810085Y-50730799D01*
X126582162Y-50791870D01*
X126364180Y-50882160D01*
X126364171Y-50882165D01*
X126159828Y-51000144D01*
X126159818Y-51000150D01*
X126078275Y-51062720D01*
X126078275Y-51062721D01*
X126799706Y-51784152D01*
X126783058Y-51791049D01*
X126652030Y-51878599D01*
X126540599Y-51990030D01*
X126453049Y-52121058D01*
X126446153Y-52137706D01*
X125724721Y-51416275D01*
X125724720Y-51416275D01*
X125662150Y-51497818D01*
X125662144Y-51497828D01*
X125544165Y-51702171D01*
X125544160Y-51702180D01*
X125453870Y-51920162D01*
X125392799Y-52148085D01*
X125362000Y-52382014D01*
X109100500Y-52382014D01*
X109100500Y-49231995D01*
X118261500Y-49231995D01*
X118261500Y-49468004D01*
X118261501Y-49468020D01*
X118292306Y-49702010D01*
X118353394Y-49929993D01*
X118443714Y-50148045D01*
X118443719Y-50148056D01*
X118514677Y-50270957D01*
X118561727Y-50352450D01*
X118561729Y-50352453D01*
X118561730Y-50352454D01*
X118705406Y-50539697D01*
X118705412Y-50539704D01*
X118872295Y-50706587D01*
X118872301Y-50706592D01*
X119059550Y-50850273D01*
X119190918Y-50926118D01*
X119263943Y-50968280D01*
X119263948Y-50968282D01*
X119263951Y-50968284D01*
X119482007Y-51058606D01*
X119709986Y-51119693D01*
X119943989Y-51150500D01*
X119943996Y-51150500D01*
X120180004Y-51150500D01*
X120180011Y-51150500D01*
X120414014Y-51119693D01*
X120641993Y-51058606D01*
X120839087Y-50976966D01*
X120860040Y-50968288D01*
X120860043Y-50968286D01*
X120860049Y-50968284D01*
X121064450Y-50850273D01*
X121251699Y-50706592D01*
X121418592Y-50539699D01*
X121511817Y-50418206D01*
X131249500Y-50418206D01*
X131249500Y-50781794D01*
X131256244Y-50850269D01*
X131285137Y-51143630D01*
X131356064Y-51500212D01*
X131356067Y-51500223D01*
X131461614Y-51848165D01*
X131600754Y-52184078D01*
X131600756Y-52184083D01*
X131772140Y-52504720D01*
X131772151Y-52504738D01*
X131974140Y-52807035D01*
X131974150Y-52807049D01*
X132204807Y-53088106D01*
X132461893Y-53345192D01*
X132461898Y-53345196D01*
X132461899Y-53345197D01*
X132742956Y-53575854D01*
X133045268Y-53777853D01*
X133045277Y-53777858D01*
X133045279Y-53777859D01*
X133365916Y-53949243D01*
X133365918Y-53949243D01*
X133365924Y-53949247D01*
X133701836Y-54088386D01*
X134049767Y-54193930D01*
X134049773Y-54193931D01*
X134049776Y-54193932D01*
X134049787Y-54193935D01*
X134406369Y-54264862D01*
X134768206Y-54300500D01*
X134768209Y-54300500D01*
X135131791Y-54300500D01*
X135131794Y-54300500D01*
X135493631Y-54264862D01*
X135563045Y-54251054D01*
X135850212Y-54193935D01*
X135850223Y-54193932D01*
X135850223Y-54193931D01*
X135850233Y-54193930D01*
X136198164Y-54088386D01*
X136534076Y-53949247D01*
X136854732Y-53777853D01*
X137157044Y-53575854D01*
X137438101Y-53345197D01*
X137695197Y-53088101D01*
X137925854Y-52807044D01*
X138127853Y-52504732D01*
X138193447Y-52382014D01*
X141600000Y-52382014D01*
X141600000Y-52617985D01*
X141630799Y-52851914D01*
X141691870Y-53079837D01*
X141782160Y-53297819D01*
X141782165Y-53297828D01*
X141900144Y-53502171D01*
X141900145Y-53502172D01*
X141962721Y-53583723D01*
X142684152Y-52862292D01*
X142691049Y-52878942D01*
X142778599Y-53009970D01*
X142890030Y-53121401D01*
X143021058Y-53208951D01*
X143037706Y-53215846D01*
X142316275Y-53937277D01*
X142397827Y-53999854D01*
X142397828Y-53999855D01*
X142602171Y-54117834D01*
X142602180Y-54117839D01*
X142820163Y-54208129D01*
X142820161Y-54208129D01*
X143048085Y-54269200D01*
X143282014Y-54299999D01*
X143282029Y-54300000D01*
X143517971Y-54300000D01*
X143517985Y-54299999D01*
X143751914Y-54269200D01*
X143979837Y-54208129D01*
X144197819Y-54117839D01*
X144197828Y-54117834D01*
X144402181Y-53999850D01*
X144483723Y-53937279D01*
X144483723Y-53937276D01*
X143762293Y-53215847D01*
X143778942Y-53208951D01*
X143909970Y-53121401D01*
X144021401Y-53009970D01*
X144108951Y-52878942D01*
X144115847Y-52862293D01*
X144837276Y-53583723D01*
X144837279Y-53583723D01*
X144899850Y-53502181D01*
X145017834Y-53297828D01*
X145017839Y-53297819D01*
X145108129Y-53079837D01*
X145169200Y-52851914D01*
X145199999Y-52617985D01*
X145200000Y-52617971D01*
X145200000Y-52382028D01*
X145199999Y-52382014D01*
X145169200Y-52148085D01*
X145108129Y-51920162D01*
X145017839Y-51702180D01*
X145017834Y-51702171D01*
X144899855Y-51497828D01*
X144899854Y-51497827D01*
X144837277Y-51416275D01*
X144115846Y-52137705D01*
X144108951Y-52121058D01*
X144021401Y-51990030D01*
X143909970Y-51878599D01*
X143778942Y-51791049D01*
X143762293Y-51784152D01*
X144483723Y-51062721D01*
X144402172Y-51000145D01*
X144402171Y-51000144D01*
X144197828Y-50882165D01*
X144197819Y-50882160D01*
X143979836Y-50791870D01*
X143979838Y-50791870D01*
X143751914Y-50730799D01*
X143517985Y-50700000D01*
X143282014Y-50700000D01*
X143048085Y-50730799D01*
X142820162Y-50791870D01*
X142602180Y-50882160D01*
X142602171Y-50882165D01*
X142397828Y-51000144D01*
X142397818Y-51000150D01*
X142316275Y-51062720D01*
X142316275Y-51062721D01*
X143037706Y-51784152D01*
X143021058Y-51791049D01*
X142890030Y-51878599D01*
X142778599Y-51990030D01*
X142691049Y-52121058D01*
X142684153Y-52137706D01*
X141962721Y-51416275D01*
X141962720Y-51416275D01*
X141900150Y-51497818D01*
X141900144Y-51497828D01*
X141782165Y-51702171D01*
X141782160Y-51702180D01*
X141691870Y-51920162D01*
X141630799Y-52148085D01*
X141600000Y-52382014D01*
X138193447Y-52382014D01*
X138299247Y-52184076D01*
X138438386Y-51848164D01*
X138543930Y-51500233D01*
X138543932Y-51500223D01*
X138543935Y-51500212D01*
X138614862Y-51143630D01*
X138614862Y-51143628D01*
X138619305Y-51098521D01*
X138619305Y-51098520D01*
X138632132Y-50968284D01*
X138650500Y-50781794D01*
X138650500Y-50418206D01*
X138614862Y-50056369D01*
X138543935Y-49699787D01*
X138543932Y-49699776D01*
X138543931Y-49699773D01*
X138543930Y-49699767D01*
X138438386Y-49351836D01*
X138388746Y-49231995D01*
X148699500Y-49231995D01*
X148699500Y-49468004D01*
X148699501Y-49468020D01*
X148730306Y-49702010D01*
X148791394Y-49929993D01*
X148881714Y-50148045D01*
X148881719Y-50148056D01*
X148952677Y-50270957D01*
X148999727Y-50352450D01*
X148999729Y-50352453D01*
X148999730Y-50352454D01*
X149143406Y-50539697D01*
X149143412Y-50539704D01*
X149310295Y-50706587D01*
X149310301Y-50706592D01*
X149497550Y-50850273D01*
X149628918Y-50926118D01*
X149701943Y-50968280D01*
X149701948Y-50968282D01*
X149701951Y-50968284D01*
X149920007Y-51058606D01*
X150147986Y-51119693D01*
X150381989Y-51150500D01*
X150381996Y-51150500D01*
X150618004Y-51150500D01*
X150618011Y-51150500D01*
X150852014Y-51119693D01*
X151079993Y-51058606D01*
X151298049Y-50968284D01*
X151502450Y-50850273D01*
X151689699Y-50706592D01*
X151856592Y-50539699D01*
X152000273Y-50352450D01*
X152118284Y-50148049D01*
X152208606Y-49929993D01*
X152269693Y-49702014D01*
X152300500Y-49468011D01*
X152300500Y-49231989D01*
X152269693Y-48997986D01*
X152208606Y-48770007D01*
X152118284Y-48551951D01*
X152118282Y-48551948D01*
X152118280Y-48551943D01*
X152076118Y-48478918D01*
X152000273Y-48347550D01*
X151856592Y-48160301D01*
X151856587Y-48160295D01*
X151689704Y-47993412D01*
X151689697Y-47993406D01*
X151502454Y-47849730D01*
X151502453Y-47849729D01*
X151502450Y-47849727D01*
X151420957Y-47802677D01*
X151298056Y-47731719D01*
X151298045Y-47731714D01*
X151079993Y-47641394D01*
X150852010Y-47580306D01*
X150618020Y-47549501D01*
X150618017Y-47549500D01*
X150618011Y-47549500D01*
X150381989Y-47549500D01*
X150381983Y-47549500D01*
X150381979Y-47549501D01*
X150147989Y-47580306D01*
X149920006Y-47641394D01*
X149701954Y-47731714D01*
X149701943Y-47731719D01*
X149497545Y-47849730D01*
X149310302Y-47993406D01*
X149310295Y-47993412D01*
X149143412Y-48160295D01*
X149143406Y-48160302D01*
X148999730Y-48347545D01*
X148881719Y-48551943D01*
X148881714Y-48551954D01*
X148791394Y-48770006D01*
X148730306Y-48997989D01*
X148699501Y-49231979D01*
X148699500Y-49231995D01*
X138388746Y-49231995D01*
X138299247Y-49015924D01*
X138127853Y-48695268D01*
X137925854Y-48392956D01*
X137695197Y-48111899D01*
X137695196Y-48111898D01*
X137695192Y-48111893D01*
X137438106Y-47854807D01*
X137157049Y-47624150D01*
X137157048Y-47624149D01*
X137157044Y-47624146D01*
X136854732Y-47422147D01*
X136854727Y-47422144D01*
X136854720Y-47422140D01*
X136534083Y-47250756D01*
X136534078Y-47250754D01*
X136198165Y-47111614D01*
X135850223Y-47006067D01*
X135850212Y-47006064D01*
X135493630Y-46935137D01*
X135221111Y-46908296D01*
X135131794Y-46899500D01*
X134768206Y-46899500D01*
X134685679Y-46907628D01*
X134406369Y-46935137D01*
X134049787Y-47006064D01*
X134049776Y-47006067D01*
X133701834Y-47111614D01*
X133365921Y-47250754D01*
X133365916Y-47250756D01*
X133045279Y-47422140D01*
X133045261Y-47422151D01*
X132742964Y-47624140D01*
X132742950Y-47624150D01*
X132461893Y-47854807D01*
X132204807Y-48111893D01*
X131974150Y-48392950D01*
X131974140Y-48392964D01*
X131772151Y-48695261D01*
X131772140Y-48695279D01*
X131600756Y-49015916D01*
X131600754Y-49015921D01*
X131461614Y-49351834D01*
X131356067Y-49699776D01*
X131356064Y-49699787D01*
X131285137Y-50056369D01*
X131257628Y-50335679D01*
X131249500Y-50418206D01*
X121511817Y-50418206D01*
X121562273Y-50352450D01*
X121680284Y-50148049D01*
X121770606Y-49929993D01*
X121831693Y-49702014D01*
X121862500Y-49468011D01*
X121862500Y-49231989D01*
X121831693Y-48997986D01*
X121770606Y-48770007D01*
X121680284Y-48551951D01*
X121680282Y-48551948D01*
X121680280Y-48551943D01*
X121638118Y-48478918D01*
X121562273Y-48347550D01*
X121418592Y-48160301D01*
X121418587Y-48160295D01*
X121251704Y-47993412D01*
X121251697Y-47993406D01*
X121064454Y-47849730D01*
X121064453Y-47849729D01*
X121064450Y-47849727D01*
X120982957Y-47802677D01*
X120860056Y-47731719D01*
X120860045Y-47731714D01*
X120641993Y-47641394D01*
X120414010Y-47580306D01*
X120180020Y-47549501D01*
X120180017Y-47549500D01*
X120180011Y-47549500D01*
X119943989Y-47549500D01*
X119943983Y-47549500D01*
X119943979Y-47549501D01*
X119709989Y-47580306D01*
X119482006Y-47641394D01*
X119263954Y-47731714D01*
X119263943Y-47731719D01*
X119059545Y-47849730D01*
X118872302Y-47993406D01*
X118872295Y-47993412D01*
X118705412Y-48160295D01*
X118705406Y-48160302D01*
X118561730Y-48347545D01*
X118443719Y-48551943D01*
X118443714Y-48551954D01*
X118353394Y-48770006D01*
X118292306Y-48997989D01*
X118261501Y-49231979D01*
X118261500Y-49231995D01*
X109100500Y-49231995D01*
X109100500Y-44724500D01*
X109120185Y-44657461D01*
X109172989Y-44611706D01*
X109224500Y-44600500D01*
X160875500Y-44600500D01*
X160942539Y-44620185D01*
G37*
%TD.AperFunction*%
%TD*%
M02*
